<?xml version="1.0" encoding="UTF-8" standalone="no"?>
<svg xmlns:dc="http://purl.org/dc/elements/1.1/" xmlns:cc="http://creativecommons.org/ns#" xmlns:rdf="http://www.w3.org/1999/02/22-rdf-syntax-ns#" xmlns:svg="http://www.w3.org/2000/svg" xmlns="http://www.w3.org/2000/svg" xmlns:sodipodi="http://sodipodi.sourceforge.net/DTD/sodipodi-0.dtd" xmlns:inkscape="http://www.inkscape.org/namespaces/inkscape" width="16px" height="16px" viewBox="0 0 16 16" id="svg2" version="1.1" inkscape:version="0.91 r13725" sodipodi:docname="74.svg">
  <defs id="defs4"/>
  <sodipodi:namedview id="base" pagecolor="#ffffff" bordercolor="#666666" borderopacity="1.0" inkscape:pageopacity="0.0" inkscape:pageshadow="2" inkscape:zoom="15.839192" inkscape:cx="-0.94360962" inkscape:cy="12.369078" inkscape:document-units="px" inkscape:current-layer="layer1" showgrid="true" units="px" inkscape:window-width="1366" inkscape:window-height="715" inkscape:window-x="-8" inkscape:window-y="-8" inkscape:window-maximized="1">
    <inkscape:grid type="xygrid" id="grid3358"/>
  </sodipodi:namedview>
  
  <g inkscape:label="Layer 1" inkscape:groupmode="layer" id="layer1" transform="translate(0,-1036.3622)">
    <path style="color:#000000;font-style:normal;font-variant:normal;font-weight:normal;font-stretch:normal;font-size:medium;line-height:normal;font-family:sans-serif;text-indent:0;text-align:start;text-decoration:none;text-decoration-line:none;text-decoration-style:solid;text-decoration-color:#000000;letter-spacing:normal;word-spacing:normal;text-transform:none;direction:ltr;block-progression:tb;writing-mode:lr-tb;baseline-shift:baseline;text-anchor:start;white-space:normal;clip-rule:nonzero;display:inline;overflow:visible;visibility:visible;opacity:1;isolation:auto;mix-blend-mode:normal;color-interpolation:sRGB;color-interpolation-filters:linearRGB;solid-color:#000000;solid-opacity:1;fill:#000000;fill-opacity:1;fill-rule:nonzero;stroke:none;stroke-width:1;stroke-linecap:butt;stroke-linejoin:miter;stroke-miterlimit:4;stroke-dasharray:none;stroke-dashoffset:0;stroke-opacity:1;color-rendering:auto;image-rendering:auto;shape-rendering:auto;text-rendering:auto;enable-background:accumulate" d="M 11.255859 2.0058594 C 10.409982 2.0629879 9.6449125 2.5440083 9.2167969 3.2792969 C 8.6757354 3.100732 8.0999448 3.0019531 7.5 3.0019531 C 6.8972394 3.0019531 6.318644 3.101075 5.7753906 3.28125 C 5.2760051 2.421535 4.3154062 1.9117478 3.3046875 2.015625 C 2.1468186 2.134625 1.2099135 3.0302469 1.0273438 4.1855469 C 0.86008 5.2442612 1.3638259 6.2841807 2.265625 6.8183594 C 2.0945178 7.3490977 2 7.9151977 2 8.5019531 C 2 11.533553 4.4683562 14.001953 7.5 14.001953 C 10.531644 14.001953 13 11.533553 13 8.5019531 C 13 7.9130194 12.90475 7.3449483 12.732422 6.8125 C 13.628628 6.2767329 14.127698 5.2407646 13.960938 4.1855469 C 13.778373 3.0300469 12.84343 2.1325719 11.685547 2.0136719 C 11.54081 1.9988094 11.397384 1.9963012 11.255859 2.0058594 z M 3.4042969 3.0097656 C 3.9804788 2.9510559 4.5142822 3.2259956 4.8339844 3.6933594 C 3.9236533 4.2003895 3.1700249 4.9583814 2.6699219 5.8730469 C 2.1898403 5.5292858 1.9192893 4.9495816 2.015625 4.3398438 C 2.1288012 3.6236437 2.6976824 3.0824656 3.4042969 3.0097656 z M 11.587891 3.0097656 C 12.294513 3.0823656 12.861437 3.6236437 12.974609 4.3398438 C 13.070469 4.9465449 12.801832 5.5227052 12.326172 5.8671875 C 11.824661 4.9527265 11.069914 4.1953566 10.158203 3.6894531 C 10.478239 3.2242843 11.013153 2.9512054 11.587891 3.0097656 z M 7.5 4.0019531 C 9.9912035 4.0019531 12 6.0107531 12 8.5019531 C 12 10.993153 9.9912035 13.001953 7.5 13.001953 C 5.0087963 13.001953 3 10.993153 3 8.5019531 C 3 6.0107531 5.0087963 4.0019531 7.5 4.0019531 z M 7.0117188 6.0019531 L 7.0117188 8.9941406 L 9.9941406 8.9941406 L 9.9941406 7.9941406 L 8.0117188 7.9941406 L 8.0117188 6.0019531 L 7.0117188 6.0019531 z " transform="translate(0,1036.3622)" id="path4466"/>
  </g>

	
	
	<metadata>
		<rdf:RDF xmlns:rdf="http://www.w3.org/1999/02/22-rdf-syntax-ns#" xmlns:rdfs="http://www.w3.org/2000/01/rdf-schema#" xmlns:dc="http://purl.org/dc/elements/1.1/">
			<rdf:Description about="https://iconscout.com/legal#licenses" dc:title="Alarm, Clock, UI, Notification, Reminder, Time" dc:description="Alarm, Clock, UI, Notification, Reminder, Time" dc:publisher="Iconscout" dc:date="2016-12-14" dc:format="image/svg+xml" dc:language="en">
				<dc:creator>
					<rdf:Bag>
						<rdf:li>Chamestudio</rdf:li>
					</rdf:Bag>
				</dc:creator>
			</rdf:Description>
		</rdf:RDF>
    </metadata></svg>
