<?xml version="1.0" encoding="UTF-8" standalone="no"?>
<svg xmlns:dc="http://purl.org/dc/elements/1.1/" xmlns:cc="http://creativecommons.org/ns#" xmlns:rdf="http://www.w3.org/1999/02/22-rdf-syntax-ns#" xmlns:svg="http://www.w3.org/2000/svg" xmlns="http://www.w3.org/2000/svg" xmlns:sodipodi="http://sodipodi.sourceforge.net/DTD/sodipodi-0.dtd" xmlns:inkscape="http://www.inkscape.org/namespaces/inkscape" width="16px" height="16px" viewBox="0 0 16 16" id="svg2" version="1.1" inkscape:version="0.91 r13725" sodipodi:docname="26.svg">
  <defs id="defs4">
    <pattern y="0" x="0" height="6" width="6" patternUnits="userSpaceOnUse" id="EMFhbasepattern"/>
    <pattern y="0" x="0" height="6" width="6" patternUnits="userSpaceOnUse" id="EMFhbasepattern-5"/>
  </defs>
  <sodipodi:namedview id="base" pagecolor="#ffffff" bordercolor="#666666" borderopacity="1.0" inkscape:pageopacity="0.0" inkscape:pageshadow="2" inkscape:zoom="16" inkscape:cx="9.076325" inkscape:cy="0.64331595" inkscape:document-units="px" inkscape:current-layer="layer1" showgrid="true" units="px" inkscape:window-width="1366" inkscape:window-height="715" inkscape:window-x="-8" inkscape:window-y="-8" inkscape:window-maximized="1">
    <inkscape:grid type="xygrid" id="grid3367" color="#0000ff" opacity="0.1254902" empcolor="#3f0000" empopacity="0.25098039"/>
  </sodipodi:namedview>
  
  <g inkscape:label="Layer 1" inkscape:groupmode="layer" id="layer1" transform="translate(0,-1036.3622)">
    <g transform="matrix(-1,0,0,1,16.006262,-2.99749)" id="g5385"/>
    <path style="fill:#000000;stroke:none" d="M 1.0019531 1.0019531 L 1.0019531 1.5019531 L 1.0019531 10.179688 L 1.0019531 14.699219 L 1.0019531 15.984375 L 15.982422 15.984375 L 15.982422 9.03125 L 8.0214844 9.03125 L 8.0527344 1.0019531 L 1.0019531 1.0019531 z M 2.0019531 2.0019531 L 5.0019531 2.0019531 L 5.0019531 10 L 4.0019531 10 L 4.0019531 13 L 7.0019531 13 L 7.0019531 12.005859 L 14.982422 12.017578 L 14.982422 14.984375 L 2.0019531 14.984375 L 2.0019531 14.699219 L 2.0019531 10.179688 L 2.0019531 2.0019531 z M 6.0019531 2.0019531 L 7.0488281 2.0019531 L 7.0175781 10.03125 L 14.982422 10.03125 L 14.982422 11.017578 L 7.0019531 11.005859 L 7.0019531 10 L 6.0019531 10 L 6.0019531 2.0019531 z " transform="translate(0,1036.3622)" id="rect5917"/>
  </g>

	
	
	<metadata>
		<rdf:RDF xmlns:rdf="http://www.w3.org/1999/02/22-rdf-syntax-ns#" xmlns:rdfs="http://www.w3.org/2000/01/rdf-schema#" xmlns:dc="http://purl.org/dc/elements/1.1/">
			<rdf:Description about="https://iconscout.com/legal#licenses" dc:title="Align, Stroke, Outside, Alignment, Lines, Interface, UI" dc:description="Align, Stroke, Outside, Alignment, Lines, Interface, UI" dc:publisher="Iconscout" dc:date="2016-12-14" dc:format="image/svg+xml" dc:language="en">
				<dc:creator>
					<rdf:Bag>
						<rdf:li>Chamestudio</rdf:li>
					</rdf:Bag>
				</dc:creator>
			</rdf:Description>
		</rdf:RDF>
    </metadata></svg>
