<?xml version="1.0" encoding="UTF-8" standalone="no"?>
<svg xmlns:dc="http://purl.org/dc/elements/1.1/" xmlns:cc="http://creativecommons.org/ns#" xmlns:rdf="http://www.w3.org/1999/02/22-rdf-syntax-ns#" xmlns:svg="http://www.w3.org/2000/svg" xmlns="http://www.w3.org/2000/svg" xmlns:sodipodi="http://sodipodi.sourceforge.net/DTD/sodipodi-0.dtd" xmlns:inkscape="http://www.inkscape.org/namespaces/inkscape" width="16px" height="16px" viewBox="0 0 16 16" id="svg2" version="1.1" inkscape:version="0.91 r13725" sodipodi:docname="82.svg">
  <defs id="defs4"/>
  <sodipodi:namedview id="base" pagecolor="#ffffff" bordercolor="#666666" borderopacity="1.0" inkscape:pageopacity="0.0" inkscape:pageshadow="2" inkscape:zoom="22.627417" inkscape:cx="-0.056270547" inkscape:cy="9.4823165" inkscape:document-units="px" inkscape:current-layer="layer1" showgrid="true" units="px" inkscape:window-width="1366" inkscape:window-height="715" inkscape:window-x="-8" inkscape:window-y="-8" inkscape:window-maximized="1">
    <inkscape:grid type="xygrid" id="grid3358"/>
  </sodipodi:namedview>
  
  <g inkscape:label="Layer 1" inkscape:groupmode="layer" id="layer1" transform="translate(0,-1036.3622)">
    <path style="color:#000000;font-style:normal;font-variant:normal;font-weight:normal;font-stretch:normal;font-size:medium;line-height:normal;font-family:sans-serif;text-indent:0;text-align:start;text-decoration:none;text-decoration-line:none;text-decoration-style:solid;text-decoration-color:#000000;letter-spacing:normal;word-spacing:normal;text-transform:none;direction:ltr;block-progression:tb;writing-mode:lr-tb;baseline-shift:baseline;text-anchor:start;white-space:normal;clip-rule:nonzero;display:inline;overflow:visible;visibility:visible;opacity:1;isolation:auto;mix-blend-mode:normal;color-interpolation:sRGB;color-interpolation-filters:linearRGB;solid-color:#000000;solid-opacity:1;fill:#000000;fill-opacity:1;fill-rule:nonzero;stroke:none;stroke-width:1px;stroke-linecap:butt;stroke-linejoin:miter;stroke-miterlimit:4;stroke-dasharray:none;stroke-dashoffset:0;stroke-opacity:1;color-rendering:auto;image-rendering:auto;shape-rendering:auto;text-rendering:auto;enable-background:accumulate" d="M 4.265625 1.7617188 C 1.9267206 4.1007187 1.9267205 7.9071938 4.265625 10.246094 L 4.9726562 9.5390625 C 3.0158924 7.5822625 3.0158925 4.42555 4.9726562 2.46875 L 4.265625 1.7617188 z M 12.75 1.7617188 L 12.042969 2.46875 C 13.999733 4.42555 13.999733 7.5822625 12.042969 9.5390625 L 12.75 10.246094 C 15.088904 7.9071938 15.088904 4.1007187 12.75 1.7617188 z M 5.6796875 3.1757812 C 4.1218137 4.7336813 4.1218137 7.2741312 5.6796875 8.8320312 L 6.3867188 8.125 C 5.2109856 6.9493 5.2109856 5.0586125 6.3867188 3.8828125 L 5.6796875 3.1757812 z M 11.349609 3.1757812 L 10.642578 3.8828125 C 11.818311 5.0586125 11.818311 6.9493 10.642578 8.125 L 11.349609 8.8320312 C 12.907483 7.2741312 12.907483 4.7336813 11.349609 3.1757812 z M 8.5078125 4.0039062 C 7.4091653 4.0039062 6.5078124 4.9053062 6.5078125 6.0039062 C 6.5078124 6.9292562 7.1497027 7.7068625 8.0078125 7.9316406 L 8.0078125 13.003906 L 9.0078125 13.003906 L 9.0078125 7.9316406 C 9.8659224 7.7068625 10.507813 6.9292562 10.507812 6.0039062 C 10.507813 4.9053062 9.6064597 4.0039062 8.5078125 4.0039062 z M 8.5078125 5.0039062 C 9.0660195 5.0039062 9.5078125 5.4457063 9.5078125 6.0039062 C 9.5078125 6.5621062 9.0660195 7.0039062 8.5078125 7.0039062 C 7.9496055 7.0039062 7.5078125 6.5621062 7.5078125 6.0039062 C 7.5078125 5.4457063 7.9496055 5.0039062 8.5078125 5.0039062 z " transform="translate(0,1036.3622)" id="path4653"/>
  </g>

	
	
	<metadata>
		<rdf:RDF xmlns:rdf="http://www.w3.org/1999/02/22-rdf-syntax-ns#" xmlns:rdfs="http://www.w3.org/2000/01/rdf-schema#" xmlns:dc="http://purl.org/dc/elements/1.1/">
			<rdf:Description about="https://iconscout.com/legal#licenses" dc:title="Antena, Wifi, Signal, Waves, Wireless, Interface, UI" dc:description="Antena, Wifi, Signal, Waves, Wireless, Interface, UI" dc:publisher="Iconscout" dc:date="2016-12-14" dc:format="image/svg+xml" dc:language="en">
				<dc:creator>
					<rdf:Bag>
						<rdf:li>Chamestudio</rdf:li>
					</rdf:Bag>
				</dc:creator>
			</rdf:Description>
		</rdf:RDF>
    </metadata></svg>
