<?xml version="1.0" encoding="UTF-8" standalone="no"?>
<svg xmlns:dc="http://purl.org/dc/elements/1.1/" xmlns:cc="http://creativecommons.org/ns#" xmlns:rdf="http://www.w3.org/1999/02/22-rdf-syntax-ns#" xmlns:svg="http://www.w3.org/2000/svg" xmlns="http://www.w3.org/2000/svg" xmlns:sodipodi="http://sodipodi.sourceforge.net/DTD/sodipodi-0.dtd" xmlns:inkscape="http://www.inkscape.org/namespaces/inkscape" width="16px" height="16px" viewBox="0 0 16 16" id="svg2" version="1.1" inkscape:version="0.91 r13725" sodipodi:docname="103.svg">
  <defs id="defs4"/>
  <sodipodi:namedview id="base" pagecolor="#ffffff" bordercolor="#666666" borderopacity="1.0" inkscape:pageopacity="0.0" inkscape:pageshadow="2" inkscape:zoom="22.627417" inkscape:cx="10.156661" inkscape:cy="12.565467" inkscape:document-units="px" inkscape:current-layer="g5550" showgrid="true" units="px" inkscape:window-width="1366" inkscape:window-height="715" inkscape:window-x="-8" inkscape:window-y="-8" inkscape:window-maximized="1">
    <inkscape:grid type="xygrid" id="grid3358"/>
  </sodipodi:namedview>
  
  <g inkscape:label="Layer 1" inkscape:groupmode="layer" id="layer1" transform="translate(0,-1036.3622)">
    <g id="g5550" transform="translate(0.50449022,-1.00135)">
      <path style="color:#000000;font-style:normal;font-variant:normal;font-weight:normal;font-stretch:normal;font-size:medium;line-height:normal;font-family:sans-serif;text-indent:0;text-align:start;text-decoration:none;text-decoration-line:none;text-decoration-style:solid;text-decoration-color:#000000;letter-spacing:normal;word-spacing:normal;text-transform:none;direction:ltr;block-progression:tb;writing-mode:lr-tb;baseline-shift:baseline;text-anchor:start;white-space:normal;clip-rule:nonzero;display:inline;overflow:visible;visibility:visible;opacity:1;isolation:auto;mix-blend-mode:normal;color-interpolation:sRGB;color-interpolation-filters:linearRGB;solid-color:#000000;solid-opacity:1;fill:#000000;fill-opacity:1;fill-rule:nonzero;stroke:none;stroke-width:0.99999994;stroke-linecap:butt;stroke-linejoin:miter;stroke-miterlimit:4;stroke-dasharray:none;stroke-dashoffset:0;stroke-opacity:1;color-rendering:auto;image-rendering:auto;shape-rendering:auto;text-rendering:auto;enable-background:accumulate" d="M 3.0019531 1.0058594 L 3.0019531 1.9863281 L 2.015625 1.9863281 L 2.015625 2.9863281 L 3.0019531 2.9863281 L 3.0019531 3.0058594 L 3.0058594 3.0058594 L 3.0058594 11.998047 L 2.015625 11.998047 L 2.015625 12.998047 L 3.0019531 12.998047 L 3.0019531 13.994141 L 4.0019531 13.994141 L 4.0019531 13 L 13.015625 13 L 13.015625 13.994141 L 14.015625 13.994141 L 14.015625 12.998047 L 15.015625 12.998047 L 15.015625 11.998047 L 14.015625 11.998047 L 14.015625 2.9941406 L 15.003906 2.9941406 L 15.003906 1.9941406 L 14.015625 1.9941406 L 14.015625 1.0058594 L 13.015625 1.0058594 L 13.015625 1.9941406 L 4.0019531 1.9941406 L 4.0019531 1.0058594 L 3.0019531 1.0058594 z M 4.0058594 2.9941406 L 13.015625 2.9941406 L 13.015625 3.0058594 L 13.015625 11.998047 L 13.003906 11.998047 L 13.003906 12 L 4.0058594 12 L 4.0058594 2.9941406 z M 8.015625 4.9941406 L 8.015625 6.9941406 L 6.015625 6.9941406 L 6.015625 7.9941406 L 8.015625 7.9941406 L 8.015625 9.9941406 L 9.015625 9.9941406 L 9.015625 7.9941406 L 11.015625 7.9941406 L 11.015625 6.9941406 L 9.015625 6.9941406 L 9.015625 4.9941406 L 8.015625 4.9941406 z " transform="translate(-0.50449022,1037.3636)" id="rect5519"/>
    </g>
  </g>

	
	
	<metadata>
		<rdf:RDF xmlns:rdf="http://www.w3.org/1999/02/22-rdf-syntax-ns#" xmlns:rdfs="http://www.w3.org/2000/01/rdf-schema#" xmlns:dc="http://purl.org/dc/elements/1.1/">
			<rdf:Description about="https://iconscout.com/legal#licenses" dc:title="Artboard, Interface, UI, Center, Mark, Centermark, Show" dc:description="Artboard, Interface, UI, Center, Mark, Centermark, Show" dc:publisher="Iconscout" dc:date="2016-12-14" dc:format="image/svg+xml" dc:language="en">
				<dc:creator>
					<rdf:Bag>
						<rdf:li>Chamestudio</rdf:li>
					</rdf:Bag>
				</dc:creator>
			</rdf:Description>
		</rdf:RDF>
    </metadata></svg>
