<?xml version="1.0" encoding="UTF-8" standalone="no"?>
<svg xmlns:dc="http://purl.org/dc/elements/1.1/" xmlns:cc="http://creativecommons.org/ns#" xmlns:rdf="http://www.w3.org/1999/02/22-rdf-syntax-ns#" xmlns:svg="http://www.w3.org/2000/svg" xmlns="http://www.w3.org/2000/svg" xmlns:sodipodi="http://sodipodi.sourceforge.net/DTD/sodipodi-0.dtd" xmlns:inkscape="http://www.inkscape.org/namespaces/inkscape" width="16px" height="16px" viewBox="0 0 16 16" id="svg2" version="1.1" inkscape:version="0.91 r13725" sodipodi:docname="102.svg">
  <defs id="defs4"/>
  <sodipodi:namedview id="base" pagecolor="#ffffff" bordercolor="#666666" borderopacity="1.0" inkscape:pageopacity="0.0" inkscape:pageshadow="2" inkscape:zoom="22.627417" inkscape:cx="8.6180692" inkscape:cy="2.8095089" inkscape:document-units="px" inkscape:current-layer="layer1" showgrid="true" units="px" inkscape:window-width="1366" inkscape:window-height="715" inkscape:window-x="-8" inkscape:window-y="-8" inkscape:window-maximized="1">
    <inkscape:grid type="xygrid" id="grid3358"/>
  </sodipodi:namedview>
  
  <g inkscape:label="Layer 1" inkscape:groupmode="layer" id="layer1" transform="translate(0,-1036.3622)">
    <path style="color:#000000;font-style:normal;font-variant:normal;font-weight:normal;font-stretch:normal;font-size:medium;line-height:normal;font-family:sans-serif;text-indent:0;text-align:start;text-decoration:none;text-decoration-line:none;text-decoration-style:solid;text-decoration-color:#000000;letter-spacing:normal;word-spacing:normal;text-transform:none;direction:ltr;block-progression:tb;writing-mode:lr-tb;baseline-shift:baseline;text-anchor:start;white-space:normal;clip-rule:nonzero;display:inline;overflow:visible;visibility:visible;opacity:1;isolation:auto;mix-blend-mode:normal;color-interpolation:sRGB;color-interpolation-filters:linearRGB;solid-color:#000000;solid-opacity:1;fill:#000000;fill-opacity:1;fill-rule:nonzero;stroke:none;stroke-width:0.99999994;stroke-linecap:butt;stroke-linejoin:miter;stroke-miterlimit:4;stroke-dasharray:none;stroke-dashoffset:0;stroke-opacity:1;color-rendering:auto;image-rendering:auto;shape-rendering:auto;text-rendering:auto;enable-background:accumulate" d="M 2.9863281 1.015625 L 2.9863281 2.0039062 L 1.9980469 2.0039062 L 1.9980469 3.0039062 L 2.9863281 3.0039062 L 2.9863281 3.015625 L 2.9882812 3.015625 L 2.9882812 12.007812 L 1.9980469 12.007812 L 1.9980469 13.007812 L 2.9863281 13.007812 L 2.9863281 14.003906 L 3.9863281 14.003906 L 3.9863281 13.009766 L 12.998047 13.009766 L 12.998047 14.003906 L 13.998047 14.003906 L 13.998047 13.007812 L 14.998047 13.007812 L 14.998047 12.007812 L 13.998047 12.007812 L 13.998047 3.0039062 L 14.986328 3.0039062 L 14.986328 2.0039062 L 13.998047 2.0039062 L 13.998047 1.015625 L 12.998047 1.015625 L 12.998047 2.0039062 L 3.9863281 2.0039062 L 3.9863281 1.015625 L 2.9863281 1.015625 z M 3.9882812 3.0039062 L 7.9785156 3.0039062 L 7.9785156 5 L 8.9785156 5 L 8.9785156 3.0039062 L 12.998047 3.0039062 L 12.998047 3.015625 L 12.998047 7.0039062 L 10.980469 7.0039062 L 10.980469 8.0039062 L 12.998047 8.0039062 L 12.998047 12.007812 L 12.986328 12.007812 L 12.986328 12.009766 L 8.9785156 12.009766 L 8.9785156 10.005859 L 7.9785156 10.005859 L 7.9785156 12.009766 L 3.9882812 12.009766 L 3.9882812 8.0039062 L 5.9765625 8.0039062 L 5.9765625 7.0039062 L 3.9882812 7.0039062 L 3.9882812 3.0039062 z " transform="translate(0,1036.3622)" id="rect5621"/>
  </g>

	
	
	<metadata>
		<rdf:RDF xmlns:rdf="http://www.w3.org/1999/02/22-rdf-syntax-ns#" xmlns:rdfs="http://www.w3.org/2000/01/rdf-schema#" xmlns:dc="http://purl.org/dc/elements/1.1/">
			<rdf:Description about="https://iconscout.com/legal#licenses" dc:title="Artboard, Type, Cross, Hairs, Interface, UI" dc:description="Artboard, Type, Cross, Hairs, Interface, UI" dc:publisher="Iconscout" dc:date="2016-12-14" dc:format="image/svg+xml" dc:language="en">
				<dc:creator>
					<rdf:Bag>
						<rdf:li>Chamestudio</rdf:li>
					</rdf:Bag>
				</dc:creator>
			</rdf:Description>
		</rdf:RDF>
    </metadata></svg>
