<?xml version="1.0" encoding="UTF-8" standalone="no"?>
<svg xmlns:dc="http://purl.org/dc/elements/1.1/" xmlns:cc="http://creativecommons.org/ns#" xmlns:rdf="http://www.w3.org/1999/02/22-rdf-syntax-ns#" xmlns:svg="http://www.w3.org/2000/svg" xmlns="http://www.w3.org/2000/svg" xmlns:sodipodi="http://sodipodi.sourceforge.net/DTD/sodipodi-0.dtd" xmlns:inkscape="http://www.inkscape.org/namespaces/inkscape" width="16px" height="16px" viewBox="0 0 16 16" id="svg2" version="1.1" inkscape:version="0.91 r13725" sodipodi:docname="101.svg">
  <defs id="defs4"/>
  <sodipodi:namedview id="base" pagecolor="#ffffff" bordercolor="#666666" borderopacity="1.0" inkscape:pageopacity="0.0" inkscape:pageshadow="2" inkscape:zoom="32" inkscape:cx="5.4138707" inkscape:cy="8.1622413" inkscape:document-units="px" inkscape:current-layer="layer1" showgrid="true" units="px" inkscape:window-width="1366" inkscape:window-height="715" inkscape:window-x="-8" inkscape:window-y="-8" inkscape:window-maximized="1">
    <inkscape:grid type="xygrid" id="grid3358"/>
  </sodipodi:namedview>
  
  <g inkscape:label="Layer 1" inkscape:groupmode="layer" id="layer1" transform="translate(0,-1036.3622)">
    <path style="color:#000000;font-style:normal;font-variant:normal;font-weight:normal;font-stretch:normal;font-size:medium;line-height:normal;font-family:sans-serif;text-indent:0;text-align:start;text-decoration:none;text-decoration-line:none;text-decoration-style:solid;text-decoration-color:#000000;letter-spacing:normal;word-spacing:normal;text-transform:none;direction:ltr;block-progression:tb;writing-mode:lr-tb;baseline-shift:baseline;text-anchor:start;white-space:normal;clip-rule:nonzero;display:inline;overflow:visible;visibility:visible;opacity:1;isolation:auto;mix-blend-mode:normal;color-interpolation:sRGB;color-interpolation-filters:linearRGB;solid-color:#000000;solid-opacity:1;fill:#000000;fill-opacity:1;fill-rule:nonzero;stroke:none;stroke-width:0.99999994;stroke-linecap:butt;stroke-linejoin:miter;stroke-miterlimit:4;stroke-dasharray:none;stroke-dashoffset:0;stroke-opacity:1;color-rendering:auto;image-rendering:auto;shape-rendering:auto;text-rendering:auto;enable-background:accumulate" d="M 2.0039062 1.0117188 L 2.0039062 2 L 1.015625 2 L 1.015625 3 L 2.0039062 3 L 2.0039062 3.0117188 L 2.0058594 3.0117188 L 2.0058594 12.005859 L 1.015625 12.005859 L 1.015625 13.005859 L 2.0039062 13.005859 L 2.0039062 14 L 3.0039062 14 L 3.0039062 13.007812 L 12.015625 13.007812 L 12.015625 14 L 13.015625 14 L 13.015625 13.005859 L 14.015625 13.005859 L 14.015625 12.005859 L 13.005859 12.005859 L 13.005859 3.0117188 L 13.015625 3.0117188 L 13.015625 3 L 14.005859 3 L 14.005859 2 L 13.015625 2 L 13.015625 1.0117188 L 12.015625 1.0117188 L 12.015625 2 L 12.005859 2 L 12.005859 2.0078125 L 3.0039062 2.0078125 L 3.0039062 1.0117188 L 2.0039062 1.0117188 z M 3.0058594 3.0078125 L 12.005859 3.0078125 L 12.005859 12.007812 L 3.0058594 12.007812 L 3.0058594 3.0078125 z M 3.9960938 4.0214844 L 3.9960938 4.5214844 L 3.9960938 11.021484 L 10.996094 11.021484 L 10.996094 4.0214844 L 3.9960938 4.0214844 z M 4.9960938 5.0214844 L 9.9960938 5.0214844 L 9.9960938 10.021484 L 4.9960938 10.021484 L 4.9960938 5.0214844 z " transform="translate(0,1036.3622)" id="rect5565"/>
  </g>

	
	
	<metadata>
		<rdf:RDF xmlns:rdf="http://www.w3.org/1999/02/22-rdf-syntax-ns#" xmlns:rdfs="http://www.w3.org/2000/01/rdf-schema#" xmlns:dc="http://purl.org/dc/elements/1.1/">
			<rdf:Description about="https://iconscout.com/legal#licenses" dc:title="Artboard, Interface, UI, Video, Show, Safe, Areas" dc:description="Artboard, Interface, UI, Video, Show, Safe, Areas" dc:publisher="Iconscout" dc:date="2016-12-14" dc:format="image/svg+xml" dc:language="en">
				<dc:creator>
					<rdf:Bag>
						<rdf:li>Chamestudio</rdf:li>
					</rdf:Bag>
				</dc:creator>
			</rdf:Description>
		</rdf:RDF>
    </metadata></svg>
