<?xml version="1.0" encoding="UTF-8" standalone="no"?>
<svg xmlns:dc="http://purl.org/dc/elements/1.1/" xmlns:cc="http://creativecommons.org/ns#" xmlns:rdf="http://www.w3.org/1999/02/22-rdf-syntax-ns#" xmlns:svg="http://www.w3.org/2000/svg" xmlns="http://www.w3.org/2000/svg" xmlns:sodipodi="http://sodipodi.sourceforge.net/DTD/sodipodi-0.dtd" xmlns:inkscape="http://www.inkscape.org/namespaces/inkscape" width="16px" height="16px" viewBox="0 0 16 16" id="svg2" version="1.1" inkscape:version="0.91 r13725" sodipodi:docname="28.svg">
  <defs id="defs4">
    <pattern y="0" x="0" height="6" width="6" patternUnits="userSpaceOnUse" id="EMFhbasepattern"/>
    <pattern y="0" x="0" height="6" width="6" patternUnits="userSpaceOnUse" id="EMFhbasepattern-5"/>
  </defs>
  <sodipodi:namedview id="base" pagecolor="#ffffff" bordercolor="#666666" borderopacity="1.0" inkscape:pageopacity="0.0" inkscape:pageshadow="2" inkscape:zoom="11.313709" inkscape:cx="3.3788798" inkscape:cy="-3.1987948" inkscape:document-units="px" inkscape:current-layer="layer1" showgrid="true" units="px" inkscape:window-width="1366" inkscape:window-height="715" inkscape:window-x="-8" inkscape:window-y="-8" inkscape:window-maximized="1">
    <inkscape:grid type="xygrid" id="grid3367" color="#0000ff" opacity="0.1254902" empcolor="#3f0000" empopacity="0.25098039"/>
  </sodipodi:namedview>
  
  <g inkscape:label="Layer 1" inkscape:groupmode="layer" id="layer1" transform="translate(0,-1036.3622)">
    <g transform="matrix(-1,0,0,1,15.962068,-2.99749)" id="g5385"/>
    <path style="color:#000000;font-style:normal;font-variant:normal;font-weight:normal;font-stretch:normal;font-size:medium;line-height:normal;font-family:sans-serif;text-indent:0;text-align:start;text-decoration:none;text-decoration-line:none;text-decoration-style:solid;text-decoration-color:#000000;letter-spacing:normal;word-spacing:normal;text-transform:none;direction:ltr;block-progression:tb;writing-mode:lr-tb;baseline-shift:baseline;text-anchor:start;white-space:normal;clip-rule:nonzero;display:inline;overflow:visible;visibility:visible;opacity:1;isolation:auto;mix-blend-mode:normal;color-interpolation:sRGB;color-interpolation-filters:linearRGB;solid-color:#000000;solid-opacity:1;fill:#000000;fill-opacity:1;fill-rule:nonzero;stroke:none;stroke-width:1px;stroke-linecap:butt;stroke-linejoin:miter;stroke-miterlimit:4;stroke-dasharray:none;stroke-dashoffset:0;stroke-opacity:1;color-rendering:auto;image-rendering:auto;shape-rendering:auto;text-rendering:auto;enable-background:accumulate" d="M 7.4921875 0.99804688 C 6.1142931 0.99804688 4.9882814 2.1221 4.9882812 3.5 L 4.9882812 6.4960938 C 4.9882813 7.3170062 5.3933226 8.0393878 6.0078125 8.4960938 C 5.3927548 8.9527212 4.9882813 9.6786429 4.9882812 10.5 L 4.9882812 13.496094 C 4.9882814 14.873994 6.114263 15.998047 7.4921875 15.998047 C 8.8701119 15.998047 9.9941406 14.873994 9.9941406 13.496094 L 9.9941406 10.5 C 9.9941406 9.6786429 9.5891065 8.9527212 8.9746094 8.4960938 C 9.5885388 8.0393878 9.9941406 7.3170062 9.9941406 6.4960938 L 9.9941406 3.5 C 9.9941406 2.1221 8.8700819 0.99804688 7.4921875 0.99804688 z M 7.4921875 1.9980469 C 8.3334125 1.9980469 8.9941406 2.6588 8.9941406 3.5 L 8.9941406 6.4960938 C 8.9941406 7.1647472 8.5742156 7.7126948 7.9804688 7.9121094 L 7.9804688 3.9980469 L 6.9804688 3.9980469 L 6.9804688 7.9042969 C 6.3986012 7.6983389 5.9882812 7.1559729 5.9882812 6.4960938 L 5.9882812 3.5 C 5.9882814 2.6588 6.6509623 1.9980469 7.4921875 1.9980469 z M 7.9804688 9.0820312 C 8.5742229 9.2814199 8.9941406 9.8313466 8.9941406 10.5 L 8.9941406 13.496094 C 8.9941406 14.337294 8.3333825 14.998047 7.4921875 14.998047 C 6.6509924 14.998047 5.9882812 14.337294 5.9882812 13.496094 L 5.9882812 10.5 C 5.9882813 9.8401209 6.3985947 9.2957752 6.9804688 9.0898438 L 6.9804688 12.998047 L 7.9804688 12.998047 L 7.9804688 9.0820312 z " transform="translate(0,1036.3622)" id="path5488"/>
  </g>

	
	
	<metadata>
		<rdf:RDF xmlns:rdf="http://www.w3.org/1999/02/22-rdf-syntax-ns#" xmlns:rdfs="http://www.w3.org/2000/01/rdf-schema#" xmlns:dc="http://purl.org/dc/elements/1.1/">
			<rdf:Description about="https://iconscout.com/legal#licenses" dc:title="Attach, Attachment, Chain, Link, Connect, Interface, UI" dc:description="Attach, Attachment, Chain, Link, Connect, Interface, UI" dc:publisher="Iconscout" dc:date="2016-12-14" dc:format="image/svg+xml" dc:language="en">
				<dc:creator>
					<rdf:Bag>
						<rdf:li>Chamestudio</rdf:li>
					</rdf:Bag>
				</dc:creator>
			</rdf:Description>
		</rdf:RDF>
    </metadata></svg>
