<?xml version="1.0" encoding="UTF-8" standalone="no"?>
<svg xmlns:dc="http://purl.org/dc/elements/1.1/" xmlns:cc="http://creativecommons.org/ns#" xmlns:rdf="http://www.w3.org/1999/02/22-rdf-syntax-ns#" xmlns:svg="http://www.w3.org/2000/svg" xmlns="http://www.w3.org/2000/svg" xmlns:sodipodi="http://sodipodi.sourceforge.net/DTD/sodipodi-0.dtd" xmlns:inkscape="http://www.inkscape.org/namespaces/inkscape" width="16px" height="16px" viewBox="0 0 16 16" id="svg2" version="1.1" inkscape:version="0.91 r13725" sodipodi:docname="137.svg">
  <defs id="defs4"/>
  <sodipodi:namedview id="base" pagecolor="#ffffff" bordercolor="#666666" borderopacity="1.0" inkscape:pageopacity="0.0" inkscape:pageshadow="2" inkscape:zoom="22.627417" inkscape:cx="19.663224" inkscape:cy="3.7474307" inkscape:document-units="px" inkscape:current-layer="layer1" showgrid="true" inkscape:window-width="1366" inkscape:window-height="715" inkscape:window-x="-8" inkscape:window-y="-8" inkscape:window-maximized="1" units="px">
    <inkscape:grid type="xygrid" id="grid3360"/>
  </sodipodi:namedview>
  
  <g inkscape:label="Layer 1" inkscape:groupmode="layer" id="layer1" transform="translate(0,-1036.3622)">
    <path style="color:#000000;font-style:normal;font-variant:normal;font-weight:normal;font-stretch:normal;font-size:medium;line-height:normal;font-family:sans-serif;text-indent:0;text-align:start;text-decoration:none;text-decoration-line:none;text-decoration-style:solid;text-decoration-color:#000000;letter-spacing:normal;word-spacing:normal;text-transform:none;direction:ltr;block-progression:tb;writing-mode:lr-tb;baseline-shift:baseline;text-anchor:start;white-space:normal;clip-rule:nonzero;display:inline;overflow:visible;visibility:visible;opacity:1;isolation:auto;mix-blend-mode:normal;color-interpolation:sRGB;color-interpolation-filters:linearRGB;solid-color:#000000;solid-opacity:1;fill:#000000;fill-opacity:1;fill-rule:nonzero;stroke:none;stroke-width:1;stroke-linecap:round;stroke-linejoin:miter;stroke-miterlimit:4;stroke-dasharray:none;stroke-dashoffset:0;stroke-opacity:1;color-rendering:auto;image-rendering:auto;shape-rendering:auto;text-rendering:auto;enable-background:accumulate" d="M 0.99023438 2.0078125 L 0.99023438 4.0117188 L -0.001953125 4.0117188 L -0.001953125 6.4960938 C -0.001953125 7.7030923 0.86306679 8.7123905 2.0039062 8.9433594 L 2.0039062 10.998047 L 3.0039062 10.998047 L 3.0039062 8.9414062 C 4.138906 8.7058714 4.9980469 7.6989326 4.9980469 6.4960938 L 4.9980469 4.0117188 L 4.4980469 4.0117188 L 4 4.0117188 L 4 2.0078125 L 3 2.0078125 L 3 4.0117188 L 1.9902344 4.0117188 L 1.9902344 2.0078125 L 0.99023438 2.0078125 z M 0.99804688 5.0117188 L 3.9980469 5.0117188 L 3.9980469 6.4960938 C 3.9980469 7.3357937 3.3376955 7.9960938 2.4980469 7.9960938 C 1.6583983 7.9960938 0.99804686 7.3357937 0.99804688 6.4960938 L 0.99804688 5.0117188 z M 6.0039062 6.0058594 L 6.0039062 6.5058594 L 6.0039062 7.0058594 L 9.0078125 7.0058594 L 9.0078125 12.005859 L 0.984375 12.005859 L 0.984375 9.6738281 C 0.508315 9.5268281 0.114865 9.2037969 -0.015625 8.7167969 L -0.015625 12.505859 L -0.015625 13.005859 L 0.484375 13.005859 L 13.484375 13.005859 L 13.984375 13.005859 L 13.984375 12.505859 L 13.984375 11.013672 L 15.992188 11.013672 L 15.992188 8.0136719 L 13.984375 8.0136719 L 13.984375 6.5058594 L 13.984375 6.0058594 L 13.484375 6.0058594 L 6.0039062 6.0058594 z M 10.007812 7.0058594 L 12.984375 7.0058594 L 12.984375 12.005859 L 10.007812 12.005859 L 10.007812 7.0058594 z M 13.992188 9.0136719 L 14.992188 9.0136719 L 14.992188 10.013672 L 13.992188 10.013672 L 13.992188 9.0136719 z " transform="translate(0,1036.3622)" id="rect3537"/>
  </g>

	
	
	<metadata>
		<rdf:RDF xmlns:rdf="http://www.w3.org/1999/02/22-rdf-syntax-ns#" xmlns:rdfs="http://www.w3.org/2000/01/rdf-schema#" xmlns:dc="http://purl.org/dc/elements/1.1/">
			<rdf:Description about="https://iconscout.com/legal#licenses" dc:title="Battery, Indicator, Charging, Charge, Plugin, Chargeon, Interface" dc:description="Battery, Indicator, Charging, Charge, Plugin, Chargeon, Interface" dc:publisher="Iconscout" dc:date="2016-12-14" dc:format="image/svg+xml" dc:language="en">
				<dc:creator>
					<rdf:Bag>
						<rdf:li>Chamestudio</rdf:li>
					</rdf:Bag>
				</dc:creator>
			</rdf:Description>
		</rdf:RDF>
    </metadata></svg>
