<?xml version="1.0" encoding="UTF-8" standalone="no"?>
<svg xmlns:dc="http://purl.org/dc/elements/1.1/" xmlns:cc="http://creativecommons.org/ns#" xmlns:rdf="http://www.w3.org/1999/02/22-rdf-syntax-ns#" xmlns:svg="http://www.w3.org/2000/svg" xmlns="http://www.w3.org/2000/svg" xmlns:sodipodi="http://sodipodi.sourceforge.net/DTD/sodipodi-0.dtd" xmlns:inkscape="http://www.inkscape.org/namespaces/inkscape" width="16px" height="16px" viewBox="0 0 16 16" id="svg2" version="1.1" inkscape:version="0.91 r13725" sodipodi:docname="188.svg">
  <defs id="defs4"/>
  <sodipodi:namedview id="base" pagecolor="#ffffff" bordercolor="#666666" borderopacity="1.0" inkscape:pageopacity="0.0" inkscape:pageshadow="2" inkscape:zoom="22.4" inkscape:cx="-0.5609915" inkscape:cy="11.440889" inkscape:document-units="px" inkscape:current-layer="layer1" showgrid="true" units="px" inkscape:window-width="1366" inkscape:window-height="715" inkscape:window-x="-8" inkscape:window-y="-8" inkscape:window-maximized="1">
    <inkscape:grid type="xygrid" id="grid3336"/>
  </sodipodi:namedview>
  
  <g inkscape:label="Layer 1" inkscape:groupmode="layer" id="layer1" transform="translate(0,-1036.3622)">
    <path style="color:#000000;font-style:normal;font-variant:normal;font-weight:normal;font-stretch:normal;font-size:medium;line-height:normal;font-family:sans-serif;text-indent:0;text-align:start;text-decoration:none;text-decoration-line:none;text-decoration-style:solid;text-decoration-color:#000000;letter-spacing:normal;word-spacing:normal;text-transform:none;direction:ltr;block-progression:tb;writing-mode:lr-tb;baseline-shift:baseline;text-anchor:start;white-space:normal;clip-rule:nonzero;display:inline;overflow:visible;visibility:visible;opacity:1;isolation:auto;mix-blend-mode:normal;color-interpolation:sRGB;color-interpolation-filters:linearRGB;solid-color:#000000;solid-opacity:1;fill:#000000;fill-opacity:1;fill-rule:nonzero;stroke:none;stroke-width:0.99999994;stroke-linecap:butt;stroke-linejoin:miter;stroke-miterlimit:4;stroke-dasharray:none;stroke-dashoffset:0;stroke-opacity:1;color-rendering:auto;image-rendering:auto;shape-rendering:auto;text-rendering:auto;enable-background:accumulate" d="M 7.9960938 0.84179688 L 5.4765625 3 L 6.828125 3 L 10.513672 3 L 7.9960938 0.84179688 z M 7.9960938 3.9863281 C 6.6478956 3.9863281 5.4174302 4.4089938 4.5058594 5.1210938 C 3.5942885 5.8332937 2.9960824 6.8582531 2.9960938 8.0019531 C 2.9960824 9.1456531 3.5942885 10.168659 4.5058594 10.880859 C 5.4174302 11.592959 6.6478955 12.015625 7.9960938 12.015625 C 9.3442918 12.015625 10.572804 11.592959 11.484375 10.880859 C 12.395946 10.168659 12.996105 9.1456531 12.996094 8.0019531 C 12.996105 6.8582531 12.395946 5.8332938 11.484375 5.1210938 C 10.572804 4.4089938 9.3442918 3.9863281 7.9960938 3.9863281 z M 7.9960938 4.9863281 C 9.1331905 4.9863281 10.15203 5.3480031 10.869141 5.9082031 C 11.586251 6.4685031 11.996102 7.2041531 11.996094 8.0019531 C 11.996102 8.7997531 11.586251 9.53355 10.869141 10.09375 C 10.15203 10.65395 9.1331906 11.015625 7.9960938 11.015625 C 6.8589969 11.015625 5.838204 10.65395 5.1210938 10.09375 C 4.4039835 9.53355 3.9960859 8.7997531 3.9960938 8.0019531 C 3.9960859 7.2041531 4.4039835 6.4685031 5.1210938 5.9082031 C 5.838204 5.3480031 6.8589969 4.9863281 7.9960938 4.9863281 z M 2.1601562 5.4824219 L 0 8 L 2.1601562 10.519531 L 2.1601562 9.1679688 L 2.1601562 5.4824219 z M 13.839844 5.4824219 L 13.839844 10.519531 L 14.720703 9.4921875 L 16 8 L 13.839844 5.4824219 z M 5.4765625 13 L 6.5039062 13.880859 L 7.9960938 15.160156 L 10.513672 13 L 5.4765625 13 z " transform="translate(0,1036.3622)" id="path4688"/>
  </g>

	
	
	<metadata>
		<rdf:RDF xmlns:rdf="http://www.w3.org/1999/02/22-rdf-syntax-ns#" xmlns:rdfs="http://www.w3.org/2000/01/rdf-schema#" xmlns:dc="http://purl.org/dc/elements/1.1/">
			<rdf:Description about="https://iconscout.com/legal#licenses" dc:title="Bloat, Tool, Ui, Interface, Brush, Design" dc:description="Bloat, Tool, Ui, Interface, Brush, Design" dc:publisher="Iconscout" dc:date="2016-12-14" dc:format="image/svg+xml" dc:language="en">
				<dc:creator>
					<rdf:Bag>
						<rdf:li>Chamestudio</rdf:li>
					</rdf:Bag>
				</dc:creator>
			</rdf:Description>
		</rdf:RDF>
    </metadata></svg>
