<?xml version="1.0" encoding="UTF-8" standalone="no"?>
<svg xmlns:dc="http://purl.org/dc/elements/1.1/" xmlns:cc="http://creativecommons.org/ns#" xmlns:rdf="http://www.w3.org/1999/02/22-rdf-syntax-ns#" xmlns:svg="http://www.w3.org/2000/svg" xmlns="http://www.w3.org/2000/svg" xmlns:sodipodi="http://sodipodi.sourceforge.net/DTD/sodipodi-0.dtd" xmlns:inkscape="http://www.inkscape.org/namespaces/inkscape" width="16px" height="16px" viewBox="0 0 16 16" id="svg2" version="1.1" inkscape:version="0.91 r13725" sodipodi:docname="124.svg">
  <defs id="defs4">
    <pattern y="0" x="0" height="6" width="6" patternUnits="userSpaceOnUse" id="EMFhbasepattern"/>
  </defs>
  <sodipodi:namedview id="base" pagecolor="#ffffff" bordercolor="#666666" borderopacity="1.0" inkscape:pageopacity="0.0" inkscape:pageshadow="2" inkscape:zoom="32" inkscape:cx="1.9969875" inkscape:cy="6.7120112" inkscape:document-units="px" inkscape:current-layer="g5272" showgrid="true" units="px" inkscape:window-width="1366" inkscape:window-height="715" inkscape:window-x="-8" inkscape:window-y="-8" inkscape:window-maximized="1">
    <inkscape:grid type="xygrid" id="grid3358"/>
  </sodipodi:namedview>
  
  <g inkscape:label="Layer 1" inkscape:groupmode="layer" id="layer1" transform="translate(0,-1036.3622)">
    <g id="g5550" transform="translate(0.50449022,-1.00135)">
      <g id="g5272" transform="translate(-0.00329022,0.9816172)">
        <path style="color:#000000;font-style:normal;font-variant:normal;font-weight:normal;font-stretch:normal;font-size:medium;line-height:normal;font-family:sans-serif;text-indent:0;text-align:start;text-decoration:none;text-decoration-line:none;text-decoration-style:solid;text-decoration-color:#000000;letter-spacing:normal;word-spacing:normal;text-transform:none;direction:ltr;block-progression:tb;writing-mode:lr-tb;baseline-shift:baseline;text-anchor:start;white-space:normal;clip-rule:nonzero;display:inline;overflow:visible;visibility:visible;opacity:1;isolation:auto;mix-blend-mode:normal;color-interpolation:sRGB;color-interpolation-filters:linearRGB;solid-color:#000000;solid-opacity:1;fill:#000000;fill-opacity:1;fill-rule:nonzero;stroke:none;stroke-width:1;stroke-linecap:butt;stroke-linejoin:miter;stroke-miterlimit:4;stroke-dasharray:none;stroke-dashoffset:0;stroke-opacity:1;color-rendering:auto;image-rendering:auto;shape-rendering:auto;text-rendering:auto;enable-background:accumulate" d="M 5.0097656 1.5019531 L 2.0097656 2.1015625 L 2.0097656 2.5117188 L 2.0097656 3.0117188 L 0.009765625 3.0117188 L 0.009765625 14.011719 L 8.0097656 14.011719 L 15.009766 14.011719 L 15.009766 3.0117188 L 13.009766 3.0117188 L 13.009766 2.1015625 L 10.009766 1.5019531 L 7.5097656 2.0019531 L 5.0097656 1.5019531 z M 5.0097656 2.5214844 L 7.0097656 2.9199219 L 7.0097656 10.902344 L 5.0097656 10.501953 L 3.0097656 10.902344 L 3.0097656 2.921875 L 5.0097656 2.5214844 z M 10.009766 2.5214844 L 12.009766 2.9199219 L 12.009766 10.902344 L 10.009766 10.501953 L 8.0097656 10.902344 L 8.0097656 2.921875 L 10.009766 2.5214844 z M 1.0097656 4.0117188 L 2.0097656 4.0117188 L 2.0097656 12.121094 L 5.0097656 11.521484 L 7.0097656 11.921875 L 7.0097656 12.121094 L 7.0097656 13.011719 L 1.0097656 13.011719 L 1.0097656 4.0117188 z M 13.009766 4.0117188 L 14.009766 4.0117188 L 14.009766 13.011719 L 8.0097656 13.011719 L 8.0097656 12.121094 L 8.0097656 11.921875 L 10.009766 11.521484 L 13.009766 12.121094 L 13.009766 4.0117188 z " transform="translate(-0.5012,1036.3819)" id="rect3785"/>
      </g>
    </g>
  </g>

	
	
	<metadata>
		<rdf:RDF xmlns:rdf="http://www.w3.org/1999/02/22-rdf-syntax-ns#" xmlns:rdfs="http://www.w3.org/2000/01/rdf-schema#" xmlns:dc="http://purl.org/dc/elements/1.1/">
			<rdf:Description about="https://iconscout.com/legal#licenses" dc:title="Book, Guide, Data, Information, Novels, Study, Exam" dc:description="Book, Guide, Data, Information, Novels, Study, Exam" dc:publisher="Iconscout" dc:date="2016-12-14" dc:format="image/svg+xml" dc:language="en">
				<dc:creator>
					<rdf:Bag>
						<rdf:li>Chamestudio</rdf:li>
					</rdf:Bag>
				</dc:creator>
			</rdf:Description>
		</rdf:RDF>
    </metadata></svg>
