<?xml version="1.0" encoding="UTF-8" standalone="no"?>
<svg xmlns:dc="http://purl.org/dc/elements/1.1/" xmlns:cc="http://creativecommons.org/ns#" xmlns:rdf="http://www.w3.org/1999/02/22-rdf-syntax-ns#" xmlns:svg="http://www.w3.org/2000/svg" xmlns="http://www.w3.org/2000/svg" xmlns:sodipodi="http://sodipodi.sourceforge.net/DTD/sodipodi-0.dtd" xmlns:inkscape="http://www.inkscape.org/namespaces/inkscape" width="16px" height="16px" viewBox="0 0 16 16" id="svg2" version="1.1" inkscape:version="0.91 r13725" sodipodi:docname="3.svg">
  <defs id="defs4"/>
  <sodipodi:namedview id="base" pagecolor="#ffffff" bordercolor="#666666" borderopacity="1.0" inkscape:pageopacity="0.0" inkscape:pageshadow="2" inkscape:zoom="16" inkscape:cx="2.2657664" inkscape:cy="5.2660095" inkscape:document-units="px" inkscape:current-layer="layer1" showgrid="true" units="px" inkscape:window-width="1366" inkscape:window-height="715" inkscape:window-x="-8" inkscape:window-y="-8" inkscape:window-maximized="1">
    <inkscape:grid type="xygrid" id="grid3360"/>
  </sodipodi:namedview>
  
  <g inkscape:label="Layer 1" inkscape:groupmode="layer" id="layer1" transform="translate(0,-1036.3622)">
    <path style="color:#000000;font-style:normal;font-variant:normal;font-weight:normal;font-stretch:normal;font-size:medium;line-height:normal;font-family:sans-serif;text-indent:0;text-align:start;text-decoration:none;text-decoration-line:none;text-decoration-style:solid;text-decoration-color:#000000;letter-spacing:normal;word-spacing:normal;text-transform:none;direction:ltr;block-progression:tb;writing-mode:lr-tb;baseline-shift:baseline;text-anchor:start;white-space:normal;clip-rule:nonzero;display:inline;overflow:visible;visibility:visible;opacity:1;isolation:auto;mix-blend-mode:normal;color-interpolation:sRGB;color-interpolation-filters:linearRGB;solid-color:#000000;solid-opacity:1;fill:#000000;fill-opacity:1;fill-rule:nonzero;stroke:none;stroke-width:1;stroke-linecap:butt;stroke-linejoin:miter;stroke-miterlimit:4;stroke-dasharray:none;stroke-dashoffset:0;stroke-opacity:1;color-rendering:auto;image-rendering:auto;shape-rendering:auto;text-rendering:auto;enable-background:accumulate" d="M 7.9980469 1 C 6.3446952 1 4.9980469 2.3467 4.9980469 4 L 4.9980469 6 L 5.9980469 6 L 5.9980469 4 C 5.9980469 2.8834 6.8813979 2 7.9980469 2 C 9.1146955 2 9.9980469 2.8834 9.9980469 4 L 9.9980469 6 L 10.998047 6 L 10.998047 4 C 10.998047 2.3467 9.6513983 1 7.9980469 1 z M 1.9179688 4.5683594 L 1.4179688 5.4335938 L 4.0175781 6.9335938 L 4.5175781 6.0683594 L 1.9179688 4.5683594 z M 14.082031 4.5683594 L 11.482422 6.0683594 L 11.982422 6.9335938 L 14.582031 5.4335938 L 14.082031 4.5683594 z M 0.99804688 7.5 L 0.99804688 8.5 L 3.9980469 8.5 L 3.9980469 7.5 L 0.99804688 7.5 z M 12.001953 7.5 L 12.001953 8.5 L 15.001953 8.5 L 15.001953 7.5 L 12.001953 7.5 z M 4.0175781 9.0683594 L 1.4179688 10.568359 L 1.9179688 11.433594 L 4.5175781 9.9335938 L 4.0175781 9.0683594 z M 11.982422 9.0683594 L 11.482422 9.9335938 L 14.082031 11.433594 L 14.582031 10.568359 L 11.982422 9.0683594 z M 4.9980469 10 L 4.9980469 12 C 4.9980469 13.6534 6.3446952 15 7.9980469 15 C 9.6513983 15 10.998047 13.6534 10.998047 12 L 10.998047 10 L 9.9980469 10 L 9.9980469 12 C 9.9980469 13.1167 9.1146955 14 7.9980469 14 C 6.8813979 14 5.9980469 13.1167 5.9980469 12 L 5.9980469 10 L 4.9980469 10 z " transform="translate(0,1036.3622)" id="path5442"/>
  </g>

	
	
	<metadata>
		<rdf:RDF xmlns:rdf="http://www.w3.org/1999/02/22-rdf-syntax-ns#" xmlns:rdfs="http://www.w3.org/2000/01/rdf-schema#" xmlns:dc="http://purl.org/dc/elements/1.1/">
			<rdf:Description about="https://iconscout.com/legal#licenses" dc:title="Break, Link, Symbol, Unlink, Interface, UI" dc:description="Break, Link, Symbol, Unlink, Interface, UI" dc:publisher="Iconscout" dc:date="2016-12-14" dc:format="image/svg+xml" dc:language="en">
				<dc:creator>
					<rdf:Bag>
						<rdf:li>Chamestudio</rdf:li>
					</rdf:Bag>
				</dc:creator>
			</rdf:Description>
		</rdf:RDF>
    </metadata></svg>
