<?xml version="1.0" encoding="UTF-8" standalone="no"?>
<svg xmlns:dc="http://purl.org/dc/elements/1.1/" xmlns:cc="http://creativecommons.org/ns#" xmlns:rdf="http://www.w3.org/1999/02/22-rdf-syntax-ns#" xmlns:svg="http://www.w3.org/2000/svg" xmlns="http://www.w3.org/2000/svg" xmlns:sodipodi="http://sodipodi.sourceforge.net/DTD/sodipodi-0.dtd" xmlns:inkscape="http://www.inkscape.org/namespaces/inkscape" width="16px" height="16px" viewBox="0 0 16 16" id="svg2" version="1.1" inkscape:version="0.91 r13725" sodipodi:docname="146.svg">
  <defs id="defs4">
    <pattern y="0" x="0" height="6" width="6" patternUnits="userSpaceOnUse" id="EMFhbasepattern"/>
  </defs>
  <sodipodi:namedview id="base" pagecolor="#ffffff" bordercolor="#666666" borderopacity="1.0" inkscape:pageopacity="0.0" inkscape:pageshadow="2" inkscape:zoom="16" inkscape:cx="-2.7263729" inkscape:cy="4.9289799" inkscape:document-units="px" inkscape:current-layer="layer1" showgrid="true" inkscape:window-width="1366" inkscape:window-height="715" inkscape:window-x="-8" inkscape:window-y="-8" inkscape:window-maximized="1" units="px">
    <inkscape:grid type="xygrid" id="grid3360"/>
  </sodipodi:namedview>
  
  <g inkscape:label="Layer 1" inkscape:groupmode="layer" id="layer1" transform="translate(0,-1036.3622)">
    <path style="color:#000000;font-style:normal;font-variant:normal;font-weight:normal;font-stretch:normal;font-size:medium;line-height:normal;font-family:sans-serif;text-indent:0;text-align:start;text-decoration:none;text-decoration-line:none;text-decoration-style:solid;text-decoration-color:#000000;letter-spacing:normal;word-spacing:normal;text-transform:none;direction:ltr;block-progression:tb;writing-mode:lr-tb;baseline-shift:baseline;text-anchor:start;white-space:normal;clip-rule:nonzero;display:inline;overflow:visible;visibility:visible;opacity:1;isolation:auto;mix-blend-mode:normal;color-interpolation:sRGB;color-interpolation-filters:linearRGB;solid-color:#000000;solid-opacity:1;fill:#000000;fill-opacity:1;fill-rule:nonzero;stroke:none;stroke-width:1;stroke-linecap:butt;stroke-linejoin:miter;stroke-miterlimit:4;stroke-dasharray:none;stroke-dashoffset:0;stroke-opacity:1;color-rendering:auto;image-rendering:auto;shape-rendering:auto;text-rendering:auto;enable-background:accumulate" d="M 7.0019531 1 L 7.0019531 4 L 8.0019531 4 L 8.0019531 1 L 7.0019531 1 z M 2.90625 2.6972656 L 2.1992188 3.4042969 L 4.3203125 5.5253906 L 5.0273438 4.8183594 L 2.90625 2.6972656 z M 12.099609 2.6972656 L 9.9785156 4.8183594 L 10.685547 5.5253906 L 12.806641 3.4042969 L 12.099609 2.6972656 z M 7.5019531 5 C 5.8510212 5 4.5019531 6.3491 4.5019531 8 C 4.5019531 9.651 5.8510212 11 7.5019531 11 C 9.1528852 11 10.501953 9.651 10.501953 8 C 10.501953 6.3491 9.1528852 5 7.5019531 5 z M 7.5019531 6 C 8.612445 6 9.5019531 6.8895 9.5019531 8 C 9.5019531 9.1105 8.612445 10 7.5019531 10 C 6.3914613 10 5.5019531 9.1105 5.5019531 8 C 5.5019531 6.8895 6.3914613 6 7.5019531 6 z M 0.50195312 7.5 L 0.50195312 8.5 L 3.5019531 8.5 L 3.5019531 7.5 L 0.50195312 7.5 z M 11.501953 7.5 L 11.501953 8.5 L 14.501953 8.5 L 14.501953 7.5 L 11.501953 7.5 z M 4.3203125 10.476562 L 2.1992188 12.597656 L 2.90625 13.304688 L 5.0273438 11.183594 L 4.3203125 10.476562 z M 10.685547 10.476562 L 9.9785156 11.183594 L 12.099609 13.304688 L 12.806641 12.597656 L 10.685547 10.476562 z M 7.0019531 12 L 7.0019531 15 L 8.0019531 15 L 8.0019531 12 L 7.0019531 12 z " transform="translate(0,1036.3622)" id="path4521"/>
  </g>

	
	
	<metadata>
		<rdf:RDF xmlns:rdf="http://www.w3.org/1999/02/22-rdf-syntax-ns#" xmlns:rdfs="http://www.w3.org/2000/01/rdf-schema#" xmlns:dc="http://purl.org/dc/elements/1.1/">
			<rdf:Description about="https://iconscout.com/legal#licenses" dc:title="Bright, Brightness, Contrast, Ui, Flash, Interface" dc:description="Bright, Brightness, Contrast, Ui, Flash, Interface" dc:publisher="Iconscout" dc:date="2016-12-14" dc:format="image/svg+xml" dc:language="en">
				<dc:creator>
					<rdf:Bag>
						<rdf:li>Chamestudio</rdf:li>
					</rdf:Bag>
				</dc:creator>
			</rdf:Description>
		</rdf:RDF>
    </metadata></svg>
