<?xml version="1.0" encoding="UTF-8" standalone="no"?>
<svg xmlns:dc="http://purl.org/dc/elements/1.1/" xmlns:cc="http://creativecommons.org/ns#" xmlns:rdf="http://www.w3.org/1999/02/22-rdf-syntax-ns#" xmlns:svg="http://www.w3.org/2000/svg" xmlns="http://www.w3.org/2000/svg" xmlns:sodipodi="http://sodipodi.sourceforge.net/DTD/sodipodi-0.dtd" xmlns:inkscape="http://www.inkscape.org/namespaces/inkscape" width="16px" height="16px" viewBox="0 0 16 16" id="svg2" version="1.1" inkscape:version="0.91 r13725" sodipodi:docname="27.svg">
  <defs id="defs4">
    <pattern y="0" x="0" height="6" width="6" patternUnits="userSpaceOnUse" id="EMFhbasepattern"/>
    <pattern y="0" x="0" height="6" width="6" patternUnits="userSpaceOnUse" id="EMFhbasepattern-5"/>
  </defs>
  <sodipodi:namedview id="base" pagecolor="#ffffff" bordercolor="#666666" borderopacity="1.0" inkscape:pageopacity="0.0" inkscape:pageshadow="2" inkscape:zoom="32" inkscape:cx="7.8024446" inkscape:cy="8.6468398" inkscape:document-units="px" inkscape:current-layer="layer1" showgrid="true" units="px" inkscape:window-width="1366" inkscape:window-height="715" inkscape:window-x="-8" inkscape:window-y="-8" inkscape:window-maximized="1">
    <inkscape:grid type="xygrid" id="grid3367" color="#0000ff" opacity="0.1254902" empcolor="#3f0000" empopacity="0.25098039"/>
  </sodipodi:namedview>
  
  <g inkscape:label="Layer 1" inkscape:groupmode="layer" id="layer1" transform="translate(0,-1036.3622)">
    <g transform="matrix(-1,0,0,1,16.006262,-2.99749)" id="g5385"/>
    <path style="color:#000000;font-style:normal;font-variant:normal;font-weight:normal;font-stretch:normal;font-size:medium;line-height:normal;font-family:sans-serif;text-indent:0;text-align:start;text-decoration:none;text-decoration-line:none;text-decoration-style:solid;text-decoration-color:#000000;letter-spacing:normal;word-spacing:normal;text-transform:none;direction:ltr;block-progression:tb;writing-mode:lr-tb;baseline-shift:baseline;text-anchor:start;white-space:normal;clip-rule:nonzero;display:inline;overflow:visible;visibility:visible;opacity:1;isolation:auto;mix-blend-mode:normal;color-interpolation:sRGB;color-interpolation-filters:linearRGB;solid-color:#000000;solid-opacity:1;fill:#000000;fill-opacity:1;fill-rule:nonzero;stroke:none;stroke-width:1;stroke-linecap:butt;stroke-linejoin:miter;stroke-miterlimit:4;stroke-dasharray:none;stroke-dashoffset:0;stroke-opacity:1;color-rendering:auto;image-rendering:auto;shape-rendering:auto;text-rendering:auto;enable-background:accumulate" d="M 4.0039062 2 L 4.0039062 2.5 L 4.0039062 14.015625 L 12.994141 14.015625 L 12.994141 2 L 4.0039062 2 z M 5.0039062 3 L 11.994141 3 L 11.994141 5.0078125 L 5.0039062 5.0078125 L 5.0039062 3 z M 5.0039062 6.0078125 L 11.994141 6.0078125 L 11.994141 13.015625 L 5.0039062 13.015625 L 5.0039062 6.0078125 z M 5.9921875 7.0078125 L 5.9921875 8.0078125 L 6.9921875 8.0078125 L 6.9921875 7.0078125 L 5.9921875 7.0078125 z M 7.9765625 7.0078125 L 7.9765625 8.0078125 L 8.9765625 8.0078125 L 8.9765625 7.0078125 L 7.9765625 7.0078125 z M 10.007812 7.0078125 L 10.007812 8.0078125 L 11.007812 8.0078125 L 11.007812 7.0078125 L 10.007812 7.0078125 z M 5.9921875 9.0078125 L 5.9921875 10.007812 L 6.9921875 10.007812 L 6.9921875 9.0078125 L 5.9921875 9.0078125 z M 7.9765625 9.0078125 L 7.9765625 10.007812 L 8.9765625 10.007812 L 8.9765625 9.0078125 L 7.9765625 9.0078125 z M 10.007812 9.0078125 L 10.007812 10.007812 L 11.007812 10.007812 L 11.007812 9.0078125 L 10.007812 9.0078125 z M 5.9863281 11.007812 L 5.9863281 12.007812 L 6.9863281 12.007812 L 6.9863281 11.007812 L 5.9863281 11.007812 z M 7.9824219 11.007812 L 7.9824219 12.007812 L 8.9824219 12.007812 L 8.9824219 11.007812 L 7.9824219 11.007812 z M 9.9921875 11.007812 L 9.9921875 12.007812 L 10.992188 12.007812 L 10.992188 11.007812 L 9.9921875 11.007812 z " transform="translate(0,1036.3622)" id="rect4350"/>
  </g>

	
	
	<metadata>
		<rdf:RDF xmlns:rdf="http://www.w3.org/1999/02/22-rdf-syntax-ns#" xmlns:rdfs="http://www.w3.org/2000/01/rdf-schema#" xmlns:dc="http://purl.org/dc/elements/1.1/">
			<rdf:Description about="https://iconscout.com/legal#licenses" dc:title="Calc, Ui, Calculater, Count, Calculation, App, Application" dc:description="Calc, Ui, Calculater, Count, Calculation, App, Application" dc:publisher="Iconscout" dc:date="2016-12-14" dc:format="image/svg+xml" dc:language="en">
				<dc:creator>
					<rdf:Bag>
						<rdf:li>Chamestudio</rdf:li>
					</rdf:Bag>
				</dc:creator>
			</rdf:Description>
		</rdf:RDF>
    </metadata></svg>
