<?xml version="1.0" encoding="UTF-8" standalone="no"?>
<svg xmlns:dc="http://purl.org/dc/elements/1.1/" xmlns:cc="http://creativecommons.org/ns#" xmlns:rdf="http://www.w3.org/1999/02/22-rdf-syntax-ns#" xmlns:svg="http://www.w3.org/2000/svg" xmlns="http://www.w3.org/2000/svg" xmlns:sodipodi="http://sodipodi.sourceforge.net/DTD/sodipodi-0.dtd" xmlns:inkscape="http://www.inkscape.org/namespaces/inkscape" width="16px" height="16px" viewBox="0 0 16 16" id="svg2" version="1.1" inkscape:version="0.91 r13725" sodipodi:docname="205.svg">
  <defs id="defs4">
    <pattern y="0" x="0" height="6" width="6" patternUnits="userSpaceOnUse" id="EMFhbasepattern"/>
  </defs>
  <sodipodi:namedview id="base" pagecolor="#ffffff" bordercolor="#666666" borderopacity="1.0" inkscape:pageopacity="0.0" inkscape:pageshadow="2" inkscape:zoom="32" inkscape:cx="0.26911921" inkscape:cy="8.4522474" inkscape:document-units="px" inkscape:current-layer="g5194" showgrid="true" units="px" inkscape:window-width="1366" inkscape:window-height="715" inkscape:window-x="-8" inkscape:window-y="-8" inkscape:window-maximized="1">
    <inkscape:grid type="xygrid" id="grid3336"/>
  </sodipodi:namedview>
  
  <g inkscape:label="Layer 1" inkscape:groupmode="layer" id="layer1" transform="translate(0,-1036.3622)">
    <g id="g5194" transform="translate(0.93136865,-0.49848301)">
      <path style="color:#000000;font-style:normal;font-variant:normal;font-weight:normal;font-stretch:normal;font-size:medium;line-height:normal;font-family:sans-serif;text-indent:0;text-align:start;text-decoration:none;text-decoration-line:none;text-decoration-style:solid;text-decoration-color:#000000;letter-spacing:normal;word-spacing:normal;text-transform:none;direction:ltr;block-progression:tb;writing-mode:lr-tb;baseline-shift:baseline;text-anchor:start;white-space:normal;clip-rule:nonzero;display:inline;overflow:visible;visibility:visible;opacity:1;isolation:auto;mix-blend-mode:normal;color-interpolation:sRGB;color-interpolation-filters:linearRGB;solid-color:#000000;solid-opacity:1;fill:#000000;fill-opacity:1;fill-rule:nonzero;stroke:none;stroke-width:1;stroke-linecap:butt;stroke-linejoin:miter;stroke-miterlimit:4;stroke-dasharray:none;stroke-dashoffset:0;stroke-opacity:1;color-rendering:auto;image-rendering:auto;shape-rendering:auto;text-rendering:auto;enable-background:accumulate" d="M 8 2.4296875 C 6.3354622 2.4296875 4.6714038 3.0629781 3.4042969 4.3300781 L 4.1113281 5.0371094 C 6.2633929 2.8851094 9.7366073 2.8851094 11.888672 5.0371094 L 12.595703 4.3300781 C 11.328597 3.0629781 9.6645378 2.4296875 8 2.4296875 z M 8 4.4296875 C 6.8473026 4.4296875 5.6949451 4.8675406 4.8183594 5.7441406 L 5.5253906 6.4511719 C 6.8964133 5.0801719 9.1035866 5.0801719 10.474609 6.4511719 L 11.181641 5.7441406 C 10.305055 4.8675406 9.1526973 4.4296875 8 4.4296875 z M 8 6.4296875 C 7.3591473 6.4296875 6.7184835 6.6722031 6.2324219 7.1582031 L 6.9394531 7.8652344 C 7.5294272 7.2752344 8.4705728 7.2752344 9.0605469 7.8652344 L 9.7675781 7.1582031 C 9.2815166 6.6722031 8.6408527 6.4296875 8 6.4296875 z M 5.5078125 9.0117188 C 4.1314687 9.0117188 2.998047 10.132419 2.9980469 11.511719 L 2.9980469 14.011719 L 6 14.011719 L 6 12.521484 C 6 12.161084 6.089895 12.145944 6.2070312 12.089844 C 6.3241673 12.033844 6.4609375 12.03125 6.4609375 12.03125 L 6.4726562 12.03125 L 9.5136719 12.03125 L 9.5214844 12.03125 C 9.5214844 12.03125 9.6752828 12.03175 9.8027344 12.09375 C 9.9301859 12.15175 10.005762 12.151744 10 12.464844 L 9.9980469 12.474609 L 9.9980469 14.015625 L 11.5 14.015625 L 13.001953 14.015625 L 13.001953 11.515625 C 13.001953 10.139325 11.878305 9.015625 10.501953 9.015625 L 5.5078125 9.015625 L 5.5078125 9.0117188 z M 5.5078125 10.009766 L 5.5078125 10.011719 L 10.501953 10.011719 C 11.341602 10.011719 12.001953 10.672119 12.001953 11.511719 L 12.001953 13.011719 L 11.5 13.011719 L 10.998047 13.011719 L 10.998047 12.484375 C 11.010187 11.825575 10.589785 11.353994 10.216797 11.183594 C 9.8438085 11.013194 9.4921875 11.03125 9.4921875 11.03125 L 6.5078125 11.03125 L 6.484375 11.03125 C 6.4502147 11.029382 6.1308346 11.015504 5.7753906 11.185547 C 5.4005967 11.365147 5 11.842931 5 12.519531 L 5 13.009766 L 3.9980469 13.009766 L 3.9980469 11.509766 C 3.9980469 10.673166 4.6681763 10.009766 5.5078125 10.009766 z " transform="translate(-0.93136865,1036.8607)" id="path5105"/>
    </g>
  </g>

	
	
	<metadata>
		<rdf:RDF xmlns:rdf="http://www.w3.org/1999/02/22-rdf-syntax-ns#" xmlns:rdfs="http://www.w3.org/2000/01/rdf-schema#" xmlns:dc="http://purl.org/dc/elements/1.1/">
			<rdf:Description about="https://iconscout.com/legal#licenses" dc:title="Calling, Reciver, Phone, Mobile, Cell, Cellphone, Interface" dc:description="Calling, Reciver, Phone, Mobile, Cell, Cellphone, Interface" dc:publisher="Iconscout" dc:date="2016-12-14" dc:format="image/svg+xml" dc:language="en">
				<dc:creator>
					<rdf:Bag>
						<rdf:li>Chamestudio</rdf:li>
					</rdf:Bag>
				</dc:creator>
			</rdf:Description>
		</rdf:RDF>
    </metadata></svg>
