<?xml version="1.0" encoding="UTF-8" standalone="no"?>
<svg xmlns:dc="http://purl.org/dc/elements/1.1/" xmlns:cc="http://creativecommons.org/ns#" xmlns:rdf="http://www.w3.org/1999/02/22-rdf-syntax-ns#" xmlns:svg="http://www.w3.org/2000/svg" xmlns="http://www.w3.org/2000/svg" xmlns:sodipodi="http://sodipodi.sourceforge.net/DTD/sodipodi-0.dtd" xmlns:inkscape="http://www.inkscape.org/namespaces/inkscape" width="16px" height="16px" viewBox="0 0 16 16" id="svg2" version="1.1" inkscape:version="0.91 r13725" sodipodi:docname="209.svg">
  <defs id="defs4">
    <pattern y="0" x="0" height="6" width="6" patternUnits="userSpaceOnUse" id="EMFhbasepattern"/>
  </defs>
  <sodipodi:namedview id="base" pagecolor="#ffffff" bordercolor="#666666" borderopacity="1.0" inkscape:pageopacity="0.0" inkscape:pageshadow="2" inkscape:zoom="11.313709" inkscape:cx="-7.2308494" inkscape:cy="10.482394" inkscape:document-units="px" inkscape:current-layer="g5086" showgrid="true" units="px" inkscape:window-width="1366" inkscape:window-height="715" inkscape:window-x="-8" inkscape:window-y="-8" inkscape:window-maximized="1">
    <inkscape:grid type="xygrid" id="grid3336"/>
  </sodipodi:namedview>
  
  <g inkscape:label="Layer 1" inkscape:groupmode="layer" id="layer1" transform="translate(0,-1036.3622)">
    <g id="g5194" transform="translate(0.93136865,-0.49848301)">
      <g id="g5086" transform="translate(-1.8843589,1.4956848)">
        <path style="color:#000000;font-style:normal;font-variant:normal;font-weight:normal;font-stretch:normal;font-size:medium;line-height:normal;font-family:sans-serif;text-indent:0;text-align:start;text-decoration:none;text-decoration-line:none;text-decoration-style:solid;text-decoration-color:#000000;letter-spacing:normal;word-spacing:normal;text-transform:none;direction:ltr;block-progression:tb;writing-mode:lr-tb;baseline-shift:baseline;text-anchor:start;white-space:normal;clip-rule:nonzero;display:inline;overflow:visible;visibility:visible;opacity:1;isolation:auto;mix-blend-mode:normal;color-interpolation:sRGB;color-interpolation-filters:linearRGB;solid-color:#000000;solid-opacity:1;fill:#000000;fill-opacity:1;fill-rule:nonzero;stroke:none;stroke-width:1;stroke-linecap:butt;stroke-linejoin:miter;stroke-miterlimit:4;stroke-dasharray:none;stroke-dashoffset:0;stroke-opacity:1;color-rendering:auto;image-rendering:auto;shape-rendering:auto;text-rendering:auto;enable-background:accumulate" d="M 3.2558594 1.9921875 C 1.9065821 3.1525875 1.2770503 4.9455125 1.6015625 6.6953125 L 2.5839844 6.5136719 C 2.3241164 5.1123719 2.829659 3.6811531 3.9101562 2.7519531 L 3.2558594 1.9921875 z M 9.4804688 2.9179688 L 7.3164062 4.1679688 C 6.1243323 4.8560688 5.7120922 6.3901312 6.4003906 7.5820312 L 8.8984375 11.908203 C 9.585513 13.103303 11.123877 13.525638 12.318359 12.835938 L 14.482422 11.585938 L 12.982422 8.9863281 L 11.693359 9.7304688 C 11.382488 9.9086688 11.322555 9.8378719 11.214844 9.7636719 C 11.107133 9.6896719 11.037109 9.5742188 11.037109 9.5742188 L 11.03125 9.5625 L 9.5117188 6.9296875 L 9.5078125 6.9199219 C 9.5078125 6.9199219 9.4332319 6.7859844 9.4199219 6.6464844 C 9.4066119 6.5069844 9.3708123 6.4404625 9.6445312 6.2890625 L 9.6484375 6.2890625 L 10.982422 5.5195312 L 10.232422 4.21875 L 9.4804688 2.9179688 z M 4.453125 3.7988281 C 3.9234124 4.4699281 3.6565884 5.3104625 3.7050781 6.1640625 L 4.703125 6.109375 C 4.668481 5.499475 4.8578231 4.8974687 5.2363281 4.4179688 L 4.453125 3.7988281 z M 9.1152344 4.28125 L 9.1152344 4.2832031 L 9.3652344 4.71875 L 9.6171875 5.1523438 L 9.1601562 5.4160156 C 9.1601562 5.4160156 9.1582031 5.4160156 9.1582031 5.4160156 C 8.5847013 5.7354156 8.3869123 6.3329344 8.4257812 6.7402344 C 8.4647442 7.1484344 8.65625 7.4433594 8.65625 7.4433594 L 10.148438 10.027344 C 10.148438 10.027344 10.30628 10.348784 10.648438 10.583984 C 10.990597 10.819184 11.603341 10.92955 12.189453 10.59375 L 12.191406 10.59375 L 12.615234 10.347656 L 13.117188 11.216797 L 11.818359 11.964844 C 11.094004 12.383144 10.185186 12.13595 9.765625 11.40625 L 9.7636719 11.40625 L 7.2675781 7.0800781 C 6.8477034 6.3529781 7.0892678 5.45105 7.8164062 5.03125 L 9.1152344 4.28125 z " transform="translate(0.95299025,1035.365)" id="path5207"/>
      </g>
    </g>
  </g>

	
	
	<metadata>
		<rdf:RDF xmlns:rdf="http://www.w3.org/1999/02/22-rdf-syntax-ns#" xmlns:rdfs="http://www.w3.org/2000/01/rdf-schema#" xmlns:dc="http://purl.org/dc/elements/1.1/">
			<rdf:Description about="https://iconscout.com/legal#licenses" dc:title="Call, Calling, Phone, Wifi, Contact, Interface, UI" dc:description="Call, Calling, Phone, Wifi, Contact, Interface, UI" dc:publisher="Iconscout" dc:date="2016-12-14" dc:format="image/svg+xml" dc:language="en">
				<dc:creator>
					<rdf:Bag>
						<rdf:li>Chamestudio</rdf:li>
					</rdf:Bag>
				</dc:creator>
			</rdf:Description>
		</rdf:RDF>
    </metadata></svg>
