<?xml version="1.0" encoding="UTF-8" standalone="no"?>
<svg xmlns:dc="http://purl.org/dc/elements/1.1/" xmlns:cc="http://creativecommons.org/ns#" xmlns:rdf="http://www.w3.org/1999/02/22-rdf-syntax-ns#" xmlns:svg="http://www.w3.org/2000/svg" xmlns="http://www.w3.org/2000/svg" xmlns:sodipodi="http://sodipodi.sourceforge.net/DTD/sodipodi-0.dtd" xmlns:inkscape="http://www.inkscape.org/namespaces/inkscape" width="16px" height="16px" viewBox="0 0 16 16" id="svg2" version="1.1" inkscape:version="0.91 r13725" sodipodi:docname="31.svg">
  <defs id="defs4">
    <pattern y="0" x="0" height="6" width="6" patternUnits="userSpaceOnUse" id="EMFhbasepattern"/>
    <pattern y="0" x="0" height="6" width="6" patternUnits="userSpaceOnUse" id="EMFhbasepattern-5"/>
  </defs>
  <sodipodi:namedview id="base" pagecolor="#ffffff" bordercolor="#666666" borderopacity="1.0" inkscape:pageopacity="0.0" inkscape:pageshadow="2" inkscape:zoom="32" inkscape:cx="9.6488588" inkscape:cy="9.0973652" inkscape:document-units="px" inkscape:current-layer="layer1" showgrid="true" units="px" inkscape:window-width="1366" inkscape:window-height="715" inkscape:window-x="-8" inkscape:window-y="-8" inkscape:window-maximized="1">
    <inkscape:grid type="xygrid" id="grid3367" color="#0000ff" opacity="0.1254902" empcolor="#3f0000" empopacity="0.25098039"/>
  </sodipodi:namedview>
  
  <g inkscape:label="Layer 1" inkscape:groupmode="layer" id="layer1" transform="translate(0,-1036.3622)">
    <g transform="matrix(-1,0,0,1,15.962068,-2.99749)" id="g5385"/>
    <path style="color:#000000;font-style:normal;font-variant:normal;font-weight:normal;font-stretch:normal;font-size:medium;line-height:normal;font-family:sans-serif;text-indent:0;text-align:start;text-decoration:none;text-decoration-line:none;text-decoration-style:solid;text-decoration-color:#000000;letter-spacing:normal;word-spacing:normal;text-transform:none;direction:ltr;block-progression:tb;writing-mode:lr-tb;baseline-shift:baseline;text-anchor:start;white-space:normal;clip-rule:nonzero;display:inline;overflow:visible;visibility:visible;opacity:1;isolation:auto;mix-blend-mode:normal;color-interpolation:sRGB;color-interpolation-filters:linearRGB;solid-color:#000000;solid-opacity:1;fill:#000000;fill-opacity:1;fill-rule:nonzero;stroke:none;stroke-width:1;stroke-linecap:butt;stroke-linejoin:miter;stroke-miterlimit:4;stroke-dasharray:none;stroke-dashoffset:0;stroke-opacity:1;color-rendering:auto;image-rendering:auto;shape-rendering:auto;text-rendering:auto;enable-background:accumulate" d="M 5.6855469 2 L 4.6796875 4.0019531 L 1.0039062 4.0019531 L 1.0039062 4.5019531 L 1.0039062 13.001953 L 14.996094 13.001953 L 14.996094 4.0019531 L 11.326172 4.0019531 L 10.298828 2 L 5.6855469 2 z M 6.3027344 3 L 9.6875 3 L 10.714844 5.0019531 L 13.996094 5.0019531 L 13.996094 12.001953 L 2.0039062 12.001953 L 2.0039062 5.0019531 L 5.296875 5.0019531 L 6.3027344 3 z M 8.0214844 6.0136719 C 6.6466948 6.0136719 5.5214844 7.1388719 5.5214844 8.5136719 C 5.5214844 9.8884719 6.6466948 11.013672 8.0214844 11.013672 C 9.3962738 11.013672 10.521484 9.8884719 10.521484 8.5136719 C 10.521484 7.1388719 9.3962738 6.0136719 8.0214844 6.0136719 z M 8.0214844 7.0136719 C 8.8558337 7.0136719 9.5214844 7.6793719 9.5214844 8.5136719 C 9.5214844 9.3479719 8.8558337 10.013672 8.0214844 10.013672 C 7.1871349 10.013672 6.5214844 9.3479719 6.5214844 8.5136719 C 6.5214844 7.6793719 7.1871349 7.0136719 8.0214844 7.0136719 z " transform="translate(0,1036.3622)" id="rect4550"/>
  </g>

	
	
	<metadata>
		<rdf:RDF xmlns:rdf="http://www.w3.org/1999/02/22-rdf-syntax-ns#" xmlns:rdfs="http://www.w3.org/2000/01/rdf-schema#" xmlns:dc="http://purl.org/dc/elements/1.1/">
			<rdf:Description about="https://iconscout.com/legal#licenses" dc:title="Camera, Cam, Photo, Pic, Shoot, Image, Ui" dc:description="Camera, Cam, Photo, Pic, Shoot, Image, Ui" dc:publisher="Iconscout" dc:date="2016-12-14" dc:format="image/svg+xml" dc:language="en">
				<dc:creator>
					<rdf:Bag>
						<rdf:li>Chamestudio</rdf:li>
					</rdf:Bag>
				</dc:creator>
			</rdf:Description>
		</rdf:RDF>
    </metadata></svg>
