<?xml version="1.0" encoding="UTF-8" standalone="no"?>
<svg xmlns:dc="http://purl.org/dc/elements/1.1/" xmlns:cc="http://creativecommons.org/ns#" xmlns:rdf="http://www.w3.org/1999/02/22-rdf-syntax-ns#" xmlns:svg="http://www.w3.org/2000/svg" xmlns="http://www.w3.org/2000/svg" xmlns:sodipodi="http://sodipodi.sourceforge.net/DTD/sodipodi-0.dtd" xmlns:inkscape="http://www.inkscape.org/namespaces/inkscape" width="16px" height="16px" viewBox="0 0 16 16" id="svg2" version="1.1" inkscape:version="0.91 r13725" sodipodi:docname="46.svg">
  <defs id="defs4"/>
  <sodipodi:namedview id="base" pagecolor="#ffffff" bordercolor="#666666" borderopacity="1.0" inkscape:pageopacity="0.0" inkscape:pageshadow="2" inkscape:zoom="7.9195959" inkscape:cx="-6.6451704" inkscape:cy="-1.3914068" inkscape:document-units="px" inkscape:current-layer="layer1" showgrid="true" units="px" inkscape:window-width="1366" inkscape:window-height="715" inkscape:window-x="-8" inkscape:window-y="-8" inkscape:window-maximized="1">
    <inkscape:grid type="xygrid" id="grid3351"/>
  </sodipodi:namedview>
  
  <g inkscape:label="Layer 1" inkscape:groupmode="layer" id="layer1" transform="translate(0,-1036.3622)">
    <path style="color:#000000;font-style:normal;font-variant:normal;font-weight:normal;font-stretch:normal;font-size:medium;line-height:normal;font-family:sans-serif;text-indent:0;text-align:start;text-decoration:none;text-decoration-line:none;text-decoration-style:solid;text-decoration-color:#000000;letter-spacing:normal;word-spacing:normal;text-transform:none;direction:ltr;block-progression:tb;writing-mode:lr-tb;baseline-shift:baseline;text-anchor:start;white-space:normal;clip-rule:nonzero;display:inline;overflow:visible;visibility:visible;opacity:1;isolation:auto;mix-blend-mode:normal;color-interpolation:sRGB;color-interpolation-filters:linearRGB;solid-color:#000000;solid-opacity:1;fill:#000000;fill-opacity:1;fill-rule:nonzero;stroke:none;stroke-width:1;stroke-linecap:round;stroke-linejoin:miter;stroke-miterlimit:4;stroke-dasharray:none;stroke-dashoffset:0;stroke-opacity:1;color-rendering:auto;image-rendering:auto;shape-rendering:auto;text-rendering:auto;enable-background:accumulate" d="M 8 0 C 3.5876443 0 0 3.5877 0 8 C 0 12.4124 3.5876443 16 8 16 C 12.412356 16 16 12.4124 16 8 C 16 5.9505639 15.220372 4.0827584 13.949219 2.6660156 L 14.009766 2.6054688 L 13.392578 1.9902344 L 13.332031 2.0507812 C 11.915243 0.77939432 10.049666 0 8 0 z M 8 1 C 9.7757977 1 11.390188 1.6620966 12.623047 2.7480469 L 11.349609 4 L 3.9082031 4 C 3.4140317 4 3 4.4131031 3 4.9082031 L 3 10.101562 C 3 10.596663 3.4138846 11.009766 3.9082031 11.009766 L 4.2265625 11.009766 L 2.671875 12.539062 C 1.6304222 11.317352 1 9.734793 1 8 C 1 4.1281 4.1280844 1 8 1 z M 13.246094 3.3710938 C 14.33493 4.6046352 15 6.2215702 15 8 C 15 11.8719 11.871916 15 8 15 C 6.1947592 15 4.5566135 14.313631 3.3164062 13.195312 L 4.0410156 12.560547 L 4.1484375 12.46875 L 5.5292969 11.087891 L 9.3183594 13.449219 L 9.3183594 11.009766 L 12.091797 11.009766 C 12.586114 11.009766 13 10.596663 13 10.101562 L 13 4.9082031 C 13 4.5628249 12.791571 4.2664515 12.501953 4.1132812 L 13.246094 3.3710938 z M 4 5 L 10.333984 5 L 5.2421875 10.009766 L 4 10.009766 L 4 5 z M 11.615234 5 L 12 5 L 12 10.009766 L 8.3183594 10.009766 L 8.3183594 11.648438 L 6.2539062 10.361328 L 11.615234 5 z " transform="translate(0,1036.3622)" id="path5060"/>
  </g>

	
	
	<metadata>
		<rdf:RDF xmlns:rdf="http://www.w3.org/1999/02/22-rdf-syntax-ns#" xmlns:rdfs="http://www.w3.org/2000/01/rdf-schema#" xmlns:dc="http://purl.org/dc/elements/1.1/">
			<rdf:Description about="https://iconscout.com/legal#licenses" dc:title="Cancel, Chat, Close, Message, No, Ui, Notification" dc:description="Cancel, Chat, Close, Message, No, Ui, Notification" dc:publisher="Iconscout" dc:date="2016-12-14" dc:format="image/svg+xml" dc:language="en">
				<dc:creator>
					<rdf:Bag>
						<rdf:li>Chamestudio</rdf:li>
					</rdf:Bag>
				</dc:creator>
			</rdf:Description>
		</rdf:RDF>
    </metadata></svg>
