<?xml version="1.0" encoding="UTF-8" standalone="no"?>
<svg xmlns:dc="http://purl.org/dc/elements/1.1/" xmlns:cc="http://creativecommons.org/ns#" xmlns:rdf="http://www.w3.org/1999/02/22-rdf-syntax-ns#" xmlns:svg="http://www.w3.org/2000/svg" xmlns="http://www.w3.org/2000/svg" xmlns:sodipodi="http://sodipodi.sourceforge.net/DTD/sodipodi-0.dtd" xmlns:inkscape="http://www.inkscape.org/namespaces/inkscape" width="16px" height="16px" viewBox="0 0 16 16" id="svg2" version="1.1" inkscape:version="0.91 r13725" sodipodi:docname="45.svg">
  <defs id="defs4">
    <pattern y="0" x="0" height="6" width="6" patternUnits="userSpaceOnUse" id="EMFhbasepattern"/>
    <pattern y="0" x="0" height="6" width="6" patternUnits="userSpaceOnUse" id="EMFhbasepattern-5"/>
  </defs>
  <sodipodi:namedview id="base" pagecolor="#ffffff" bordercolor="#666666" borderopacity="1.0" inkscape:pageopacity="0.0" inkscape:pageshadow="2" inkscape:zoom="5.6568543" inkscape:cx="60.445836" inkscape:cy="-18.348634" inkscape:document-units="px" inkscape:current-layer="g5983" showgrid="true" units="px" inkscape:window-width="1366" inkscape:window-height="715" inkscape:window-x="-8" inkscape:window-y="-8" inkscape:window-maximized="1">
    <inkscape:grid type="xygrid" id="grid3367" color="#0000ff" opacity="0.1254902" empcolor="#3f0000" empopacity="0.25098039"/>
  </sodipodi:namedview>
  
  <g inkscape:label="Layer 1" inkscape:groupmode="layer" id="layer1" transform="translate(0,-1036.3622)">
    <g id="g5983" transform="translate(-0.01448082,0.01008381)">
      <path style="color:#000000;font-style:normal;font-variant:normal;font-weight:normal;font-stretch:normal;font-size:medium;line-height:normal;font-family:sans-serif;text-indent:0;text-align:start;text-decoration:none;text-decoration-line:none;text-decoration-style:solid;text-decoration-color:#000000;letter-spacing:normal;word-spacing:normal;text-transform:none;direction:ltr;block-progression:tb;writing-mode:lr-tb;baseline-shift:baseline;text-anchor:start;white-space:normal;clip-rule:nonzero;display:inline;overflow:visible;visibility:visible;opacity:1;isolation:auto;mix-blend-mode:normal;color-interpolation:sRGB;color-interpolation-filters:linearRGB;solid-color:#000000;solid-opacity:1;fill:#000000;fill-opacity:1;fill-rule:nonzero;stroke:none;stroke-width:1;stroke-linecap:butt;stroke-linejoin:miter;stroke-miterlimit:4;stroke-dasharray:none;stroke-dashoffset:0;stroke-opacity:1;color-rendering:auto;image-rendering:auto;shape-rendering:auto;text-rendering:auto;enable-background:accumulate" d="M 4.6542969 2.0097656 L 4.5332031 2.3339844 L 3.1542969 5.9960938 L 3.0019531 5.9960938 C 2.4561053 5.9960938 2 6.4501937 2 6.9960938 L 2 10.994141 C 2 11.53928 2.4550306 11.994991 3 11.996094 L 3 12.996094 L 4 12.996094 L 4 11.996094 L 11.996094 11.996094 L 11.996094 12.996094 L 12.996094 12.996094 L 12.996094 11.996094 L 13 11.996094 C 13.545848 11.996094 14 11.539941 14 10.994141 L 14 6.9960938 C 14 6.4501937 13.545848 5.9960938 13 5.9960938 L 12.845703 5.9960938 L 11.347656 2.0097656 L 4.6542969 2.0097656 z M 5.3476562 3.0097656 L 10.654297 3.0097656 L 11.779297 5.9960938 L 4.2226562 5.9960938 L 5.3476562 3.0097656 z M 3 6.9960938 L 3.0019531 6.9960938 L 13 6.9960938 L 13 10.994141 L 3.0019531 10.994141 L 3 10.994141 L 3 6.9960938 z M 5 7.9941406 A 1 1 0 0 0 4 8.9941406 A 1 1 0 0 0 5 9.9941406 A 1 1 0 0 0 6 8.9941406 A 1 1 0 0 0 5 7.9941406 z M 11 7.9941406 A 1 1 0 0 0 10 8.9941406 A 1 1 0 0 0 11 9.9941406 A 1 1 0 0 0 12 8.9941406 A 1 1 0 0 0 11 7.9941406 z " transform="translate(0.01448082,1036.3521)" id="rect5058"/>
    </g>
  </g>

	
	
	<metadata>
		<rdf:RDF xmlns:rdf="http://www.w3.org/1999/02/22-rdf-syntax-ns#" xmlns:rdfs="http://www.w3.org/2000/01/rdf-schema#" xmlns:dc="http://purl.org/dc/elements/1.1/">
			<rdf:Description about="https://iconscout.com/legal#licenses" dc:title="Car, Vehicle, Ui, Drive, Texi, Cab, Interface" dc:description="Car, Vehicle, Ui, Drive, Texi, Cab, Interface" dc:publisher="Iconscout" dc:date="2016-12-14" dc:format="image/svg+xml" dc:language="en">
				<dc:creator>
					<rdf:Bag>
						<rdf:li>Chamestudio</rdf:li>
					</rdf:Bag>
				</dc:creator>
			</rdf:Description>
		</rdf:RDF>
    </metadata></svg>
