<?xml version="1.0" encoding="UTF-8" standalone="no"?>
<svg xmlns:dc="http://purl.org/dc/elements/1.1/" xmlns:cc="http://creativecommons.org/ns#" xmlns:rdf="http://www.w3.org/1999/02/22-rdf-syntax-ns#" xmlns:svg="http://www.w3.org/2000/svg" xmlns="http://www.w3.org/2000/svg" xmlns:sodipodi="http://sodipodi.sourceforge.net/DTD/sodipodi-0.dtd" xmlns:inkscape="http://www.inkscape.org/namespaces/inkscape" width="16px" height="16px" viewBox="0 0 16 16" id="svg2" version="1.1" inkscape:version="0.91 r13725" sodipodi:docname="204.svg">
  <defs id="defs4">
    <pattern y="0" x="0" height="6" width="6" patternUnits="userSpaceOnUse" id="EMFhbasepattern"/>
  </defs>
  <sodipodi:namedview id="base" pagecolor="#ffffff" bordercolor="#666666" borderopacity="1.0" inkscape:pageopacity="0.0" inkscape:pageshadow="2" inkscape:zoom="11.313709" inkscape:cx="-16.268393" inkscape:cy="-4.523345" inkscape:document-units="px" inkscape:current-layer="g5194" showgrid="true" units="px" inkscape:window-width="1366" inkscape:window-height="715" inkscape:window-x="-8" inkscape:window-y="-8" inkscape:window-maximized="1">
    <inkscape:grid type="xygrid" id="grid3336"/>
  </sodipodi:namedview>
  
  <g inkscape:label="Layer 1" inkscape:groupmode="layer" id="layer1" transform="translate(0,-1036.3622)">
    <g id="g5194" transform="translate(0.93136865,-0.49848301)">
      <path style="color:#000000;font-style:normal;font-variant:normal;font-weight:normal;font-stretch:normal;font-size:medium;line-height:normal;font-family:sans-serif;text-indent:0;text-align:start;text-decoration:none;text-decoration-line:none;text-decoration-style:solid;text-decoration-color:#000000;letter-spacing:normal;word-spacing:normal;text-transform:none;direction:ltr;block-progression:tb;writing-mode:lr-tb;baseline-shift:baseline;text-anchor:start;white-space:normal;clip-rule:nonzero;display:inline;overflow:visible;visibility:visible;opacity:1;isolation:auto;mix-blend-mode:normal;color-interpolation:sRGB;color-interpolation-filters:linearRGB;solid-color:#000000;solid-opacity:1;fill:#000000;fill-opacity:1;fill-rule:nonzero;stroke:none;stroke-width:1;stroke-linecap:butt;stroke-linejoin:miter;stroke-miterlimit:4;stroke-dasharray:none;stroke-dashoffset:0;stroke-opacity:1;color-rendering:auto;image-rendering:auto;shape-rendering:auto;text-rendering:auto;enable-background:accumulate" d="M 6.4160156 3.0019531 L 4.25 4.2519531 C 3.0579663 4.9400531 2.6457989 6.4741156 3.3339844 7.6660156 L 5.8320312 11.992188 C 6.5190741 13.187187 8.0574369 13.607669 9.2519531 12.917969 L 11.416016 11.669922 L 9.9160156 9.0703125 L 8.625 9.8144531 C 8.3174135 9.9899531 8.2556878 9.9215563 8.1484375 9.8476562 C 8.0407497 9.7736562 7.9707031 9.6582031 7.9707031 9.6582031 L 7.9648438 9.6464844 L 6.4453125 7.0117188 L 6.4414062 7.0019531 C 6.4414062 7.0019531 6.3687648 6.8679156 6.3554688 6.7285156 C 6.3421727 6.5890156 6.3043897 6.5224937 6.578125 6.3710938 L 6.5820312 6.3710938 L 7.9160156 5.6015625 L 7.1660156 4.3007812 L 6.4160156 3.0019531 z M 9.7304688 3.0273438 L 9.4707031 3.9921875 C 11.343555 4.4939875 12.449095 6.4064969 11.947266 8.2792969 L 12.912109 8.5390625 C 13.232961 7.3415625 13.035332 6.1233 12.458984 5.125 C 11.882635 4.1267 10.927907 3.3481437 9.7304688 3.0273438 z M 6.0488281 4.3632812 L 6.0488281 4.3671875 L 6.3007812 4.8027344 L 6.5507812 5.2363281 L 6.09375 5.5 C 6.09375 5.5 6.0917969 5.5 6.0917969 5.5 C 5.5183512 5.8195 5.320558 6.4150656 5.359375 6.8222656 C 5.398286 7.2304656 5.5898438 7.5273438 5.5898438 7.5273438 L 7.0820312 10.111328 C 7.0820312 10.111328 7.2398753 10.432769 7.5820312 10.667969 C 7.9241874 10.903169 8.5369587 11.013534 9.1230469 10.677734 L 9.125 10.677734 L 9.5488281 10.431641 L 10.050781 11.300781 L 8.7519531 12.048828 C 8.0275393 12.467028 7.118723 12.217981 6.6992188 11.488281 L 4.2011719 7.1621094 C 3.7813226 6.4349094 4.0228442 5.5329812 4.75 5.1132812 L 6.0488281 4.3632812 z M 9.2128906 4.9589844 L 8.953125 5.9257812 C 9.7590446 6.1416812 10.229617 6.9558187 10.013672 7.7617188 L 10.980469 8.0214844 C 11.15838 7.3574844 11.046989 6.68 10.726562 6.125 C 10.406136 5.57 9.8768629 5.1369844 9.2128906 4.9589844 z " transform="translate(-0.93136865,1036.8607)" id="path5157"/>
    </g>
  </g>

	
	
	<metadata>
		<rdf:RDF xmlns:rdf="http://www.w3.org/1999/02/22-rdf-syntax-ns#" xmlns:rdfs="http://www.w3.org/2000/01/rdf-schema#" xmlns:dc="http://purl.org/dc/elements/1.1/">
			<rdf:Description about="https://iconscout.com/legal#licenses" dc:title="Cell, Cellphone, Mobile, Call, Speaker, Volume, Calling" dc:description="Cell, Cellphone, Mobile, Call, Speaker, Volume, Calling" dc:publisher="Iconscout" dc:date="2016-12-14" dc:format="image/svg+xml" dc:language="en">
				<dc:creator>
					<rdf:Bag>
						<rdf:li>Chamestudio</rdf:li>
					</rdf:Bag>
				</dc:creator>
			</rdf:Description>
		</rdf:RDF>
    </metadata></svg>
