<?xml version="1.0" encoding="UTF-8" standalone="no"?>
<svg xmlns:dc="http://purl.org/dc/elements/1.1/" xmlns:cc="http://creativecommons.org/ns#" xmlns:rdf="http://www.w3.org/1999/02/22-rdf-syntax-ns#" xmlns:svg="http://www.w3.org/2000/svg" xmlns="http://www.w3.org/2000/svg" xmlns:sodipodi="http://sodipodi.sourceforge.net/DTD/sodipodi-0.dtd" xmlns:inkscape="http://www.inkscape.org/namespaces/inkscape" width="16px" height="16px" viewBox="0 0 16 16" id="svg2" version="1.1" inkscape:version="0.91 r13725" sodipodi:docname="223.svg">
  <defs id="defs4"/>
  <sodipodi:namedview id="base" pagecolor="#ffffff" bordercolor="#666666" borderopacity="1.0" inkscape:pageopacity="0.0" inkscape:pageshadow="2" inkscape:zoom="22.627417" inkscape:cx="1.4280928" inkscape:cy="3.5974542" inkscape:document-units="px" inkscape:current-layer="g5367" showgrid="true" units="px" inkscape:window-width="1366" inkscape:window-height="715" inkscape:window-x="-8" inkscape:window-y="-8" inkscape:window-maximized="1">
    <inkscape:grid type="xygrid" id="grid3336"/>
  </sodipodi:namedview>
  
  <g inkscape:label="Layer 1" inkscape:groupmode="layer" id="layer1" transform="translate(0,-1036.3622)">
    <g id="g5446" transform="translate(-66.999329,19.499601)">
      <g id="g5460" transform="translate(67.012722,-18.496791)">
        <g id="g6386" transform="translate(0.0168932,-1.00281)">
          <g id="g5367" transform="translate(-0.0253296,0.9892617)">
            <path style="color:#000000;font-style:normal;font-variant:normal;font-weight:normal;font-stretch:normal;font-size:medium;line-height:normal;font-family:sans-serif;text-indent:0;text-align:start;text-decoration:none;text-decoration-line:none;text-decoration-style:solid;text-decoration-color:#000000;letter-spacing:normal;word-spacing:normal;text-transform:none;direction:ltr;block-progression:tb;writing-mode:lr-tb;baseline-shift:baseline;text-anchor:start;white-space:normal;clip-rule:nonzero;display:inline;overflow:visible;visibility:visible;opacity:1;isolation:auto;mix-blend-mode:normal;color-interpolation:sRGB;color-interpolation-filters:linearRGB;solid-color:#000000;solid-opacity:1;fill:#000000;fill-opacity:1;fill-rule:nonzero;stroke:none;stroke-width:1;stroke-linecap:butt;stroke-linejoin:miter;stroke-miterlimit:4;stroke-dasharray:none;stroke-dashoffset:0;stroke-opacity:1;color-rendering:auto;image-rendering:auto;shape-rendering:auto;text-rendering:auto;enable-background:accumulate" d="M 13.259766 1.9941406 C 13.028047 1.9941406 12.796387 2.0801062 12.623047 2.2539062 L 11.732422 3.1425781 L 11.740234 3.1503906 L 9.8828125 5 L 2.9140625 5 C 2.4198911 5 2.0058594 5.4131031 2.0058594 5.9082031 L 2.0058594 11.101562 C 2.0058594 11.596663 2.419744 12.009766 2.9140625 12.009766 L 4.3964844 12.009766 L 8.0214844 14.498047 L 8.0214844 12.009766 L 11.097656 12.009766 C 11.591973 12.009766 12.005859 11.596663 12.005859 11.101562 L 12.005859 7.109375 L 13.851562 5.2636719 L 14.742188 4.3730469 C 15.088848 4.0264469 15.088667 3.4462094 14.742188 3.0996094 L 13.896484 2.2539062 C 13.723143 2.0805063 13.491485 1.9941406 13.259766 1.9941406 z M 13.259766 3.03125 L 13.964844 3.7363281 L 13.505859 4.1953125 L 12.796875 3.4941406 L 13.259766 3.03125 z M 12.09375 4.2089844 L 12.798828 4.9003906 L 9.4023438 8.296875 L 8.6953125 7.5917969 L 12.09375 4.2089844 z M 3.0058594 6 L 8.8769531 6 L 7.4121094 7.4589844 L 6.3496094 10.642578 L 9.5332031 9.5820312 L 11.005859 8.109375 L 11.005859 11.009766 L 7.0214844 11.009766 L 7.0214844 12.599609 L 4.7070312 11.009766 L 3.0058594 11.009766 L 3.0058594 6 z M 8.1367188 8.4472656 L 8.5449219 8.8554688 L 7.9316406 9.0605469 L 8.1367188 8.4472656 z " transform="translate(-0.0049566,1035.3729)" id="path5340"/>
          </g>
        </g>
      </g>
    </g>
  </g>

	
	
	<metadata>
		<rdf:RDF xmlns:rdf="http://www.w3.org/1999/02/22-rdf-syntax-ns#" xmlns:rdfs="http://www.w3.org/2000/01/rdf-schema#" xmlns:dc="http://purl.org/dc/elements/1.1/">
			<rdf:Description about="https://iconscout.com/legal#licenses" dc:title="Chat, Message, Write, Note, Pen, Type, Pencile" dc:description="Chat, Message, Write, Note, Pen, Type, Pencile" dc:publisher="Iconscout" dc:date="2016-12-14" dc:format="image/svg+xml" dc:language="en">
				<dc:creator>
					<rdf:Bag>
						<rdf:li>Chamestudio</rdf:li>
					</rdf:Bag>
				</dc:creator>
			</rdf:Description>
		</rdf:RDF>
    </metadata></svg>
