<?xml version="1.0" encoding="UTF-8" standalone="no"?>
<svg xmlns:dc="http://purl.org/dc/elements/1.1/" xmlns:cc="http://creativecommons.org/ns#" xmlns:rdf="http://www.w3.org/1999/02/22-rdf-syntax-ns#" xmlns:svg="http://www.w3.org/2000/svg" xmlns="http://www.w3.org/2000/svg" xmlns:sodipodi="http://sodipodi.sourceforge.net/DTD/sodipodi-0.dtd" xmlns:inkscape="http://www.inkscape.org/namespaces/inkscape" width="16px" height="16px" viewBox="0 0 16 16" id="svg2" version="1.1" inkscape:version="0.91 r13725" sodipodi:docname="32.svg">
  <defs id="defs4">
    <pattern y="0" x="0" height="6" width="6" patternUnits="userSpaceOnUse" id="EMFhbasepattern"/>
    <pattern y="0" x="0" height="6" width="6" patternUnits="userSpaceOnUse" id="EMFhbasepattern-5"/>
  </defs>
  <sodipodi:namedview id="base" pagecolor="#ffffff" bordercolor="#666666" borderopacity="1.0" inkscape:pageopacity="0.0" inkscape:pageshadow="2" inkscape:zoom="16" inkscape:cx="20.761918" inkscape:cy="-0.55437733" inkscape:document-units="px" inkscape:current-layer="layer1" showgrid="true" units="px" inkscape:window-width="1366" inkscape:window-height="715" inkscape:window-x="-8" inkscape:window-y="-8" inkscape:window-maximized="1">
    <inkscape:grid type="xygrid" id="grid3367" color="#0000ff" opacity="0.1254902" empcolor="#3f0000" empopacity="0.25098039"/>
  </sodipodi:namedview>
  
  <g inkscape:label="Layer 1" inkscape:groupmode="layer" id="layer1" transform="translate(0,-1036.3622)">
    <g transform="matrix(-1,0,0,1,15.962068,-2.99749)" id="g5385"/>
    <path style="color:#000000;font-style:normal;font-variant:normal;font-weight:normal;font-stretch:normal;font-size:medium;line-height:normal;font-family:sans-serif;text-indent:0;text-align:start;text-decoration:none;text-decoration-line:none;text-decoration-style:solid;text-decoration-color:#000000;letter-spacing:normal;word-spacing:normal;text-transform:none;direction:ltr;block-progression:tb;writing-mode:lr-tb;baseline-shift:baseline;text-anchor:start;white-space:normal;clip-rule:nonzero;display:inline;overflow:visible;visibility:visible;opacity:1;isolation:auto;mix-blend-mode:normal;color-interpolation:sRGB;color-interpolation-filters:linearRGB;solid-color:#000000;solid-opacity:1;fill:#000000;fill-opacity:1;fill-rule:nonzero;stroke:none;stroke-width:1.00000012;stroke-linecap:butt;stroke-linejoin:miter;stroke-miterlimit:4;stroke-dasharray:none;stroke-dashoffset:0;stroke-opacity:1;color-rendering:auto;image-rendering:auto;shape-rendering:auto;text-rendering:auto;enable-background:accumulate" d="M 8.0078125 0.017578125 L 8.0078125 4.0097656 L 6.2832031 4.0097656 L 7.1347656 4.8632812 L 8.4863281 6.2167969 L 10.697266 4.0097656 L 9.0078125 4.0097656 L 9.0078125 0.017578125 L 8.0078125 0.017578125 z M 5.9316406 0.28125 C 4.575227 0.64475 3.33867 1.3585625 2.3457031 2.3515625 L 3.0527344 3.0585938 C 3.9216115 2.1896938 5.0044941 1.5640937 6.1914062 1.2460938 L 5.9316406 0.28125 z M 1.0742188 4.0078125 C 0.37207446 5.2239125 0.001966365 6.6016594 0.001953125 8.0058594 L 1.0019531 8.0058594 C 1.0019638 6.7771594 1.325077 5.5720125 1.9394531 4.5078125 L 1.0742188 4.0078125 z M 13.789062 4.2792969 L 13.789062 5.484375 L 13.789062 6.0039062 L 10 6.0039062 L 10 7.0039062 L 13.789062 7.0039062 L 13.789062 8.6933594 L 15.996094 6.4824219 L 13.789062 4.2792969 z M 14.998047 8.0117188 C 14.998055 9.2405188 14.674943 10.447519 14.060547 11.511719 L 14.925781 12.011719 C 15.627919 10.795519 15.99807 9.4160188 15.998047 8.0117188 L 14.998047 8.0117188 z M 1.2382812 9.8164062 L 0.2734375 10.076172 C 0.63688974 11.432572 1.3507808 12.669109 2.34375 13.662109 L 3.0507812 12.955078 C 2.1819021 12.086178 1.5563134 11.003306 1.2382812 9.8164062 z M 12.947266 12.958984 C 12.078384 13.827884 10.995506 14.451531 9.8085938 14.769531 L 10.068359 15.734375 C 11.424773 15.370975 12.66133 14.656963 13.654297 13.664062 L 12.947266 12.958984 z M 4.4980469 14.068359 L 3.9980469 14.935547 C 5.2141734 15.637647 6.5937747 16.005759 7.9980469 16.005859 L 7.9980469 15.007812 C 6.7692754 15.007912 5.5622084 14.682759 4.4980469 14.068359 z " transform="translate(0,1036.3622)" id="path5033"/>
  </g>

	
	
	<metadata>
		<rdf:RDF xmlns:rdf="http://www.w3.org/1999/02/22-rdf-syntax-ns#" xmlns:rdfs="http://www.w3.org/2000/01/rdf-schema#" xmlns:dc="http://purl.org/dc/elements/1.1/">
			<rdf:Description about="https://iconscout.com/legal#licenses" dc:title="Circle, Resize, Maximum, Minimum, Clock, Ui, Tool" dc:description="Circle, Resize, Maximum, Minimum, Clock, Ui, Tool" dc:publisher="Iconscout" dc:date="2016-12-14" dc:format="image/svg+xml" dc:language="en">
				<dc:creator>
					<rdf:Bag>
						<rdf:li>Chamestudio</rdf:li>
					</rdf:Bag>
				</dc:creator>
			</rdf:Description>
		</rdf:RDF>
    </metadata></svg>
