<?xml version="1.0" encoding="UTF-8" standalone="no"?>
<svg xmlns:dc="http://purl.org/dc/elements/1.1/" xmlns:cc="http://creativecommons.org/ns#" xmlns:rdf="http://www.w3.org/1999/02/22-rdf-syntax-ns#" xmlns:svg="http://www.w3.org/2000/svg" xmlns="http://www.w3.org/2000/svg" xmlns:sodipodi="http://sodipodi.sourceforge.net/DTD/sodipodi-0.dtd" xmlns:inkscape="http://www.inkscape.org/namespaces/inkscape" width="16px" height="16px" viewBox="0 0 16 16" id="svg2" version="1.1" inkscape:version="0.91 r13725" sodipodi:docname="202.svg">
  <defs id="defs4">
    <pattern y="0" x="0" height="6" width="6" patternUnits="userSpaceOnUse" id="EMFhbasepattern"/>
  </defs>
  <sodipodi:namedview id="base" pagecolor="#ffffff" bordercolor="#666666" borderopacity="1.0" inkscape:pageopacity="0.0" inkscape:pageshadow="2" inkscape:zoom="16" inkscape:cx="-2.6580126" inkscape:cy="2.7370951" inkscape:document-units="px" inkscape:current-layer="layer1" showgrid="true" units="px" inkscape:window-width="1366" inkscape:window-height="715" inkscape:window-x="-8" inkscape:window-y="-8" inkscape:window-maximized="1">
    <inkscape:grid type="xygrid" id="grid3336"/>
  </sodipodi:namedview>
  
  <g inkscape:label="Layer 1" inkscape:groupmode="layer" id="layer1" transform="translate(0,-1036.3622)">
    <path style="color:#000000;font-style:normal;font-variant:normal;font-weight:normal;font-stretch:normal;font-size:medium;line-height:normal;font-family:sans-serif;text-indent:0;text-align:start;text-decoration:none;text-decoration-line:none;text-decoration-style:solid;text-decoration-color:#000000;letter-spacing:normal;word-spacing:normal;text-transform:none;direction:ltr;block-progression:tb;writing-mode:lr-tb;baseline-shift:baseline;text-anchor:start;white-space:normal;clip-rule:nonzero;display:inline;overflow:visible;visibility:visible;opacity:1;isolation:auto;mix-blend-mode:normal;color-interpolation:sRGB;color-interpolation-filters:linearRGB;solid-color:#000000;solid-opacity:1;fill:#000000;fill-opacity:1;fill-rule:nonzero;stroke:none;stroke-width:1;stroke-linecap:butt;stroke-linejoin:miter;stroke-miterlimit:4;stroke-dasharray:none;stroke-dashoffset:0;stroke-opacity:1;color-rendering:auto;image-rendering:auto;shape-rendering:auto;text-rendering:auto;enable-background:accumulate" d="M 13.484375 2 A 1.5 1.5 0 0 0 11.984375 3.5 A 1.5 1.5 0 0 0 11.994141 3.6542969 L 9.9394531 4.9394531 C 9.0232746 3.7678943 7.6135655 3 6.015625 3 C 3.2601236 3 1.015625 5.2445 1.015625 8 C 1.015625 10.7555 3.2601236 13 6.015625 13 C 7.6123839 13 9.0212455 12.232577 9.9375 11.0625 L 11.992188 12.347656 A 1.5 1.5 0 0 1 11.992188 12.349609 A 1.5 1.5 0 0 0 11.984375 12.5 A 1.5 1.5 0 0 0 13.484375 14 A 1.5 1.5 0 0 0 14.984375 12.5 A 1.5 1.5 0 0 0 13.484375 11 A 1.5 1.5 0 0 0 12.427734 11.4375 L 10.472656 10.216797 C 10.808413 9.5455244 11.015625 8.7997437 11.015625 8 C 11.015625 7.2016172 10.809296 6.4555766 10.474609 5.7851562 L 12.429688 4.5644531 A 1.5 1.5 0 0 0 13.484375 5 A 1.5 1.5 0 0 0 14.984375 3.5 A 1.5 1.5 0 0 0 13.484375 2 z M 6.015625 4 C 7.2633097 4 8.361125 4.5762758 9.09375 5.4667969 L 6.9335938 6.8164062 A 1.5 1.5 0 0 0 6.015625 6.5 A 1.5 1.5 0 0 0 4.515625 8 A 1.5 1.5 0 0 0 6.015625 9.5 A 1.5 1.5 0 0 0 6.9355469 9.1835938 L 9.0917969 10.533203 C 8.3591529 11.422491 7.2623174 12 6.015625 12 C 3.8005637 12 2.015625 10.2151 2.015625 8 C 2.015625 5.785 3.8005637 4 6.015625 4 z M 9.6328125 6.3125 C 9.8718505 6.8260071 10.015625 7.3945731 10.015625 8 C 10.015625 8.6070188 9.8710625 9.1749256 9.6308594 9.6894531 L 7.4746094 8.3417969 A 1.5 1.5 0 0 0 7.515625 8 A 1.5 1.5 0 0 0 7.4746094 7.6601562 L 9.6328125 6.3125 z " transform="translate(0,1036.3622)" id="path4227"/>
  </g>

	
	
	<metadata>
		<rdf:RDF xmlns:rdf="http://www.w3.org/1999/02/22-rdf-syntax-ns#" xmlns:rdfs="http://www.w3.org/2000/01/rdf-schema#" xmlns:dc="http://purl.org/dc/elements/1.1/">
			<rdf:Description about="https://iconscout.com/legal#licenses" dc:title="Color, Themes, Palatte, Inteface, Tool, UI" dc:description="Color, Themes, Palatte, Inteface, Tool, UI" dc:publisher="Iconscout" dc:date="2016-12-14" dc:format="image/svg+xml" dc:language="en">
				<dc:creator>
					<rdf:Bag>
						<rdf:li>Chamestudio</rdf:li>
					</rdf:Bag>
				</dc:creator>
			</rdf:Description>
		</rdf:RDF>
    </metadata></svg>
