<?xml version="1.0" encoding="UTF-8" standalone="no"?>
<svg xmlns:dc="http://purl.org/dc/elements/1.1/" xmlns:cc="http://creativecommons.org/ns#" xmlns:rdf="http://www.w3.org/1999/02/22-rdf-syntax-ns#" xmlns:svg="http://www.w3.org/2000/svg" xmlns="http://www.w3.org/2000/svg" xmlns:sodipodi="http://sodipodi.sourceforge.net/DTD/sodipodi-0.dtd" xmlns:inkscape="http://www.inkscape.org/namespaces/inkscape" width="16px" height="16px" viewBox="0 0 16 16" id="svg2" version="1.1" inkscape:version="0.91 r13725" sodipodi:docname="127.svg">
  <defs id="defs4">
    <pattern y="0" x="0" height="6" width="6" patternUnits="userSpaceOnUse" id="EMFhbasepattern"/>
  </defs>
  <sodipodi:namedview id="base" pagecolor="#ffffff" bordercolor="#666666" borderopacity="1.0" inkscape:pageopacity="0.0" inkscape:pageshadow="2" inkscape:zoom="16" inkscape:cx="-2.1504831" inkscape:cy="2.0644933" inkscape:document-units="px" inkscape:current-layer="g5272" showgrid="true" units="px" inkscape:window-width="1366" inkscape:window-height="715" inkscape:window-x="-8" inkscape:window-y="-8" inkscape:window-maximized="1">
    <inkscape:grid type="xygrid" id="grid3358"/>
  </sodipodi:namedview>
  
  <g inkscape:label="Layer 1" inkscape:groupmode="layer" id="layer1" transform="translate(0,-1036.3622)">
    <g id="g5550" transform="translate(0.50449022,-1.00135)">
      <g id="g5272" transform="translate(-0.00329022,0.9816172)">
        <path style="color:#000000;font-style:normal;font-variant:normal;font-weight:normal;font-stretch:normal;font-size:medium;line-height:normal;font-family:sans-serif;text-indent:0;text-align:start;text-decoration:none;text-decoration-line:none;text-decoration-style:solid;text-decoration-color:#000000;letter-spacing:normal;word-spacing:normal;text-transform:none;direction:ltr;block-progression:tb;writing-mode:lr-tb;baseline-shift:baseline;text-anchor:start;white-space:normal;clip-rule:nonzero;display:inline;overflow:visible;visibility:visible;opacity:1;isolation:auto;mix-blend-mode:normal;color-interpolation:sRGB;color-interpolation-filters:linearRGB;solid-color:#000000;solid-opacity:1;fill:#000000;fill-opacity:1;fill-rule:nonzero;stroke:none;stroke-width:0.99999988;stroke-linecap:butt;stroke-linejoin:miter;stroke-miterlimit:4;stroke-dasharray:none;stroke-dashoffset:0;stroke-opacity:1;color-rendering:auto;image-rendering:auto;shape-rendering:auto;text-rendering:auto;enable-background:accumulate" d="M 7.0039062 2.9824219 C 6.4554488 2.9824219 5.9980469 3.4397812 5.9980469 3.9882812 L 5.9980469 4.9960938 L 2.9902344 4.9960938 L 2.9902344 5.9960938 L 3.9902344 5.9960938 L 3.9902344 12.996094 C 3.9902344 13.541494 4.4448828 13.996094 4.9902344 13.996094 L 11.990234 13.996094 C 12.535586 13.996094 12.990234 13.541494 12.990234 12.996094 L 12.990234 5.9960938 L 13.990234 5.9960938 L 13.990234 4.9960938 L 10.998047 4.9960938 L 10.998047 3.9882812 C 10.998047 3.4397812 10.540645 2.9824219 9.9921875 2.9824219 L 7.0039062 2.9824219 z M 7.0039062 3.9785156 L 9.9921875 3.9785156 C 10.003972 3.9785156 9.9980469 3.9682813 9.9980469 3.9882812 L 9.9980469 4.9960938 L 6.9980469 4.9960938 L 6.9980469 3.9882812 C 6.9980469 3.9762813 6.9921262 3.9785156 7.0039062 3.9785156 z M 4.9902344 5.9960938 L 11.990234 5.9960938 L 11.990234 12.996094 L 10.990234 12.996094 L 10.990234 6.9960938 L 9.9902344 6.9960938 L 9.9902344 12.996094 L 8.9902344 12.996094 L 8.9902344 6.9960938 L 7.9902344 6.9960938 L 7.9902344 12.996094 L 6.9902344 12.996094 L 6.9902344 6.9960938 L 5.9902344 6.9960938 L 5.9902344 12.996094 L 4.9902344 12.996094 L 4.9902344 5.9960938 z " transform="translate(-0.5012,1036.3819)" id="rect5712"/>
      </g>
    </g>
  </g>

	
	
	<metadata>
		<rdf:RDF xmlns:rdf="http://www.w3.org/1999/02/22-rdf-syntax-ns#" xmlns:rdfs="http://www.w3.org/2000/01/rdf-schema#" xmlns:dc="http://purl.org/dc/elements/1.1/">
			<rdf:Description about="https://iconscout.com/legal#licenses" dc:title="Delete, Trash, Dustbin, Garbage, Remove, Recyclebin, UI" dc:description="Delete, Trash, Dustbin, Garbage, Remove, Recyclebin, UI" dc:publisher="Iconscout" dc:date="2016-12-14" dc:format="image/svg+xml" dc:language="en">
				<dc:creator>
					<rdf:Bag>
						<rdf:li>Chamestudio</rdf:li>
					</rdf:Bag>
				</dc:creator>
			</rdf:Description>
		</rdf:RDF>
    </metadata></svg>
