<?xml version="1.0" encoding="UTF-8" standalone="no"?>
<svg xmlns:dc="http://purl.org/dc/elements/1.1/" xmlns:cc="http://creativecommons.org/ns#" xmlns:rdf="http://www.w3.org/1999/02/22-rdf-syntax-ns#" xmlns:svg="http://www.w3.org/2000/svg" xmlns="http://www.w3.org/2000/svg" xmlns:sodipodi="http://sodipodi.sourceforge.net/DTD/sodipodi-0.dtd" xmlns:inkscape="http://www.inkscape.org/namespaces/inkscape" width="16px" height="16px" viewBox="0 0 16 16" id="svg2" version="1.1" inkscape:version="0.91 r13725" sodipodi:docname="30.svg">
  <defs id="defs4">
    <pattern y="0" x="0" height="6" width="6" patternUnits="userSpaceOnUse" id="EMFhbasepattern"/>
    <pattern y="0" x="0" height="6" width="6" patternUnits="userSpaceOnUse" id="EMFhbasepattern-5"/>
  </defs>
  <sodipodi:namedview id="base" pagecolor="#ffffff" bordercolor="#666666" borderopacity="1.0" inkscape:pageopacity="0.0" inkscape:pageshadow="2" inkscape:zoom="11.313709" inkscape:cx="-0.65033543" inkscape:cy="0.46366638" inkscape:document-units="px" inkscape:current-layer="layer1" showgrid="true" units="px" inkscape:window-width="1366" inkscape:window-height="715" inkscape:window-x="-8" inkscape:window-y="-8" inkscape:window-maximized="1">
    <inkscape:grid type="xygrid" id="grid3367" color="#0000ff" opacity="0.1254902" empcolor="#3f0000" empopacity="0.25098039"/>
  </sodipodi:namedview>
  
  <g inkscape:label="Layer 1" inkscape:groupmode="layer" id="layer1" transform="translate(0,-1036.3622)">
    <g transform="matrix(-1,0,0,1,15.962068,-2.99749)" id="g5385"/>
    <path style="color:#000000;font-style:normal;font-variant:normal;font-weight:normal;font-stretch:normal;font-size:medium;line-height:normal;font-family:sans-serif;text-indent:0;text-align:start;text-decoration:none;text-decoration-line:none;text-decoration-style:solid;text-decoration-color:#000000;letter-spacing:normal;word-spacing:normal;text-transform:none;direction:ltr;block-progression:tb;writing-mode:lr-tb;baseline-shift:baseline;text-anchor:start;white-space:normal;clip-rule:nonzero;display:inline;overflow:visible;visibility:visible;opacity:1;isolation:auto;mix-blend-mode:normal;color-interpolation:sRGB;color-interpolation-filters:linearRGB;solid-color:#000000;solid-opacity:1;fill:#000000;fill-opacity:1;fill-rule:nonzero;stroke:none;stroke-width:1.00000012;stroke-linecap:butt;stroke-linejoin:miter;stroke-miterlimit:4;stroke-dasharray:none;stroke-dashoffset:0;stroke-opacity:1;color-rendering:auto;image-rendering:auto;shape-rendering:auto;text-rendering:auto;enable-background:accumulate" d="M 8 0 C 3.5876443 0 -2.9415706e-007 3.5877 0 8 C -2.9415706e-007 12.4124 3.5876443 16 8 16 C 12.412356 16 16 12.4124 16 8 C 16 3.5877 12.412356 0 8 0 z M 8 1 C 8.2313445 1 8.4846515 1.1168875 8.7734375 1.4296875 C 9.0622235 1.7424875 9.3561563 2.2405062 9.6054688 2.8789062 C 9.8385188 3.4757585 10.0285 4.1997556 10.169922 5 L 5.8300781 5 C 5.9715001 4.1997556 6.1614809 3.4757585 6.3945312 2.8789062 C 6.6438436 2.2405062 6.9377765 1.7424875 7.2265625 1.4296875 C 7.5153485 1.1168875 7.7686555 1 8 1 z M 6.0996094 1.265625 C 5.8604682 1.6257409 5.6478527 2.0419088 5.4628906 2.515625 C 5.1822359 3.234375 4.9591332 4.0740875 4.8066406 5 L 1.6796875 5 C 2.5370712 3.1928939 4.1411071 1.8157693 6.0996094 1.265625 z M 9.9003906 1.265625 C 11.858893 1.8157693 13.462929 3.1928939 14.320312 5 L 11.193359 5 C 11.040867 4.0740875 10.817764 3.234375 10.537109 2.515625 C 10.352148 2.0419088 10.139532 1.6257409 9.9003906 1.265625 z M 1.2929688 6 L 4.6875 6 C 4.6202724 6.642487 4.5722656 7.3044349 4.5722656 8 C 4.5722656 8.6955978 4.6202724 9.3572096 4.6875 10 L 1.2929688 10 C 1.1045029 9.3656673 0.99999995 8.6963112 1 8 C 0.99999995 7.3043507 1.1048479 6.6338017 1.2929688 6 z M 5.6953125 6 L 10.304688 6 C 10.376193 6.6381933 10.427734 7.3007847 10.427734 8 C 10.427734 8.6999256 10.376332 9.3609213 10.304688 10 L 5.6953125 10 C 5.6236683 9.3609213 5.5722656 8.6999256 5.5722656 8 C 5.5722656 7.3007847 5.6238074 6.6381933 5.6953125 6 z M 11.3125 6 L 14.707031 6 C 14.895152 6.6338017 15 7.3043507 15 8 C 15 8.6963112 14.895497 9.3656673 14.707031 10 L 11.3125 10 C 11.379728 9.3572096 11.427734 8.6955978 11.427734 8 C 11.427734 7.3044349 11.379728 6.642487 11.3125 6 z M 1.6816406 11 L 4.8066406 11 C 4.9591332 11.926425 5.1822359 12.767578 5.4628906 13.486328 C 5.6474718 13.959003 5.8591302 14.372803 6.0976562 14.732422 C 4.1408278 14.182175 2.5390393 12.805389 1.6816406 11 z M 5.8320312 11 L 10.167969 11 C 10.026577 11.799858 9.8383138 12.52672 9.6054688 13.123047 C 9.3561563 13.761547 9.0622235 14.259466 8.7734375 14.572266 C 8.4846515 14.885066 8.2313445 15 8 15 C 7.7686555 15 7.5153485 14.885066 7.2265625 14.572266 C 6.9377765 14.259466 6.6438437 13.761547 6.3945312 13.123047 C 6.161686 12.52672 5.9734227 11.799858 5.8320312 11 z M 11.193359 11 L 14.318359 11 C 13.460961 12.805389 11.859172 14.182175 9.9023438 14.732422 C 10.14087 14.372803 10.352529 13.959003 10.537109 13.486328 C 10.817764 12.767578 11.040867 11.926425 11.193359 11 z " transform="translate(0,1036.3622)" id="path4952"/>
  </g>

	
	
	<metadata>
		<rdf:RDF xmlns:rdf="http://www.w3.org/1999/02/22-rdf-syntax-ns#" xmlns:rdfs="http://www.w3.org/2000/01/rdf-schema#" xmlns:dc="http://purl.org/dc/elements/1.1/">
			<rdf:Description about="https://iconscout.com/legal#licenses" dc:title="Earth, World, Wide, Web, Circle, Connect, Round" dc:description="Earth, World, Wide, Web, Circle, Connect, Round" dc:publisher="Iconscout" dc:date="2016-12-14" dc:format="image/svg+xml" dc:language="en">
				<dc:creator>
					<rdf:Bag>
						<rdf:li>Chamestudio</rdf:li>
					</rdf:Bag>
				</dc:creator>
			</rdf:Description>
		</rdf:RDF>
    </metadata></svg>
