<?xml version="1.0" encoding="utf-8"?>
<!-- Generator: Adobe Illustrator 21.1.0, SVG Export Plug-In . SVG Version: 6.00 Build 0)  -->
<svg version="1.1" id="Layer_1" xmlns="http://www.w3.org/2000/svg" xmlns:xlink="http://www.w3.org/1999/xlink" x="0px" y="0px"
	 viewBox="0 0 351.2 331.1" style="enable-background:new 0 0 351.2 331.1;" xml:space="preserve">
<style type="text/css">
	.st0{fill-rule:evenodd;clip-rule:evenodd;fill:none;stroke:#000000;stroke-width:0.5669;stroke-miterlimit:22.9256;}
	.st1{fill-rule:evenodd;clip-rule:evenodd;stroke:#000000;stroke-width:0.5669;stroke-miterlimit:22.9256;}
</style>
<text transform="matrix(1 0 0 1 597.2646 539.5132)" style="font-family:'ArialMT'; font-size:483.7779px;">D</text>
<path class="st0" d="M-388.2,104.9c-13.8,7.7-54.4,32.7-67.7,33.6c-26.8,1.8-49.2-24.8-66.4-41.1c-15.4-14.7-30.6-19.5-51.4-22.1
	c-15.5-1.9-11.1,5.5-1.8,11.6c9.3,6.1-10.6-3.5-14.9-9.9c-9-13.5,16.9-23.1,23-38.6c5.4-13.8-27.5,14.1-27.7,14.2
	c2.3-7.1,21.7-22.1,29.1-25.5c18.8-8.5,34.7,8.6,36.4,2.3c1.8-6.9-9.5-14.2-3.6-29.1c11.9,6.4,37.6,32.2,49.1,42.5
	c1.7,1.5,3.3,3,5,4.4C-451.6,70.8-419.7,87.1-388.2,104.9z"/>
<path class="st0" d="M-397.5,104.8c24.8,13.7,48.6,26.8,72.9,41.4c30.1,18,54.9,29.7,87.1,43.3c2.2,0.9,12.7,6.8,14.5,4.7
	c15.2-17-45-42.6-32.9-66.3c5.4-10.6,24.7-9.1,31.8-21.1c5.6-12-23.5-20.5-16-34.9c4-7.6,26.7-24.8,19.3-32.8
	c-2-2.1-4.6,0.6-7.9,1.9c-14.2,5.4-35.8,10.8-50.9,14.9c-34.3,9.2-44.3,7.3-77.4,26c-12.8,7.2-25.5,14.4-38.3,21.6L-397.5,104.8z"/>
<path class="st0" d="M-392.7,132.8c14.5,0,26.4-11.4,26.4-25.4s-11.9-25.4-26.4-25.4c-14.5,0-26.4,11.4-26.4,25.4
	S-407.3,132.8-392.7,132.8z"/>
<path class="st0" d="M-682.5,320.9c19,11.5,102.7,82.8,104.3,81c75.4-83.9,208.7-73.7,86.1-38.2c-58.2,16.8-131.2,105.8-131.2,105.1
	c0-67.3-5.6-104.2-53.4-157.4c-3.2-3.6-7.7-3.2-12.1-3.2"/>
<rect x="-481.7" y="640" class="st0" width="90.9" height="101.4"/>
<text transform="matrix(1 0 0 1 74.042 397.0059)"><tspan x="0" y="0" style="font-family:'BodoniBT-Bold'; font-size:24.0001px;">S</tspan><tspan x="11.8" y="0" style="font-family:'BodoniBT-Bold'; font-size:24.0001px;">ocial Equlibrium</tspan></text>
<path class="st1" d="M182,46.1H34v44h148V46.1L182,46.1z M34,60.1h42v239H34V60.1L34,60.1z M34,261.1v46h146v-46H34L34,261.1z
	 M169,157.1H34v38h135V157.1L169,157.1z M0,18.1h125.2c24.8,0,43.3,1,55.4,3.1c12.2,2.1,23.1,6.4,32.7,12.9
	c9.6,6.6,17.6,15.2,24,26.1c6.4,10.9,9.6,23.1,9.6,36.6c0,14.6-3.9,28.1-11.8,40.2c-7.9,12.2-18.6,21.3-32.1,27.5
	c19,5.6,33.6,15.1,43.9,28.5c10.2,13.4,15.3,29.1,15.3,47.3c0,14.3-3.3,28.1-9.9,41.6c-6.6,13.5-15.7,24.3-27.2,32.3
	c-11.4,8-25.6,13-42.4,14.9c-10.5,1.1-35.9,1.8-76.2,2.1H0V18.1L0,18.1z M63,70.1h36.2c29.6,0,47.6,0.4,53.8,1.1
	c10.5,1.2,18.4,4.9,23.7,10.9c5.3,6,8,13.8,8,23.5c0,10-3.1,18.1-9.2,24.3c-6.2,6.2-14.7,9.9-25.5,11.1c-6,0.7-21.2,1.1-45.7,1.1H63
	V70.1L63,70.1z M63,194.1v84h58.6c22.7,0,37.3-0.7,43.4-1.9c9.4-1.8,17.1-5.9,23-12.5c5.9-6.7,8.9-15.5,8.9-26.7
	c0-9.5-2.3-17.4-6.9-24c-4.5-6.6-11.2-11.4-19.8-14.4c-8.6-3-27.3-4.5-56.1-4.5H63L63,194.1z M132.6,10c10.4,3.3,20.7,6.2,31.2,9.1
	c16.3,4.6,31.9,8.7,39.2,20.9c4.6,7.6,6.6,21.1,6.4,28.9c-0.1,4.2-0.2,8.3-0.3,12.4c0,0.5-0.5,8.9,1.4,8.3c0.8-0.3,2.9-4.8,3.3-5.7
	c2.4-5.7,4.9-10.1,8.2-15.5c6.1-9.6,12.4-22.7,31.2-23c13.8-0.1,64,12,81,15.9c5.8,1.3,29.7,7.2,8.2,5.5c-39.3-3.1-68-6.9-97.4,9.1
	c-1.7,0.9-3.3,1.9-5,2.8c-2.7,1.6-5.4,3.1-8.2,4.6c-4.7,2.4-9.1,3.7-14,5.7c-1.8,0.7-6.2,3.1-8.4,1.8c-2.1-1.2-6.1-7.3-7.6-9.2
	c-3.6-4.5-6.2-8-9-12.7c-4.6-7.7-10.4-18.2-17.1-25.3C157.5,24.3,108.8,6.6,102,0C102.5-0.2,129.8,9.1,132.6,10z"/>
</svg>
