<?xml version="1.0" encoding="UTF-8" standalone="no"?>
<svg xmlns:dc="http://purl.org/dc/elements/1.1/" xmlns:cc="http://creativecommons.org/ns#" xmlns:rdf="http://www.w3.org/1999/02/22-rdf-syntax-ns#" xmlns:svg="http://www.w3.org/2000/svg" xmlns="http://www.w3.org/2000/svg" xmlns:sodipodi="http://sodipodi.sourceforge.net/DTD/sodipodi-0.dtd" xmlns:inkscape="http://www.inkscape.org/namespaces/inkscape" width="16px" height="16px" viewBox="0 0 16 16" id="svg2" version="1.1" inkscape:version="0.91 r13725" sodipodi:docname="168.svg">
  <defs id="defs4">
    <pattern y="0" x="0" height="6" width="6" patternUnits="userSpaceOnUse" id="EMFhbasepattern"/>
    <pattern y="0" x="0" height="6" width="6" patternUnits="userSpaceOnUse" id="EMFhbasepattern-4"/>
    <pattern y="0" x="0" height="6" width="6" patternUnits="userSpaceOnUse" id="EMFhbasepattern-49"/>
  </defs>
  <sodipodi:namedview id="base" pagecolor="#ffffff" bordercolor="#666666" borderopacity="1.0" inkscape:pageopacity="0.0" inkscape:pageshadow="2" inkscape:zoom="11.313709" inkscape:cx="22.999801" inkscape:cy="19.855255" inkscape:document-units="px" inkscape:current-layer="g4373" showgrid="true" inkscape:window-width="1366" inkscape:window-height="715" inkscape:window-x="-8" inkscape:window-y="-8" inkscape:window-maximized="1" units="px">
    <inkscape:grid type="xygrid" id="grid3360"/>
  </sodipodi:namedview>
  
  <g inkscape:label="Layer 1" inkscape:groupmode="layer" id="layer1" transform="translate(0,-1036.3622)">
    <g transform="translate(-2.5265734,1.0312727)" id="g3877">
      <g transform="translate(1.2943666,-0.33897736)" id="g3808">
        <g transform="matrix(-1,0,0,-1,17.257575,2087.526)" id="g4373">
          <path style="color:#000000;font-style:normal;font-variant:normal;font-weight:normal;font-stretch:normal;font-size:medium;line-height:normal;font-family:sans-serif;text-indent:0;text-align:start;text-decoration:none;text-decoration-line:none;text-decoration-style:solid;text-decoration-color:#000000;letter-spacing:normal;word-spacing:normal;text-transform:none;direction:ltr;block-progression:tb;writing-mode:lr-tb;baseline-shift:baseline;text-anchor:start;white-space:normal;clip-rule:nonzero;display:inline;overflow:visible;visibility:visible;opacity:1;isolation:auto;mix-blend-mode:normal;color-interpolation:sRGB;color-interpolation-filters:linearRGB;solid-color:#000000;solid-opacity:1;fill:#000000;fill-opacity:1;fill-rule:nonzero;stroke:none;stroke-width:1;stroke-linecap:butt;stroke-linejoin:miter;stroke-miterlimit:4;stroke-dasharray:none;stroke-dashoffset:0;stroke-opacity:1;color-rendering:auto;image-rendering:auto;shape-rendering:auto;text-rendering:auto;enable-background:accumulate" d="M 14.376953 1.6601562 L 10.128906 3.0761719 L 3.6777344 9.5273438 L 3.6699219 9.5195312 L 2.3320312 10.855469 C 1.9066923 11.280869 1.9066923 11.988662 2.3320312 12.414062 L 3.6035156 13.685547 C 3.8162106 13.898247 4.0996815 14.003906 4.3828125 14.003906 C 4.6659435 14.003906 4.9494144 13.898247 5.1621094 13.685547 L 6.4980469 12.347656 L 6.4941406 12.34375 L 6.5019531 12.335938 L 12.960938 5.9101562 L 14.376953 1.6601562 z M 12.794922 3.2421875 L 12.201172 5.0253906 L 11.011719 3.8359375 L 12.794922 3.2421875 z M 10.191406 4.4296875 L 11.605469 5.84375 L 6.1464844 11.279297 L 4.7324219 9.8867188 L 10.191406 4.4296875 z M 4.0195312 10.583984 L 5.4433594 11.988281 L 4.4550781 12.978516 C 4.4091581 13.024516 4.3564689 13.024516 4.3105469 12.978516 L 3.0410156 11.707031 C 2.9950456 11.661031 2.9950456 11.6081 3.0410156 11.5625 L 4.0195312 10.583984 z " transform="matrix(-1,0,0,-1,16.025368,1051.8561)" id="rect4353"/>
        </g>
      </g>
    </g>
  </g>

	
	
	<metadata>
		<rdf:RDF xmlns:rdf="http://www.w3.org/1999/02/22-rdf-syntax-ns#" xmlns:rdfs="http://www.w3.org/2000/01/rdf-schema#" xmlns:dc="http://purl.org/dc/elements/1.1/">
			<rdf:Description about="https://iconscout.com/legal#licenses" dc:title="Edit, Path, Eraser, Tool, Draw, Pencil, Pen" dc:description="Edit, Path, Eraser, Tool, Draw, Pencil, Pen" dc:publisher="Iconscout" dc:date="2016-12-14" dc:format="image/svg+xml" dc:language="en">
				<dc:creator>
					<rdf:Bag>
						<rdf:li>Chamestudio</rdf:li>
					</rdf:Bag>
				</dc:creator>
			</rdf:Description>
		</rdf:RDF>
    </metadata></svg>
