<?xml version="1.0" encoding="UTF-8" standalone="no"?>
<svg xmlns:dc="http://purl.org/dc/elements/1.1/" xmlns:cc="http://creativecommons.org/ns#" xmlns:rdf="http://www.w3.org/1999/02/22-rdf-syntax-ns#" xmlns:svg="http://www.w3.org/2000/svg" xmlns="http://www.w3.org/2000/svg" xmlns:sodipodi="http://sodipodi.sourceforge.net/DTD/sodipodi-0.dtd" xmlns:inkscape="http://www.inkscape.org/namespaces/inkscape" width="16px" height="16px" viewBox="0 0 16 16" id="svg2" version="1.1" inkscape:version="0.91 r13725" sodipodi:docname="207.svg">
  <defs id="defs4">
    <pattern y="0" x="0" height="6" width="6" patternUnits="userSpaceOnUse" id="EMFhbasepattern"/>
  </defs>
  <sodipodi:namedview id="base" pagecolor="#ffffff" bordercolor="#666666" borderopacity="1.0" inkscape:pageopacity="0.0" inkscape:pageshadow="2" inkscape:zoom="22.627417" inkscape:cx="0.35667998" inkscape:cy="10.150695" inkscape:document-units="px" inkscape:current-layer="g5194" showgrid="true" units="px" inkscape:window-width="1366" inkscape:window-height="715" inkscape:window-x="-8" inkscape:window-y="-8" inkscape:window-maximized="1">
    <inkscape:grid type="xygrid" id="grid3336"/>
  </sodipodi:namedview>
  
  <g inkscape:label="Layer 1" inkscape:groupmode="layer" id="layer1" transform="translate(0,-1036.3622)">
    <g id="g5194" transform="translate(0.93136865,-0.49848301)">
      <path style="color:#000000;font-style:normal;font-variant:normal;font-weight:normal;font-stretch:normal;font-size:medium;line-height:normal;font-family:sans-serif;text-indent:0;text-align:start;text-decoration:none;text-decoration-line:none;text-decoration-style:solid;text-decoration-color:#000000;letter-spacing:normal;word-spacing:normal;text-transform:none;direction:ltr;block-progression:tb;writing-mode:lr-tb;baseline-shift:baseline;text-anchor:start;white-space:normal;clip-rule:nonzero;display:inline;overflow:visible;visibility:visible;opacity:1;isolation:auto;mix-blend-mode:normal;color-interpolation:sRGB;color-interpolation-filters:linearRGB;solid-color:#000000;solid-opacity:1;fill:#000000;fill-opacity:1;fill-rule:nonzero;stroke:none;stroke-width:1.16666675;stroke-linecap:butt;stroke-linejoin:miter;stroke-miterlimit:4;stroke-dasharray:none;stroke-dashoffset:0;stroke-opacity:1;color-rendering:auto;image-rendering:auto;shape-rendering:auto;text-rendering:auto;enable-background:accumulate" d="M 8 1 C 4.1409442 1 1.0000403 4.141 1 8 C 0.99998016 11.8591 4.1409019 15 8 15 C 11.859098 15 15.00002 11.8591 15 8 C 14.99996 4.141 11.859056 1 8 1 z M 8 2.1660156 C 11.228547 2.1660156 13.83395 4.7715 13.833984 8 C 13.834 11.2286 11.228583 13.832031 8 13.832031 C 4.7714176 13.832031 2.165999 11.2286 2.1660156 8 C 2.1660493 4.7715 4.7714534 2.1660156 8 2.1660156 z M 5.5 5 C 4.6774951 5 4 5.6775 4 6.5 C 4 7.3225 4.6774951 8 5.5 8 C 6.3225048 8 7 7.3225 7 6.5 C 7 5.6775 6.3225048 5 5.5 5 z M 10.5 5 C 9.6774951 5 9 5.6775 9 6.5 C 9 7.3225 9.6774951 8 10.5 8 C 11.322505 8 12 7.3225 12 6.5 C 12 5.6775 11.322505 5 10.5 5 z M 5.5 6 C 5.7820646 6 6 6.218 6 6.5 C 6 6.7821 5.7820646 7 5.5 7 C 5.2179353 7 5 6.7821 5 6.5 C 5 6.218 5.2179353 6 5.5 6 z M 10.5 6 C 10.782065 6 11 6.218 11 6.5 C 11 6.7821 10.782065 7 10.5 7 C 10.217935 7 10 6.7821 10 6.5 C 10 6.218 10.217935 6 10.5 6 z M 8 10 C 6.6962164 10 5.4453537 10.517553 4.5234375 11.439453 L 5.2304688 12.146484 C 5.9651201 11.411884 6.9610485 11 8 11 C 9.0389516 11 10.03488 11.411884 10.769531 12.146484 L 11.476562 11.439453 C 10.554646 10.517553 9.3037837 10 8 10 z " transform="translate(-0.93136865,1036.8607)" id="path5030"/>
    </g>
  </g>

	
	
	<metadata>
		<rdf:RDF xmlns:rdf="http://www.w3.org/1999/02/22-rdf-syntax-ns#" xmlns:rdfs="http://www.w3.org/2000/01/rdf-schema#" xmlns:dc="http://purl.org/dc/elements/1.1/">
			<rdf:Description about="https://iconscout.com/legal#licenses" dc:title="Emoji, Sad, Face, Round, Circle, Emotion, Moodless" dc:description="Emoji, Sad, Face, Round, Circle, Emotion, Moodless" dc:publisher="Iconscout" dc:date="2016-12-14" dc:format="image/svg+xml" dc:language="en">
				<dc:creator>
					<rdf:Bag>
						<rdf:li>Chamestudio</rdf:li>
					</rdf:Bag>
				</dc:creator>
			</rdf:Description>
		</rdf:RDF>
    </metadata></svg>
