<?xml version="1.0" encoding="UTF-8" standalone="no"?>
<svg xmlns:dc="http://purl.org/dc/elements/1.1/" xmlns:cc="http://creativecommons.org/ns#" xmlns:rdf="http://www.w3.org/1999/02/22-rdf-syntax-ns#" xmlns:svg="http://www.w3.org/2000/svg" xmlns="http://www.w3.org/2000/svg" xmlns:sodipodi="http://sodipodi.sourceforge.net/DTD/sodipodi-0.dtd" xmlns:inkscape="http://www.inkscape.org/namespaces/inkscape" width="16px" height="16px" viewBox="0 0 16 16" id="svg2" version="1.1" inkscape:version="0.91 r13725" sodipodi:docname="148.svg">
  <defs id="defs4">
    <pattern y="0" x="0" height="6" width="6" patternUnits="userSpaceOnUse" id="EMFhbasepattern"/>
  </defs>
  <sodipodi:namedview id="base" pagecolor="#ffffff" bordercolor="#666666" borderopacity="1.0" inkscape:pageopacity="0.0" inkscape:pageshadow="2" inkscape:zoom="16" inkscape:cx="-5.763088" inkscape:cy="1.5172632" inkscape:document-units="px" inkscape:current-layer="layer1" showgrid="true" inkscape:window-width="1366" inkscape:window-height="715" inkscape:window-x="-8" inkscape:window-y="-8" inkscape:window-maximized="1" units="px">
    <inkscape:grid type="xygrid" id="grid3360"/>
  </sodipodi:namedview>
  
  <g inkscape:label="Layer 1" inkscape:groupmode="layer" id="layer1" transform="translate(0,-1036.3622)">
    <path style="color:#000000;font-style:normal;font-variant:normal;font-weight:normal;font-stretch:normal;font-size:medium;line-height:normal;font-family:sans-serif;text-indent:0;text-align:start;text-decoration:none;text-decoration-line:none;text-decoration-style:solid;text-decoration-color:#000000;letter-spacing:normal;word-spacing:normal;text-transform:none;direction:ltr;block-progression:tb;writing-mode:lr-tb;baseline-shift:baseline;text-anchor:start;white-space:normal;clip-rule:nonzero;display:inline;overflow:visible;visibility:visible;opacity:1;isolation:auto;mix-blend-mode:normal;color-interpolation:sRGB;color-interpolation-filters:linearRGB;solid-color:#000000;solid-opacity:1;fill:#000000;fill-opacity:1;fill-rule:nonzero;stroke:none;stroke-width:0.99999988;stroke-linecap:butt;stroke-linejoin:miter;stroke-miterlimit:4;stroke-dasharray:none;stroke-dashoffset:0;stroke-opacity:1;color-rendering:auto;image-rendering:auto;shape-rendering:auto;text-rendering:auto;enable-background:accumulate" d="M 12.642578 2.015625 C 12.543618 2.0073666 12.441907 2.0090844 12.339844 2.0214844 C 11.66953 2.1027597 11.158021 2.6272 11.048828 3.2636719 C 10.128723 2.7121598 9.0365154 2.4332844 7.8925781 2.5722656 C 5.1574585 2.9045656 3.2009522 5.4035719 3.5332031 8.1386719 C 3.6188549 8.8437601 3.8528015 9.4925235 4.1933594 10.068359 C 4.0442098 10.051876 3.8931934 10.047586 3.7382812 10.066406 C 2.6476503 10.198906 1.861636 11.202269 1.9941406 12.292969 C 2.1266332 13.383569 3.1300721 14.169609 4.2207031 14.037109 C 5.3080325 13.905009 6.091414 12.90709 5.9648438 11.820312 C 6.8808096 12.363448 7.9641386 12.635997 9.0996094 12.498047 C 11.834768 12.165747 13.79327 9.6668406 13.460938 6.9316406 C 13.37418 6.2175804 13.132927 5.5616394 12.785156 4.9804688 C 13.556465 4.8406586 14.105424 4.1174679 14.009766 3.3300781 C 13.922974 2.6156406 13.335299 2.0734338 12.642578 2.015625 z M 12.460938 3.0136719 C 12.740949 2.9796719 12.983556 3.1710719 13.017578 3.4511719 C 13.051588 3.7310719 12.862042 3.9738125 12.582031 4.0078125 C 12.30203 4.0418125 12.059401 3.8502125 12.025391 3.5703125 C 11.991371 3.2902125 12.180937 3.0476719 12.460938 3.0136719 z M 8.8261719 3.546875 C 10.683142 3.6959982 12.23306 5.1289594 12.466797 7.0527344 C 12.733946 9.2514344 11.17718 11.238759 8.9785156 11.505859 C 6.7798516 11.772959 4.7924905 10.216278 4.5253906 8.0175781 C 4.2583026 5.8189781 5.8150476 3.8315531 8.0136719 3.5644531 C 8.2885 3.5310656 8.5608904 3.5255717 8.8261719 3.546875 z M 9.7265625 4.0175781 C 9.5613873 4.0039975 9.3912839 4.0066188 9.2207031 4.0273438 C 7.8560569 4.1931437 6.875237 5.4439937 7.0410156 6.8085938 C 7.2068062 8.1731938 8.4595845 9.1541812 9.8242188 8.9882812 C 11.188865 8.8224813 12.169696 7.5697781 12.003906 6.2050781 C 11.85885 5.0111406 10.882789 4.1126428 9.7265625 4.0175781 z M 9.6464844 5.0136719 C 10.34448 5.0683471 10.923689 5.6015844 11.011719 6.3261719 C 11.112336 7.1544719 10.531276 7.8954938 9.703125 7.9960938 C 8.8749862 8.0967937 8.1338208 7.5158 8.0332031 6.6875 C 7.9325975 5.8594 8.513646 5.1201312 9.3417969 5.0195312 C 9.4453157 5.0069563 9.5467708 5.0058611 9.6464844 5.0136719 z M 3.8574219 11.060547 C 4.4115476 10.993547 4.9053366 11.377441 4.9726562 11.931641 C 5.0399762 12.485741 4.6537351 12.977622 4.0996094 13.044922 C 3.5454738 13.111922 3.0536477 12.727928 2.9863281 12.173828 C 2.9190081 11.619728 3.3032862 11.127847 3.8574219 11.060547 z " transform="translate(0,1036.3622)" id="path4329"/>
  </g>

	
	
	<metadata>
		<rdf:RDF xmlns:rdf="http://www.w3.org/1999/02/22-rdf-syntax-ns#" xmlns:rdfs="http://www.w3.org/2000/01/rdf-schema#" xmlns:dc="http://purl.org/dc/elements/1.1/">
			<rdf:Description about="https://iconscout.com/legal#licenses" dc:title="Flare, Tool, Interface, UI, Lighting, Brush" dc:description="Flare, Tool, Interface, UI, Lighting, Brush" dc:publisher="Iconscout" dc:date="2016-12-14" dc:format="image/svg+xml" dc:language="en">
				<dc:creator>
					<rdf:Bag>
						<rdf:li>Chamestudio</rdf:li>
					</rdf:Bag>
				</dc:creator>
			</rdf:Description>
		</rdf:RDF>
    </metadata></svg>
