<?xml version="1.0" encoding="UTF-8" standalone="no"?>
<svg xmlns:dc="http://purl.org/dc/elements/1.1/" xmlns:cc="http://creativecommons.org/ns#" xmlns:rdf="http://www.w3.org/1999/02/22-rdf-syntax-ns#" xmlns:svg="http://www.w3.org/2000/svg" xmlns="http://www.w3.org/2000/svg" xmlns:sodipodi="http://sodipodi.sourceforge.net/DTD/sodipodi-0.dtd" xmlns:inkscape="http://www.inkscape.org/namespaces/inkscape" width="16px" height="16px" viewBox="0 0 16 16" id="svg2" version="1.1" inkscape:version="0.91 r13725" sodipodi:docname="36.svg">
  <defs id="defs4">
    <pattern y="0" x="0" height="6" width="6" patternUnits="userSpaceOnUse" id="EMFhbasepattern"/>
    <pattern y="0" x="0" height="6" width="6" patternUnits="userSpaceOnUse" id="EMFhbasepattern-5"/>
  </defs>
  <sodipodi:namedview id="base" pagecolor="#ffffff" bordercolor="#666666" borderopacity="1.0" inkscape:pageopacity="0.0" inkscape:pageshadow="2" inkscape:zoom="16" inkscape:cx="9.6087318" inkscape:cy="0.52201681" inkscape:document-units="px" inkscape:current-layer="layer1" showgrid="true" units="px" inkscape:window-width="1366" inkscape:window-height="715" inkscape:window-x="-8" inkscape:window-y="-8" inkscape:window-maximized="1">
    <inkscape:grid type="xygrid" id="grid3367" color="#0000ff" opacity="0.1254902" empcolor="#3f0000" empopacity="0.25098039"/>
  </sodipodi:namedview>
  
  <g inkscape:label="Layer 1" inkscape:groupmode="layer" id="layer1" transform="translate(0,-1036.3622)">
    <path style="color:#000000;font-style:normal;font-variant:normal;font-weight:normal;font-stretch:normal;font-size:medium;line-height:normal;font-family:sans-serif;text-indent:0;text-align:start;text-decoration:none;text-decoration-line:none;text-decoration-style:solid;text-decoration-color:#000000;letter-spacing:normal;word-spacing:normal;text-transform:none;direction:ltr;block-progression:tb;writing-mode:lr-tb;baseline-shift:baseline;text-anchor:start;white-space:normal;clip-rule:nonzero;display:inline;overflow:visible;visibility:visible;opacity:1;isolation:auto;mix-blend-mode:normal;color-interpolation:sRGB;color-interpolation-filters:linearRGB;solid-color:#000000;solid-opacity:1;fill:#000000;fill-opacity:1;fill-rule:nonzero;stroke:none;stroke-width:1;stroke-linecap:round;stroke-linejoin:round;stroke-miterlimit:4;stroke-dasharray:none;stroke-dashoffset:0;stroke-opacity:1;color-rendering:auto;image-rendering:auto;shape-rendering:auto;text-rendering:auto;enable-background:accumulate" d="M 5.0117188 1.0058594 A 0.50005 0.50005 0 0 0 4.5644531 1.7285156 L 6.6796875 6 L 3.4453125 6.0097656 L 2.9335938 5.2265625 A 0.50005 0.50005 0 0 0 2.515625 4.9980469 L 0.515625 4.9980469 A 0.50005 0.50005 0 0 0 0.052734375 5.6875 L 0.99414062 7.9980469 L 0.052734375 10.310547 A 0.50005 0.50005 0 0 0 0.515625 10.998047 L 2.515625 10.998047 A 0.50005 0.50005 0 0 0 2.9335938 10.773438 L 3.4433594 9.9980469 L 6.6914062 9.9980469 L 4.5878906 14.275391 A 0.50005 0.50005 0 0 0 5.0351562 14.994141 L 7.0351562 14.994141 A 0.50005 0.50005 0 0 0 7.4453125 14.78125 L 10.792969 9.9980469 L 13.984375 9.9980469 A 0.50005 0.50005 0 0 0 13.986328 9.9980469 C 15.084164 9.9980469 15.984375 9.0972469 15.984375 7.9980469 C 15.984375 6.8986469 15.083726 5.9980469 13.984375 5.9980469 L 10.757812 5.9980469 L 7.421875 1.2207031 A 0.50005 0.50005 0 0 0 7.0117188 1.0058594 L 5.0117188 1.0058594 z M 5.8183594 2.0058594 L 6.7519531 2.0058594 L 10.087891 6.7851562 A 0.50005 0.50005 0 0 0 10.496094 6.9980469 L 13.984375 6.9980469 C 14.547024 6.9980469 14.984375 7.4353469 14.984375 7.9980469 C 14.984375 8.5604469 14.548539 8.9965469 13.984375 8.9980469 L 10.53125 8.9980469 A 0.50005 0.50005 0 0 0 10.123047 9.2128906 L 6.7753906 13.994141 L 5.8378906 13.994141 L 7.9414062 9.71875 A 0.50005 0.50005 0 0 0 7.4921875 8.9980469 L 3.1738281 8.9980469 A 0.50005 0.50005 0 0 0 2.7558594 9.2246094 L 2.2460938 9.9980469 L 1.2597656 9.9980469 L 1.9980469 8.1875 A 0.50005 0.50005 0 0 0 1.9980469 7.8105469 L 1.2597656 5.9980469 L 2.2441406 5.9980469 L 2.7558594 6.7832031 A 0.50005 0.50005 0 0 0 3.1757812 7.0097656 L 7.4863281 6.9960938 A 0.50005 0.50005 0 0 0 7.9335938 6.2753906 L 5.8183594 2.0058594 z " transform="translate(0,1036.3622)" id="rect5323"/>
  </g>

	
	
	<metadata>
		<rdf:RDF xmlns:rdf="http://www.w3.org/1999/02/22-rdf-syntax-ns#" xmlns:rdfs="http://www.w3.org/2000/01/rdf-schema#" xmlns:dc="http://purl.org/dc/elements/1.1/">
			<rdf:Description about="https://iconscout.com/legal#licenses" dc:title="Flight, Mode, Plane, Aeroplane, Signal, Air, Interface" dc:description="Flight, Mode, Plane, Aeroplane, Signal, Air, Interface" dc:publisher="Iconscout" dc:date="2016-12-14" dc:format="image/svg+xml" dc:language="en">
				<dc:creator>
					<rdf:Bag>
						<rdf:li>Chamestudio</rdf:li>
					</rdf:Bag>
				</dc:creator>
			</rdf:Description>
		</rdf:RDF>
    </metadata></svg>
