<?xml version="1.0" encoding="UTF-8" standalone="no"?>
<svg xmlns:dc="http://purl.org/dc/elements/1.1/" xmlns:cc="http://creativecommons.org/ns#" xmlns:rdf="http://www.w3.org/1999/02/22-rdf-syntax-ns#" xmlns:svg="http://www.w3.org/2000/svg" xmlns="http://www.w3.org/2000/svg" xmlns:sodipodi="http://sodipodi.sourceforge.net/DTD/sodipodi-0.dtd" xmlns:inkscape="http://www.inkscape.org/namespaces/inkscape" width="16px" height="16px" viewBox="0 0 16 16" id="svg2" version="1.1" inkscape:version="0.91 r13725" sodipodi:docname="77.svg">
  <defs id="defs4"/>
  <sodipodi:namedview id="base" pagecolor="#ffffff" bordercolor="#666666" borderopacity="1.0" inkscape:pageopacity="0.0" inkscape:pageshadow="2" inkscape:zoom="16" inkscape:cx="9.2795969" inkscape:cy="2.9720961" inkscape:document-units="px" inkscape:current-layer="layer1" showgrid="true" units="px" inkscape:window-width="1366" inkscape:window-height="715" inkscape:window-x="-8" inkscape:window-y="-8" inkscape:window-maximized="1">
    <inkscape:grid type="xygrid" id="grid3358"/>
  </sodipodi:namedview>
  
  <g inkscape:label="Layer 1" inkscape:groupmode="layer" id="layer1" transform="translate(0,-1036.3622)">
    <path style="color:#000000;font-style:normal;font-variant:normal;font-weight:normal;font-stretch:normal;font-size:medium;line-height:normal;font-family:sans-serif;text-indent:0;text-align:start;text-decoration:none;text-decoration-line:none;text-decoration-style:solid;text-decoration-color:#000000;letter-spacing:normal;word-spacing:normal;text-transform:none;direction:ltr;block-progression:tb;writing-mode:lr-tb;baseline-shift:baseline;text-anchor:start;white-space:normal;clip-rule:nonzero;display:inline;overflow:visible;visibility:visible;opacity:1;isolation:auto;mix-blend-mode:normal;color-interpolation:sRGB;color-interpolation-filters:linearRGB;solid-color:#000000;solid-opacity:1;fill:#000000;fill-opacity:1;fill-rule:nonzero;stroke:none;stroke-width:1;stroke-linecap:butt;stroke-linejoin:miter;stroke-miterlimit:4;stroke-dasharray:none;stroke-dashoffset:0;stroke-opacity:1;color-rendering:auto;image-rendering:auto;shape-rendering:auto;text-rendering:auto;enable-background:accumulate" d="M -0.00390625 0.99609375 L -0.00390625 1.4960938 L -0.00390625 3.9960938 L 0.009765625 3.9960938 L 0.009765625 12.996094 L 2.9960938 12.996094 L 2.9960938 14.009766 L 3.4960938 14.009766 L 5.9960938 14.009766 L 5.9960938 12.996094 L 9.9941406 12.996094 L 9.9941406 14.009766 L 12.994141 14.009766 L 12.994141 12.996094 L 16.003906 12.996094 L 16.003906 1.9960938 L 8.9960938 1.9960938 L 8.9960938 0.99609375 L -0.00390625 0.99609375 z M 0.99609375 1.9960938 L 7.9960938 1.9960938 L 7.9960938 2.9960938 L 0.99609375 2.9960938 L 0.99609375 1.9960938 z M 8.9960938 2.9960938 L 15.003906 2.9960938 L 15.003906 11.996094 L 12.994141 11.996094 L 12.994141 7.5117188 C 12.994141 6.6894187 12.316492 6.0117188 11.494141 6.0117188 L 4.4960938 6.0117188 C 3.6737423 6.0117188 2.9960938 6.6894187 2.9960938 7.5117188 L 2.9960938 11.996094 L 1.0097656 11.996094 L 1.0097656 3.9960938 L 8.9960938 3.9960938 L 8.9960938 2.9960938 z M 4.4960938 7.0117188 L 11.494141 7.0117188 C 11.779789 7.0117188 11.994141 7.2261188 11.994141 7.5117188 L 11.994141 13.009766 L 10.994141 13.009766 L 10.994141 9.0039062 L 4.9960938 9.0039062 L 4.9960938 13.009766 L 3.9960938 13.009766 L 3.9960938 7.5117188 C 3.9960938 7.2261188 4.210445 7.0117188 4.4960938 7.0117188 z M 5.9960938 10.003906 L 9.9941406 10.003906 L 9.9941406 11.996094 L 5.9960938 11.996094 L 5.9960938 10.003906 z " transform="translate(0,1036.3622)" id="rect5106"/>
  </g>

	
	
	<metadata>
		<rdf:RDF xmlns:rdf="http://www.w3.org/1999/02/22-rdf-syntax-ns#" xmlns:rdfs="http://www.w3.org/2000/01/rdf-schema#" xmlns:dc="http://purl.org/dc/elements/1.1/">
			<rdf:Description about="https://iconscout.com/legal#licenses" dc:title="Folder, File, Bunch, Explorer, Fileexplorer, Interface, UI" dc:description="Folder, File, Bunch, Explorer, Fileexplorer, Interface, UI" dc:publisher="Iconscout" dc:date="2016-12-14" dc:format="image/svg+xml" dc:language="en">
				<dc:creator>
					<rdf:Bag>
						<rdf:li>Chamestudio</rdf:li>
					</rdf:Bag>
				</dc:creator>
			</rdf:Description>
		</rdf:RDF>
    </metadata></svg>
