<?xml version="1.0" encoding="UTF-8" standalone="no"?>
<svg xmlns:dc="http://purl.org/dc/elements/1.1/" xmlns:cc="http://creativecommons.org/ns#" xmlns:rdf="http://www.w3.org/1999/02/22-rdf-syntax-ns#" xmlns:svg="http://www.w3.org/2000/svg" xmlns="http://www.w3.org/2000/svg" xmlns:sodipodi="http://sodipodi.sourceforge.net/DTD/sodipodi-0.dtd" xmlns:inkscape="http://www.inkscape.org/namespaces/inkscape" width="16px" height="16px" viewBox="0 0 16 16" id="svg2" version="1.1" inkscape:version="0.91 r13725" sodipodi:docname="175.svg">
  <defs id="defs4">
    <pattern y="0" x="0" height="6" width="6" patternUnits="userSpaceOnUse" id="EMFhbasepattern"/>
    <pattern y="0" x="0" height="6" width="6" patternUnits="userSpaceOnUse" id="EMFhbasepattern-4"/>
    <pattern y="0" x="0" height="6" width="6" patternUnits="userSpaceOnUse" id="EMFhbasepattern-49"/>
  </defs>
  <sodipodi:namedview id="base" pagecolor="#ffffff" bordercolor="#666666" borderopacity="1.0" inkscape:pageopacity="0.0" inkscape:pageshadow="2" inkscape:zoom="11.313709" inkscape:cx="-11.922915" inkscape:cy="10.859091" inkscape:document-units="px" inkscape:current-layer="g4373" showgrid="true" inkscape:window-width="1366" inkscape:window-height="715" inkscape:window-x="-8" inkscape:window-y="-8" inkscape:window-maximized="1" units="px">
    <inkscape:grid type="xygrid" id="grid3360"/>
  </sodipodi:namedview>
  
  <g inkscape:label="Layer 1" inkscape:groupmode="layer" id="layer1" transform="translate(0,-1036.3622)">
    <g transform="translate(-2.5265734,1.0312727)" id="g3877">
      <g transform="translate(1.2943666,-0.33897736)" id="g3808">
        <g transform="matrix(-1,0,0,-1,17.257575,2087.526)" id="g4373">
          <path style="color:#000000;font-style:normal;font-variant:normal;font-weight:normal;font-stretch:normal;font-size:medium;line-height:normal;font-family:sans-serif;text-indent:0;text-align:start;text-decoration:none;text-decoration-line:none;text-decoration-style:solid;text-decoration-color:#000000;letter-spacing:normal;word-spacing:normal;text-transform:none;direction:ltr;block-progression:tb;writing-mode:lr-tb;baseline-shift:baseline;text-anchor:start;white-space:normal;clip-rule:nonzero;display:inline;overflow:visible;visibility:visible;opacity:1;isolation:auto;mix-blend-mode:normal;color-interpolation:sRGB;color-interpolation-filters:linearRGB;solid-color:#000000;solid-opacity:1;fill:#000000;fill-opacity:1;fill-rule:nonzero;stroke:none;stroke-width:1;stroke-linecap:butt;stroke-linejoin:miter;stroke-miterlimit:4;stroke-dasharray:none;stroke-dashoffset:0;stroke-opacity:1;color-rendering:auto;image-rendering:auto;shape-rendering:auto;text-rendering:auto;enable-background:accumulate" d="M -0.00390625 2.9921875 L -0.00390625 3.4921875 L -0.00390625 12.962891 L 16.003906 12.962891 L 16.003906 2.9921875 L -0.00390625 2.9921875 z M 0.99609375 3.9921875 L 3.0039062 3.9921875 L 3.0039062 6.0058594 L 0.99609375 6.0058594 L 0.99609375 3.9921875 z M 4.0039062 3.9921875 L 6.0039062 3.9921875 L 6.0039062 6.0058594 L 4.0039062 6.0058594 L 4.0039062 3.9921875 z M 7.0039062 3.9921875 L 9.0039062 3.9921875 L 9.0039062 6.0058594 L 7.0039062 6.0058594 L 7.0039062 3.9921875 z M 10.003906 3.9921875 L 12.003906 3.9921875 L 12.003906 6.0058594 L 10.003906 6.0058594 L 10.003906 3.9921875 z M 13.003906 3.9921875 L 15.003906 3.9921875 L 15.003906 6.0058594 L 13.003906 6.0058594 L 13.003906 3.9921875 z M 0.99609375 7.0058594 L 3.0039062 7.0058594 L 3.0039062 9.0058594 L 0.99609375 9.0058594 L 0.99609375 7.0058594 z M 4.0039062 7.0058594 L 6.0039062 7.0058594 L 6.0039062 9.0058594 L 4.0039062 9.0058594 L 4.0039062 7.0058594 z M 7.0039062 7.0058594 L 9.0039062 7.0058594 L 9.0039062 9.0058594 L 7.0039062 9.0058594 L 7.0039062 7.0058594 z M 10.003906 7.0058594 L 12.003906 7.0058594 L 12.003906 9.0058594 L 10.003906 9.0058594 L 10.003906 7.0058594 z M 13.003906 7.0058594 L 15.003906 7.0058594 L 15.003906 9.0058594 L 13.003906 9.0058594 L 13.003906 7.0058594 z M 0.99609375 10.005859 L 3.0039062 10.005859 L 3.0039062 11.962891 L 0.99609375 11.962891 L 0.99609375 10.005859 z M 4.0039062 10.005859 L 6.0039062 10.005859 L 6.0039062 11.962891 L 4.0039062 11.962891 L 4.0039062 10.005859 z M 7.0039062 10.005859 L 9.0039062 10.005859 L 9.0039062 11.962891 L 7.0039062 11.962891 L 7.0039062 10.005859 z M 10.003906 10.005859 L 12.003906 10.005859 L 12.003906 11.962891 L 10.003906 11.962891 L 10.003906 10.005859 z M 13.003906 10.005859 L 15.003906 10.005859 L 15.003906 11.962891 L 13.003906 11.962891 L 13.003906 10.005859 z " transform="matrix(-1,0,0,-1,16.025368,1051.8561)" id="rect4276"/>
        </g>
      </g>
    </g>
  </g>

	
	
	<metadata>
		<rdf:RDF xmlns:rdf="http://www.w3.org/1999/02/22-rdf-syntax-ns#" xmlns:rdfs="http://www.w3.org/2000/01/rdf-schema#" xmlns:dc="http://purl.org/dc/elements/1.1/">
			<rdf:Description about="https://iconscout.com/legal#licenses" dc:title="Grid, Tool, Rectangle, Rectangular, Interface, UI" dc:description="Grid, Tool, Rectangle, Rectangular, Interface, UI" dc:publisher="Iconscout" dc:date="2016-12-14" dc:format="image/svg+xml" dc:language="en">
				<dc:creator>
					<rdf:Bag>
						<rdf:li>Chamestudio</rdf:li>
					</rdf:Bag>
				</dc:creator>
			</rdf:Description>
		</rdf:RDF>
    </metadata></svg>
