<?xml version="1.0" encoding="UTF-8" standalone="no"?>
<svg xmlns:dc="http://purl.org/dc/elements/1.1/" xmlns:cc="http://creativecommons.org/ns#" xmlns:rdf="http://www.w3.org/1999/02/22-rdf-syntax-ns#" xmlns:svg="http://www.w3.org/2000/svg" xmlns="http://www.w3.org/2000/svg" xmlns:sodipodi="http://sodipodi.sourceforge.net/DTD/sodipodi-0.dtd" xmlns:inkscape="http://www.inkscape.org/namespaces/inkscape" width="16px" height="16px" viewBox="0 0 16 16" id="svg2" version="1.1" inkscape:version="0.91 r13725" sodipodi:docname="83.svg">
  <defs id="defs4"/>
  <sodipodi:namedview id="base" pagecolor="#ffffff" bordercolor="#666666" borderopacity="1.0" inkscape:pageopacity="0.0" inkscape:pageshadow="2" inkscape:zoom="22.627417" inkscape:cx="-0.046209522" inkscape:cy="5.8466706" inkscape:document-units="px" inkscape:current-layer="layer1" showgrid="true" units="px" inkscape:window-width="1366" inkscape:window-height="715" inkscape:window-x="-8" inkscape:window-y="-8" inkscape:window-maximized="1">
    <inkscape:grid type="xygrid" id="grid3358"/>
  </sodipodi:namedview>
  
  <g inkscape:label="Layer 1" inkscape:groupmode="layer" id="layer1" transform="translate(0,-1036.3622)">
    <path style="color:#000000;font-style:normal;font-variant:normal;font-weight:normal;font-stretch:normal;font-size:medium;line-height:normal;font-family:sans-serif;text-indent:0;text-align:start;text-decoration:none;text-decoration-line:none;text-decoration-style:solid;text-decoration-color:#000000;letter-spacing:normal;word-spacing:normal;text-transform:none;direction:ltr;block-progression:tb;writing-mode:lr-tb;baseline-shift:baseline;text-anchor:start;white-space:normal;clip-rule:nonzero;display:inline;overflow:visible;visibility:visible;opacity:1;isolation:auto;mix-blend-mode:normal;color-interpolation:sRGB;color-interpolation-filters:linearRGB;solid-color:#000000;solid-opacity:1;fill:#000000;fill-opacity:1;fill-rule:nonzero;stroke:none;stroke-width:1;stroke-linecap:butt;stroke-linejoin:miter;stroke-miterlimit:4;stroke-dasharray:none;stroke-dashoffset:0;stroke-opacity:1;color-rendering:auto;image-rendering:auto;shape-rendering:auto;text-rendering:auto;enable-background:accumulate" d="M 6.5 2.0058594 C 5.6776486 2.0058594 5 2.6834594 5 3.5058594 L 5 7.0019531 L 4.5097656 7.0019531 C 3.6874142 7.0019531 3.0170504 7.6810469 3.0097656 8.4980469 L 2.9980469 9.5566406 C 2.9981406 11.985341 5.0194817 13.992188 7.4980469 13.992188 C 9.9766124 13.992188 11.998811 11.988278 11.996094 9.5800781 L 11.992188 6.9902344 L 8 6.9902344 L 8 3.5058594 C 8 2.6834594 7.3223514 2.0058594 6.5 2.0058594 z M 6.5 3.0058594 C 6.7856486 3.0058594 7 3.2201594 7 3.5058594 L 7 7.4980469 L 7.0019531 7.4980469 L 7.0019531 7.9941406 L 10.994141 7.9941406 L 10.996094 9.5839844 C 10.998194 11.430284 9.43776 12.996094 7.4980469 12.996094 C 5.5583342 12.996094 3.9981192 11.434247 3.9980469 9.5605469 L 4.0097656 8.5078125 C 4.0123656 8.2168125 4.224117 8.0019531 4.5097656 8.0019531 L 5 8.0019531 L 5 10 L 6 10 L 6 3.5058594 C 6 3.2201594 6.2143514 3.0058594 6.5 3.0058594 z " transform="translate(0,1036.3622)" id="path4919"/>
  </g>

	
	
	<metadata>
		<rdf:RDF xmlns:rdf="http://www.w3.org/1999/02/22-rdf-syntax-ns#" xmlns:rdfs="http://www.w3.org/2000/01/rdf-schema#" xmlns:dc="http://purl.org/dc/elements/1.1/">
			<rdf:Description about="https://iconscout.com/legal#licenses" dc:title="Hand, Touch, Gesture, Fingure, Click, Up, Interface, UI" dc:description="Hand, Touch, Gesture, Fingure, Click, Up, Interface, UI" dc:publisher="Iconscout" dc:date="2016-12-14" dc:format="image/svg+xml" dc:language="en">
				<dc:creator>
					<rdf:Bag>
						<rdf:li>Chamestudio</rdf:li>
					</rdf:Bag>
				</dc:creator>
			</rdf:Description>
		</rdf:RDF>
    </metadata></svg>
