<?xml version="1.0" encoding="UTF-8" standalone="no"?>
<svg xmlns:dc="http://purl.org/dc/elements/1.1/" xmlns:cc="http://creativecommons.org/ns#" xmlns:rdf="http://www.w3.org/1999/02/22-rdf-syntax-ns#" xmlns:svg="http://www.w3.org/2000/svg" xmlns="http://www.w3.org/2000/svg" xmlns:sodipodi="http://sodipodi.sourceforge.net/DTD/sodipodi-0.dtd" xmlns:inkscape="http://www.inkscape.org/namespaces/inkscape" width="16px" height="16px" viewBox="0 0 16 16" id="svg2" version="1.1" inkscape:version="0.91 r13725" sodipodi:docname="62.svg">
  <defs id="defs4">
    <pattern y="0" x="0" height="6" width="6" patternUnits="userSpaceOnUse" id="EMFhbasepattern"/>
  </defs>
  <sodipodi:namedview id="base" pagecolor="#ffffff" bordercolor="#666666" borderopacity="1.0" inkscape:pageopacity="0.0" inkscape:pageshadow="2" inkscape:zoom="22.627417" inkscape:cx="10.155562" inkscape:cy="7.062443" inkscape:document-units="px" inkscape:current-layer="g4906" showgrid="true" units="px" inkscape:window-width="1366" inkscape:window-height="715" inkscape:window-x="-8" inkscape:window-y="-8" inkscape:window-maximized="1">
    <inkscape:grid type="xygrid" id="grid3352"/>
  </sodipodi:namedview>
  
  <g inkscape:label="Layer 1" inkscape:groupmode="layer" id="layer1" transform="translate(0,-1036.3622)">
    <g id="g4906" transform="translate(1.0146668,-0.00305963)">
      <path style="color:#000000;font-style:normal;font-variant:normal;font-weight:normal;font-stretch:normal;font-size:medium;line-height:normal;font-family:sans-serif;text-indent:0;text-align:start;text-decoration:none;text-decoration-line:none;text-decoration-style:solid;text-decoration-color:#000000;letter-spacing:normal;word-spacing:normal;text-transform:none;direction:ltr;block-progression:tb;writing-mode:lr-tb;baseline-shift:baseline;text-anchor:start;white-space:normal;clip-rule:nonzero;display:inline;overflow:visible;visibility:visible;opacity:1;isolation:auto;mix-blend-mode:normal;color-interpolation:sRGB;color-interpolation-filters:linearRGB;solid-color:#000000;solid-opacity:1;fill:#000000;fill-opacity:1;fill-rule:nonzero;stroke:none;stroke-width:0.99999994;stroke-linecap:butt;stroke-linejoin:miter;stroke-miterlimit:4;stroke-dasharray:none;stroke-dashoffset:0;stroke-opacity:1;color-rendering:auto;image-rendering:auto;shape-rendering:auto;text-rendering:auto;enable-background:accumulate" d="M 0 3.0058594 L 0 3.5058594 L 0 12.005859 L 16 12.005859 L 16 3.0058594 L 0 3.0058594 z M 1 4.0058594 L 15 4.0058594 L 15 11.005859 L 1 11.005859 L 1 4.0058594 z M 2 5.0058594 L 2 6.0058594 L 3 6.0058594 L 3 5.0058594 L 2 5.0058594 z M 3.9980469 5.0058594 L 3.9980469 6.0058594 L 4.9980469 6.0058594 L 4.9980469 5.0058594 L 3.9980469 5.0058594 z M 6.015625 5.0058594 L 6.015625 6.0058594 L 7.015625 6.0058594 L 7.015625 5.0058594 L 6.015625 5.0058594 z M 8.0136719 5.0058594 L 8.0136719 6.0058594 L 9.0136719 6.0058594 L 9.0136719 5.0058594 L 8.0136719 5.0058594 z M 9.9921875 5.0058594 L 9.9921875 6.0058594 L 10.992188 6.0058594 L 10.992188 5.0058594 L 9.9921875 5.0058594 z M 11.990234 5.0058594 L 11.990234 6.0058594 L 13.990234 6.0058594 L 13.990234 5.0058594 L 11.990234 5.0058594 z M 2 7.0117188 L 2 8.0117188 L 3 8.0117188 L 3 7.0117188 L 2 7.0117188 z M 3.9980469 7.0117188 L 3.9980469 8.0117188 L 4.9980469 8.0117188 L 4.9980469 7.0117188 L 3.9980469 7.0117188 z M 6.015625 7.0117188 L 6.015625 8.0117188 L 7.015625 8.0117188 L 7.015625 7.0117188 L 6.015625 7.0117188 z M 8.0136719 7.0117188 L 8.0136719 8.0117188 L 9.0136719 8.0117188 L 9.0136719 7.0117188 L 8.0136719 7.0117188 z M 9.9960938 7.0117188 L 9.9960938 8.0117188 L 10.996094 8.0117188 L 10.996094 7.0117188 L 9.9960938 7.0117188 z M 11.996094 7.0117188 L 11.996094 8.0117188 L 12.996094 8.0117188 L 12.996094 7.0117188 L 11.996094 7.0117188 z M 14 8.9980469 L 13 9.0039062 L 12 9.0039062 L 12 10.003906 L 13 10.003906 L 13.21875 10.003906 L 14 10.003906 L 14 8.9980469 z M 2 9.0058594 L 2 10.005859 L 3 10.005859 L 3 9.0058594 L 2 9.0058594 z M 3.9980469 9.0097656 L 3.9980469 10.009766 L 9.0058594 10.009766 L 9.0058594 9.0097656 L 3.9980469 9.0097656 z M 10.003906 9.0097656 L 10.003906 10.009766 L 11.003906 10.009766 L 11.003906 9.0097656 L 10.003906 9.0097656 z " transform="translate(-1.0146668,1036.3653)" id="rect5134"/>
    </g>
  </g>

	
	
	<metadata>
		<rdf:RDF xmlns:rdf="http://www.w3.org/1999/02/22-rdf-syntax-ns#" xmlns:rdfs="http://www.w3.org/2000/01/rdf-schema#" xmlns:dc="http://purl.org/dc/elements/1.1/">
			<rdf:Description about="https://iconscout.com/legal#licenses" dc:title="Keyboard, Attach, Type, Device, Peripheral, Line, Outline" dc:description="Keyboard, Attach, Type, Device, Peripheral, Line, Outline" dc:publisher="Iconscout" dc:date="2016-12-14" dc:format="image/svg+xml" dc:language="en">
				<dc:creator>
					<rdf:Bag>
						<rdf:li>Chamestudio</rdf:li>
					</rdf:Bag>
				</dc:creator>
			</rdf:Description>
		</rdf:RDF>
    </metadata></svg>
