<?xml version="1.0" encoding="UTF-8" standalone="no"?>
<svg xmlns:dc="http://purl.org/dc/elements/1.1/" xmlns:cc="http://creativecommons.org/ns#" xmlns:rdf="http://www.w3.org/1999/02/22-rdf-syntax-ns#" xmlns:svg="http://www.w3.org/2000/svg" xmlns="http://www.w3.org/2000/svg" xmlns:sodipodi="http://sodipodi.sourceforge.net/DTD/sodipodi-0.dtd" xmlns:inkscape="http://www.inkscape.org/namespaces/inkscape" width="16px" height="16px" viewBox="0 0 16 16" id="svg2" version="1.1" inkscape:version="0.91 r13725" sodipodi:docname="99.svg">
  <defs id="defs4"/>
  <sodipodi:namedview id="base" pagecolor="#ffffff" bordercolor="#666666" borderopacity="1.0" inkscape:pageopacity="0.0" inkscape:pageshadow="2" inkscape:zoom="16" inkscape:cx="7.4169515" inkscape:cy="6.1474543" inkscape:document-units="px" inkscape:current-layer="layer1" showgrid="true" units="px" inkscape:window-width="1366" inkscape:window-height="715" inkscape:window-x="-8" inkscape:window-y="-8" inkscape:window-maximized="1">
    <inkscape:grid type="xygrid" id="grid3358"/>
  </sodipodi:namedview>
  
  <g inkscape:label="Layer 1" inkscape:groupmode="layer" id="layer1" transform="translate(0,-1036.3622)">
    <path style="color:#000000;font-style:normal;font-variant:normal;font-weight:normal;font-stretch:normal;font-size:medium;line-height:normal;font-family:sans-serif;text-indent:0;text-align:start;text-decoration:none;text-decoration-line:none;text-decoration-style:solid;text-decoration-color:#000000;letter-spacing:normal;word-spacing:normal;text-transform:none;direction:ltr;block-progression:tb;writing-mode:lr-tb;baseline-shift:baseline;text-anchor:start;white-space:normal;clip-rule:nonzero;display:inline;overflow:visible;visibility:visible;opacity:1;isolation:auto;mix-blend-mode:normal;color-interpolation:sRGB;color-interpolation-filters:linearRGB;solid-color:#000000;solid-opacity:1;fill:#000000;fill-opacity:1;fill-rule:nonzero;stroke:none;stroke-width:1;stroke-linecap:round;stroke-linejoin:round;stroke-miterlimit:4;stroke-dasharray:none;stroke-dashoffset:0;stroke-opacity:1;color-rendering:auto;image-rendering:auto;shape-rendering:auto;text-rendering:auto;enable-background:accumulate" d="M 7.9980469 1.0058594 C 6.1178028 1.0058594 4.4070482 1.4709125 3.1328125 2.2578125 C 1.8585768 3.0448125 0.99023438 4.1969906 0.99023438 5.5253906 C 0.99023438 6.4417127 1.4233393 7.2744032 2.0957031 7.9570312 C 2.034219 8.1201302 1.9960937 8.2950874 1.9960938 8.4785156 C 1.9960936 9.3010156 2.6735888 9.9785156 3.4960938 9.9785156 C 3.6982644 9.9785156 3.8916185 9.9352853 4.0683594 9.8613281 C 4.0455592 10.10674 4.0547903 10.348468 4.1152344 10.564453 C 4.279424 11.151153 4.6036344 11.630434 4.7851562 12.052734 C 4.9666783 12.475034 5.0275518 12.748963 4.8359375 13.101562 C 4.6443235 13.454162 4.0838293 13.959278 2.8066406 14.517578 L 3.2070312 15.433594 C 4.5809482 14.833094 5.3468754 14.257278 5.7148438 13.580078 C 6.0828121 12.902978 5.9363369 12.196203 5.7050781 11.658203 C 5.5652904 11.332995 5.4183657 11.045878 5.2890625 10.78125 C 5.5034386 10.900082 5.7455582 10.974609 6.0058594 10.974609 C 6.6341617 10.974609 7.1747709 10.576754 7.3964844 10.023438 C 7.5958388 10.034121 7.7947301 10.046875 7.9980469 10.046875 C 8.3436285 10.046875 8.6800435 10.024684 9.0117188 9.9941406 L 9.015625 12.986328 L 12.011719 10.412109 L 15.849609 10.191406 L 13.882812 7.96875 C 14.564303 7.2819225 15.003906 6.4480014 15.003906 5.5253906 C 15.003906 4.1969906 14.135564 3.0448125 12.861328 2.2578125 C 11.587092 1.4709125 9.878291 1.0058594 7.9980469 1.0058594 z M 7.9980469 2.0058594 C 9.7114017 2.0058594 11.255179 2.441875 12.335938 3.109375 C 13.416695 3.776875 14.003906 4.6344906 14.003906 5.5253906 C 14.003906 6.1256277 13.728127 6.7008257 13.222656 7.2246094 L 9.0019531 2.4550781 L 9.0039062 3.7773438 L 9.0097656 8.9765625 C 8.6778216 9.0105304 8.3465448 9.046875 7.9980469 9.046875 C 7.805233 9.046875 7.6164871 9.0355599 7.4277344 9.0253906 C 7.2340544 8.4205534 6.6712378 7.9746094 6.0058594 7.9746094 C 5.6127922 7.9746094 5.2550453 8.1314758 4.9863281 8.3828125 C 4.9353979 7.6049012 4.2858915 6.9785156 3.4960938 6.9785156 C 3.2208914 6.9785156 2.9649762 7.057706 2.7421875 7.1894531 C 2.2559461 6.6733004 1.9902344 6.1135442 1.9902344 5.5253906 C 1.9902344 4.6344906 2.5774454 3.776875 3.6582031 3.109375 C 4.7389609 2.441875 6.2846921 2.0058594 7.9980469 2.0058594 z M 10.005859 5.0957031 L 12.78125 8.2324219 A 0.50005 0.50005 0 0 0 12.855469 8.3183594 L 13.734375 9.3105469 L 11.615234 9.4335938 L 10.011719 10.810547 L 10.005859 5.0957031 z M 3.4960938 7.9785156 C 3.7781583 7.9785156 3.9960938 8.1965156 3.9960938 8.4785156 C 3.9960938 8.7606156 3.7781583 8.9785156 3.4960938 8.9785156 C 3.2140291 8.9785156 2.9960937 8.7606156 2.9960938 8.4785156 C 2.9960938 8.1965156 3.2140291 7.9785156 3.4960938 7.9785156 z M 6.0058594 8.9746094 C 6.2879241 8.9746094 6.5058594 9.1926094 6.5058594 9.4746094 C 6.5058594 9.7567094 6.2879241 9.9746094 6.0058594 9.9746094 C 5.7237947 9.9746094 5.5058594 9.7567094 5.5058594 9.4746094 C 5.5058594 9.1926094 5.7237947 8.9746094 6.0058594 8.9746094 z " transform="translate(0,1036.3622)" id="path3916"/>
  </g>

	
	
	<metadata>
		<rdf:RDF xmlns:rdf="http://www.w3.org/1999/02/22-rdf-syntax-ns#" xmlns:rdfs="http://www.w3.org/2000/01/rdf-schema#" xmlns:dc="http://purl.org/dc/elements/1.1/">
			<rdf:Description about="https://iconscout.com/legal#licenses" dc:title="Lasso, Tool, Select, Random, Interface, UI" dc:description="Lasso, Tool, Select, Random, Interface, UI" dc:publisher="Iconscout" dc:date="2016-12-14" dc:format="image/svg+xml" dc:language="en">
				<dc:creator>
					<rdf:Bag>
						<rdf:li>Chamestudio</rdf:li>
					</rdf:Bag>
				</dc:creator>
			</rdf:Description>
		</rdf:RDF>
    </metadata></svg>
