<?xml version="1.0" encoding="UTF-8" standalone="no"?>
<svg xmlns:dc="http://purl.org/dc/elements/1.1/" xmlns:cc="http://creativecommons.org/ns#" xmlns:rdf="http://www.w3.org/1999/02/22-rdf-syntax-ns#" xmlns:svg="http://www.w3.org/2000/svg" xmlns="http://www.w3.org/2000/svg" xmlns:sodipodi="http://sodipodi.sourceforge.net/DTD/sodipodi-0.dtd" xmlns:inkscape="http://www.inkscape.org/namespaces/inkscape" width="16px" height="16px" viewBox="0 0 16 16" id="svg2" version="1.1" inkscape:version="0.91 r13725" sodipodi:docname="111.svg">
  <defs id="defs4"/>
  <sodipodi:namedview id="base" pagecolor="#ffffff" bordercolor="#666666" borderopacity="1.0" inkscape:pageopacity="0.0" inkscape:pageshadow="2" inkscape:zoom="22.627417" inkscape:cx="17.117358" inkscape:cy="8.9468108" inkscape:document-units="px" inkscape:current-layer="g5272" showgrid="true" units="px" inkscape:window-width="1366" inkscape:window-height="715" inkscape:window-x="-8" inkscape:window-y="-8" inkscape:window-maximized="1">
    <inkscape:grid type="xygrid" id="grid3358"/>
  </sodipodi:namedview>
  
  <g inkscape:label="Layer 1" inkscape:groupmode="layer" id="layer1" transform="translate(0,-1036.3622)">
    <g id="g5550" transform="translate(0.50449022,-1.00135)">
      <g id="g5272" transform="translate(-0.00329022,0.9816172)">
        <path style="color:#000000;font-style:normal;font-variant:normal;font-weight:normal;font-stretch:normal;font-size:medium;line-height:normal;font-family:sans-serif;text-indent:0;text-align:start;text-decoration:none;text-decoration-line:none;text-decoration-style:solid;text-decoration-color:#000000;letter-spacing:normal;word-spacing:normal;text-transform:none;direction:ltr;block-progression:tb;writing-mode:lr-tb;baseline-shift:baseline;text-anchor:start;white-space:normal;clip-rule:nonzero;display:inline;overflow:visible;visibility:visible;opacity:1;isolation:auto;mix-blend-mode:normal;color-interpolation:sRGB;color-interpolation-filters:linearRGB;solid-color:#000000;solid-opacity:1;fill:#000000;fill-opacity:1;fill-rule:nonzero;stroke:none;stroke-width:1;stroke-linecap:round;stroke-linejoin:miter;stroke-miterlimit:4;stroke-dasharray:none;stroke-dashoffset:0;stroke-opacity:1;color-rendering:auto;image-rendering:auto;shape-rendering:auto;text-rendering:auto;enable-background:accumulate" d="M 4 1 L 4 9.1855469 C 2.8394342 9.6005213 2 10.70083 2 12 C 2 13.6509 3.349068 15 5 15 C 6.299195 15 7.399486 14.160559 7.8144531 13 L 14 13 L 14 2.8203125 L 12.238281 1 L 4 1 z M 5 2 L 11.814453 2 L 13 3.2246094 L 13 12 L 8 12 C 8 10.3491 6.6509319 9 5 9 L 5 2 z M 5 10 C 5.3719523 10 5.7125172 10.108742 6.0097656 10.283203 L 3.28125 13.011719 C 3.1068821 12.714528 3 12.371847 3 12 C 3 10.8895 3.8895082 10 5 10 z M 6.71875 10.988281 C 6.8936557 11.2858 7 11.627536 7 12 C 7 13.1105 6.1104918 14 5 14 C 4.6281562 14 4.2854721 13.893117 3.9882812 13.71875 L 6.71875 10.988281 z " transform="translate(-0.5012,1036.3819)" id="rect4983"/>
      </g>
    </g>
  </g>

	
	
	<metadata>
		<rdf:RDF xmlns:rdf="http://www.w3.org/1999/02/22-rdf-syntax-ns#" xmlns:rdfs="http://www.w3.org/2000/01/rdf-schema#" xmlns:dc="http://purl.org/dc/elements/1.1/">
			<rdf:Description about="https://iconscout.com/legal#licenses" dc:title="Layer, Block, File, Doc, Banned, Interface, UI" dc:description="Layer, Block, File, Doc, Banned, Interface, UI" dc:publisher="Iconscout" dc:date="2016-12-14" dc:format="image/svg+xml" dc:language="en">
				<dc:creator>
					<rdf:Bag>
						<rdf:li>Chamestudio</rdf:li>
					</rdf:Bag>
				</dc:creator>
			</rdf:Description>
		</rdf:RDF>
    </metadata></svg>
