<?xml version="1.0" encoding="UTF-8" standalone="no"?>
<svg xmlns:dc="http://purl.org/dc/elements/1.1/" xmlns:cc="http://creativecommons.org/ns#" xmlns:rdf="http://www.w3.org/1999/02/22-rdf-syntax-ns#" xmlns:svg="http://www.w3.org/2000/svg" xmlns="http://www.w3.org/2000/svg" xmlns:sodipodi="http://sodipodi.sourceforge.net/DTD/sodipodi-0.dtd" xmlns:inkscape="http://www.inkscape.org/namespaces/inkscape" width="16px" height="16px" viewBox="0 0 16 16" id="svg2" version="1.1" inkscape:version="0.91 r13725" sodipodi:docname="61.svg">
  <defs id="defs4">
    <pattern y="0" x="0" height="6" width="6" patternUnits="userSpaceOnUse" id="EMFhbasepattern"/>
  </defs>
  <sodipodi:namedview id="base" pagecolor="#ffffff" bordercolor="#666666" borderopacity="1.0" inkscape:pageopacity="0.0" inkscape:pageshadow="2" inkscape:zoom="16" inkscape:cx="10.993285" inkscape:cy="2.3375801" inkscape:document-units="px" inkscape:current-layer="g4906" showgrid="true" units="px" inkscape:window-width="1366" inkscape:window-height="715" inkscape:window-x="-8" inkscape:window-y="-8" inkscape:window-maximized="1">
    <inkscape:grid type="xygrid" id="grid3352"/>
  </sodipodi:namedview>
  
  <g inkscape:label="Layer 1" inkscape:groupmode="layer" id="layer1" transform="translate(0,-1036.3622)">
    <g id="g4906" transform="translate(1.0146668,-0.00305963)">
      <path style="color:#000000;font-style:normal;font-variant:normal;font-weight:normal;font-stretch:normal;font-size:medium;line-height:normal;font-family:sans-serif;text-indent:0;text-align:start;text-decoration:none;text-decoration-line:none;text-decoration-style:solid;text-decoration-color:#000000;letter-spacing:normal;word-spacing:normal;text-transform:none;direction:ltr;block-progression:tb;writing-mode:lr-tb;baseline-shift:baseline;text-anchor:start;white-space:normal;clip-rule:nonzero;display:inline;overflow:visible;visibility:visible;opacity:1;isolation:auto;mix-blend-mode:normal;color-interpolation:sRGB;color-interpolation-filters:linearRGB;solid-color:#000000;solid-opacity:1;fill:#000000;fill-opacity:1;fill-rule:nonzero;stroke:none;stroke-width:1.00000012;stroke-linecap:butt;stroke-linejoin:miter;stroke-miterlimit:4;stroke-dasharray:none;stroke-dashoffset:0;stroke-opacity:1;color-rendering:auto;image-rendering:auto;shape-rendering:auto;text-rendering:auto;enable-background:accumulate" d="M -0.0078125 1.015625 L -0.0078125 10.015625 L 5.9921875 10.015625 L 5.9921875 11.984375 L 3.9921875 11.984375 L 3.9921875 12.984375 L 7.9921875 12.984375 L 7.9921875 11.984375 L 6.9921875 11.984375 L 6.9921875 10.015625 L 7.9921875 10.015625 L 7.9921875 9.015625 L 0.9921875 9.015625 L 0.9921875 2.015625 L 11.992188 2.015625 L 11.992188 3 L 12.992188 3 L 12.992188 1.015625 L -0.0078125 1.015625 z M 10.029297 3.9941406 C 9.4805872 3.9941406 9.0214844 4.4512 9.0214844 5 L 9.0214844 6 L 9.0097656 6 L 9.0097656 6.5 L 9.0097656 12 L 9.0214844 12 L 9.0214844 13.978516 C 9.0214844 14.527316 9.4804683 14.984375 10.029297 14.984375 L 14.992188 14.984375 C 15.541016 14.984375 15.998047 14.527316 15.998047 13.978516 L 15.998047 12 L 16.009766 12 L 16.009766 6 L 15.998047 6 L 15.998047 5 C 15.998047 4.4512 15.540898 3.9941406 14.992188 3.9941406 L 10.029297 3.9941406 z M 10.029297 4.9941406 L 14.992188 4.9941406 C 15.004397 4.9941406 14.998047 4.9839063 14.998047 5.0039062 L 14.998047 6 L 10.021484 6 L 10.021484 5.0039062 C 10.021484 4.9919063 10.017087 4.9941406 10.029297 4.9941406 z M 10.021484 7 L 14.998047 7 L 14.998047 11 L 10.021484 11 L 10.021484 7 z M 10.021484 12 L 14.998047 12 L 14.998047 13.982422 C 14.998047 13.994422 15.004288 13.992188 14.992188 13.992188 L 10.029297 13.992188 C 10.017208 13.992188 10.021484 14.002422 10.021484 13.982422 L 10.021484 12 z M 12.490234 12.5 A 0.5 0.5 0 0 0 11.990234 13 A 0.5 0.5 0 0 0 12.490234 13.5 A 0.5 0.5 0 0 0 12.990234 13 A 0.5 0.5 0 0 0 12.490234 12.5 z " transform="translate(-1.0146668,1036.3653)" id="rect5262"/>
    </g>
  </g>

	
	
	<metadata>
		<rdf:RDF xmlns:rdf="http://www.w3.org/1999/02/22-rdf-syntax-ns#" xmlns:rdfs="http://www.w3.org/2000/01/rdf-schema#" xmlns:dc="http://purl.org/dc/elements/1.1/">
			<rdf:Description about="https://iconscout.com/legal#licenses" dc:title="Lcd, Screen, Monitor, Smartphone, Combo, Responsive, Flexible" dc:description="Lcd, Screen, Monitor, Smartphone, Combo, Responsive, Flexible" dc:publisher="Iconscout" dc:date="2016-12-14" dc:format="image/svg+xml" dc:language="en">
				<dc:creator>
					<rdf:Bag>
						<rdf:li>Chamestudio</rdf:li>
					</rdf:Bag>
				</dc:creator>
			</rdf:Description>
		</rdf:RDF>
    </metadata></svg>
