<?xml version="1.0" encoding="UTF-8" standalone="no"?>
<svg xmlns:dc="http://purl.org/dc/elements/1.1/" xmlns:cc="http://creativecommons.org/ns#" xmlns:rdf="http://www.w3.org/1999/02/22-rdf-syntax-ns#" xmlns:svg="http://www.w3.org/2000/svg" xmlns="http://www.w3.org/2000/svg" xmlns:sodipodi="http://sodipodi.sourceforge.net/DTD/sodipodi-0.dtd" xmlns:inkscape="http://www.inkscape.org/namespaces/inkscape" width="16px" height="16px" viewBox="0 0 16 16" id="svg2" version="1.1" inkscape:version="0.91 r13725" sodipodi:docname="64.svg">
  <defs id="defs4">
    <pattern y="0" x="0" height="6" width="6" patternUnits="userSpaceOnUse" id="EMFhbasepattern"/>
  </defs>
  <sodipodi:namedview id="base" pagecolor="#ffffff" bordercolor="#666666" borderopacity="1.0" inkscape:pageopacity="0.0" inkscape:pageshadow="2" inkscape:zoom="22.627417" inkscape:cx="-0.96460555" inkscape:cy="8.45977" inkscape:document-units="px" inkscape:current-layer="g6020" showgrid="true" units="px" inkscape:window-width="1366" inkscape:window-height="715" inkscape:window-x="-8" inkscape:window-y="-8" inkscape:window-maximized="1">
    <inkscape:grid type="xygrid" id="grid3352"/>
  </sodipodi:namedview>
  
  <g inkscape:label="Layer 1" inkscape:groupmode="layer" id="layer1" transform="translate(0,-1036.3622)">
    <g id="g4906" transform="translate(1.0146668,-0.00305963)">
      <g transform="translate(-1.0281541,1.0030596)" id="g6020">
        <path style="color:#000000;font-style:normal;font-variant:normal;font-weight:normal;font-stretch:normal;font-size:medium;line-height:normal;font-family:sans-serif;text-indent:0;text-align:start;text-decoration:none;text-decoration-line:none;text-decoration-style:solid;text-decoration-color:#000000;letter-spacing:normal;word-spacing:normal;text-transform:none;direction:ltr;block-progression:tb;writing-mode:lr-tb;baseline-shift:baseline;text-anchor:start;white-space:normal;clip-rule:nonzero;display:inline;overflow:visible;visibility:visible;opacity:1;isolation:auto;mix-blend-mode:normal;color-interpolation:sRGB;color-interpolation-filters:linearRGB;solid-color:#000000;solid-opacity:1;fill:#000000;fill-opacity:1;fill-rule:nonzero;stroke:none;stroke-width:1.00000012;stroke-linecap:butt;stroke-linejoin:miter;stroke-miterlimit:4;stroke-dasharray:none;stroke-dashoffset:0;stroke-opacity:1;color-rendering:auto;image-rendering:auto;shape-rendering:auto;text-rendering:auto;enable-background:accumulate" d="M 13.708984 1.0097656 L 13.708984 1.0117188 C 13.376971 1.0117188 13.045095 1.1366188 12.794922 1.3867188 L 8.2089844 5.9707031 C 8.2023045 5.9773859 8.1979172 5.9853824 8.1914062 5.9921875 C 8.1736079 5.9877184 8.1585804 5.9766531 8.140625 5.9726562 L 8.140625 5.9746094 C 7.7906662 5.8966094 7.4118419 5.9077812 7.0351562 6.0507812 L 6.8320312 6.1269531 L 6.8125 6.1738281 C 6.2649847 6.47171 5.9928683 6.9506962 5.8027344 7.3457031 C 5.5867076 7.7945031 5.395974 8.1999406 4.7128906 8.6816406 L 4.0195312 9.171875 L 4.7851562 9.5410156 C 4.7851562 9.5410156 6.1050556 10.213491 7.4042969 10.212891 C 8.0499798 10.212591 8.6293868 10.036294 9.0664062 9.6835938 C 9.5034257 9.3307938 9.7751789 8.8033906 9.8378906 8.2128906 C 9.8468418 8.1286031 9.8328824 8.0476908 9.8300781 7.9648438 C 9.9035141 7.91651 9.9732121 7.8607588 10.037109 7.796875 L 14.623047 3.2128906 C 15.123386 2.7124906 15.123398 1.8851656 14.623047 1.3847656 C 14.372872 1.1346656 14.040997 1.0097656 13.708984 1.0097656 z M 13.708984 2.0019531 C 13.782291 2.0019531 13.855595 2.0333 13.916016 2.09375 C 14.036858 2.21455 14.036858 2.3870125 13.916016 2.5078125 L 9.4902344 6.9316406 C 9.3815014 6.7688546 9.256238 6.6168327 9.109375 6.484375 L 13.501953 2.09375 C 13.562371 2.0333 13.635678 2.0019531 13.708984 2.0019531 z M 1.0019531 3.0214844 L 1.0019531 12.021484 L 7.0019531 12.021484 L 7.0019531 13.990234 L 5.0019531 13.990234 L 5.0019531 14.990234 L 7.0019531 14.990234 L 7.5019531 14.990234 L 10.001953 14.990234 L 10.001953 13.990234 L 8.0019531 13.990234 L 8.0019531 12.021484 L 14.001953 12.021484 L 14.001953 6.0058594 L 13.001953 6.0058594 L 13.001953 11.021484 L 2.0019531 11.021484 L 2.0019531 4.0214844 L 9.0019531 4.0214844 L 9.0019531 3.0214844 L 1.0019531 3.0214844 z M 7.671875 6.9238281 C 7.9468801 6.9044922 8.19738 7.0117937 8.4160156 7.1992188 C 8.7075297 7.4493187 8.872393 7.8377219 8.84375 8.1074219 C 8.805072 8.4716219 8.6653652 8.7202969 8.4375 8.9042969 C 8.2096348 9.0881969 7.8716224 9.2126906 7.4042969 9.2128906 C 6.748396 9.2131906 6.2818515 8.9758937 5.8574219 8.8085938 C 6.1593719 8.4454937 6.5708474 8.0540969 6.703125 7.7792969 C 6.9242745 7.3197969 6.9662008 7.1466281 7.3886719 6.9863281 C 7.4853622 6.9496281 7.5802066 6.9302734 7.671875 6.9238281 z " transform="translate(0.0134873,1035.3622)" id="path4760"/>
      </g>
    </g>
  </g>

	
	
	<metadata>
		<rdf:RDF xmlns:rdf="http://www.w3.org/1999/02/22-rdf-syntax-ns#" xmlns:rdfs="http://www.w3.org/2000/01/rdf-schema#" xmlns:dc="http://purl.org/dc/elements/1.1/">
			<rdf:Description about="https://iconscout.com/legal#licenses" dc:title="Lcd, Brush, Paint, Drawing, Monitor, Graphic, Interface, UI" dc:description="Lcd, Brush, Paint, Drawing, Monitor, Graphic, Interface, UI" dc:publisher="Iconscout" dc:date="2016-12-14" dc:format="image/svg+xml" dc:language="en">
				<dc:creator>
					<rdf:Bag>
						<rdf:li>Chamestudio</rdf:li>
					</rdf:Bag>
				</dc:creator>
			</rdf:Description>
		</rdf:RDF>
    </metadata></svg>
