<?xml version="1.0" encoding="utf-8"?>
<!-- Generator: Adobe Illustrator 21.1.0, SVG Export Plug-In . SVG Version: 6.00 Build 0)  -->
<svg version="1.1" id="Layer_1" xmlns="http://www.w3.org/2000/svg" xmlns:xlink="http://www.w3.org/1999/xlink" x="0px" y="0px"
	 viewBox="0 0 235 108.8" style="enable-background:new 0 0 235 108.8;" xml:space="preserve">
<style type="text/css">
	.st0{enable-background:new    ;}
	.st1{fill:none;stroke:#000000;stroke-width:0.5669;stroke-miterlimit:22.9256;}
	.st2{fill:url(#SVGID_1_);stroke:#F6AF43;stroke-width:0.25;stroke-miterlimit:22.9256;}
	.st3{fill:none;stroke:#202020;stroke-width:0.25;stroke-miterlimit:22.9256;}
</style>
<text transform="matrix(1 0 0 1 643.4395 269.0348)" style="font-family:'ArialMT'; font-size:483.7779px;">D</text>
<path class="st1" d="M-342-165.6c-13.8,7.7-54.4,32.7-67.7,33.6c-26.8,1.8-49.2-24.8-66.4-41.1c-15.4-14.7-30.6-19.5-51.4-22.1
	c-15.5-1.9-11.1,5.5-1.8,11.6s-10.6-3.5-14.9-9.9c-9-13.5,16.9-23.1,23-38.6c5.4-13.8-27.5,14.1-27.7,14.2
	c2.3-7.1,21.7-22.1,29.1-25.5c18.8-8.5,34.7,8.6,36.4,2.3c1.8-6.9-9.5-14.2-3.6-29.1c11.9,6.4,37.6,32.2,49.1,42.5
	c1.7,1.5,3.3,3,5,4.4C-405.4-199.7-373.5-183.4-342-165.6z"/>
<path class="st1" d="M-351.3-203.7c24.8,13.7,48.6,26.8,72.9,41.4c30.1,18,54.9,29.7,87.1,43.3c2.2,0.9,12.7,6.8,14.5,4.7
	c15.2-17-45-42.6-32.9-66.3c5.4-10.6,24.7-9.1,31.8-21.1c5.6-12-23.5-20.5-16-34.9c4-7.6,26.7-24.8,19.3-32.8
	c-2-2.1-4.6,0.6-7.9,1.9c-14.2,5.4-35.8,10.8-50.9,14.9c-34.3,9.2-44.3,7.3-77.4,26c-12.8,7.2-25.5,14.4-38.3,21.6L-351.3-203.7z"/>
<path class="st1" d="M-346.5-219.4c14.5,0,26.4-11.4,26.4-25.4s-11.9-25.4-26.4-25.4s-26.4,11.4-26.4,25.4
	C-372.9-230.8-361.1-219.4-346.5-219.4z"/>
<path class="st1" d="M-636.3-257.5c19,11.5,102.7,82.8,104.3,81c75.4-83.9,208.7-73.7,86.1-38.2c-58.2,16.8-131.2,105.8-131.2,105.1
	c0-67.3-5.6-104.2-53.4-157.4c-3.2-3.6-7.7-3.2-12.1-3.2"/>
<rect x="-435.5" y="-270.2" class="st1" width="90.9" height="101.4"/>
<g>
	
		<radialGradient id="SVGID_1_" cx="118.2852" cy="1.3801" r="88.9673" gradientTransform="matrix(0.9879 0.1552 0.1398 -0.89 0.2602 52.2097)" gradientUnits="userSpaceOnUse">
		<stop  offset="0" style="stop-color:#FFFFFF"/>
		<stop  offset="1" style="stop-color:#000000"/>
	</radialGradient>
	<path class="st2" d="M38.4,18.2C47.4,22.7,93,44,98.9,56c3.8,7.5,5.1,19.8,4.6,26.7c-0.3,3.7-0.4,7.3-0.7,11c0,0.4-0.7,7.9,0.9,7.6
		c0.7-0.1,2.7-3.8,3-4.6c2.3-4.7,4.6-8.2,7.7-12.6c5.7-7.6,11.7-18.2,28.1-15.5c12,2.1,55.5,20.8,70.3,26.9c5,2.1,25.7,11.1,7,6.2
		c-34.2-8.9-59.2-16.9-85.4-7.2c-1.5,0.6-9.3,3.6-11.7,4.5c-4.2,1.4-8.1,1.9-12.4,2.9c-1.6,0.4-5.5,1.8-7.4,0.3
		c-1.8-1.4-5.1-7.5-6.3-9.4c-3-4.6-5.1-8.1-7.4-12.7C85.5,73,75.4,55.5,75,54.9C59.7,34.8,17.7,11.4,12,4.4
		C12.4,4.3,36,16.9,38.4,18.2z"/>
</g>
<path class="st3" d="M119.6-150.6c4.5,11.9,10.5,22.9,13.4,34.5"/>
</svg>
