<?xml version="1.0" encoding="UTF-8" standalone="no"?>
<svg xmlns:dc="http://purl.org/dc/elements/1.1/" xmlns:cc="http://creativecommons.org/ns#" xmlns:rdf="http://www.w3.org/1999/02/22-rdf-syntax-ns#" xmlns:svg="http://www.w3.org/2000/svg" xmlns="http://www.w3.org/2000/svg" xmlns:sodipodi="http://sodipodi.sourceforge.net/DTD/sodipodi-0.dtd" xmlns:inkscape="http://www.inkscape.org/namespaces/inkscape" width="16px" height="16px" viewBox="0 0 16 16" id="svg2" version="1.1" inkscape:version="0.48.4 r9939" sodipodi:docname="166.svg">
  <defs id="defs4">
    <pattern y="0" x="0" height="6" width="6" patternUnits="userSpaceOnUse" id="EMFhbasepattern"/>
    <pattern y="0" x="0" height="6" width="6" patternUnits="userSpaceOnUse" id="EMFhbasepattern-4"/>
    <pattern y="0" x="0" height="6" width="6" patternUnits="userSpaceOnUse" id="EMFhbasepattern-49"/>
  </defs>
  <sodipodi:namedview id="base" pagecolor="#ffffff" bordercolor="#666666" borderopacity="1.0" inkscape:pageopacity="0.0" inkscape:pageshadow="2" inkscape:zoom="11.313709" inkscape:cx="22.213205" inkscape:cy="15.56971" inkscape:document-units="px" inkscape:current-layer="g3808" showgrid="true" inkscape:window-width="1366" inkscape:window-height="705" inkscape:window-x="-8" inkscape:window-y="-8" inkscape:window-maximized="1" units="px" inkscape:snap-global="false">
    <inkscape:grid type="xygrid" id="grid3360"/>
  </sodipodi:namedview>
  
  <g inkscape:label="Layer 1" inkscape:groupmode="layer" id="layer1" transform="translate(0,-1036.3622)">
    <g transform="translate(-2.5265734,1.0312727)" id="g3877">
      <g transform="translate(1.2943666,-0.33897736)" id="g3808">
        <path style="font-size:medium;font-style:normal;font-variant:normal;font-weight:normal;font-stretch:normal;text-indent:0;text-align:start;text-decoration:none;line-height:normal;letter-spacing:normal;word-spacing:normal;text-transform:none;direction:ltr;block-progression:tb;writing-mode:lr-tb;text-anchor:start;baseline-shift:baseline;color:#000000;fill:#000000;fill-opacity:1;fill-rule:nonzero;stroke:none;visibility:visible;display:inline;overflow:visible;enable-background:accumulate;font-family:sans-serif" d="M 9.4863281,0.99414062 7.0546875,3.6464844 C 6.7207199,3.2401273 6.3775417,2.8459663 6.0390625,2.4433593 L 4.9925127,1.3258862 5.0683593,2.4765625 5.09375,2.7832031 C 5.0478036,2.224011 5.1568754,4.067725 5.1679688,4.2851562 L 1.6328125,3.6640625 4.2910156,6.0800781 1.3183594,8.1503906 4.9375,7.9628906 4.3339844,11.511719 6.7402344,8.8652344 8.7949219,11.798828 8.6582031,9.0058594 l 5.2734379,5.9999996 0.75,-0.660156 L 9.4179688,8.3554688 12.15625,8.8261719 9.5117188,6.3984375 12.449219,4.3417969 8.8691406,4.515625 z M 6.1621094,4.1152344 6.9472656,5.2421875 7.9101562,4.1914062 7.6679688,5.5761719 9.0351562,5.5097656 7.9179688,6.2929688 8.9765625,7.265625 7.5585938,7.0214844 7.625,8.3886719 6.8398438,7.265625 5.8945312,8.3066406 6.1328125,6.9003906 4.7597656,6.9707031 5.890625,6.1835938 4.8613281,5.2480469 6.2324219,5.4882812 z" transform="translate(1.2322068,1035.6699)" id="rect3824" inkscape:connector-curvature="0" sodipodi:nodetypes="cccccccccccccccccccccccccccccccccccccccc"/>
      </g>
    </g>
  </g>

	
	
	<metadata>
		<rdf:RDF xmlns:rdf="http://www.w3.org/1999/02/22-rdf-syntax-ns#" xmlns:rdfs="http://www.w3.org/2000/01/rdf-schema#" xmlns:dc="http://purl.org/dc/elements/1.1/">
			<rdf:Description about="https://iconscout.com/legal#licenses" dc:title="Magic, Wand, Tool, Interface, UI, Design" dc:description="Magic, Wand, Tool, Interface, UI, Design" dc:publisher="Iconscout" dc:date="2016-12-14" dc:format="image/svg+xml" dc:language="en">
				<dc:creator>
					<rdf:Bag>
						<rdf:li>Chamestudio</rdf:li>
					</rdf:Bag>
				</dc:creator>
			</rdf:Description>
		</rdf:RDF>
    </metadata></svg>
